<svg xmlns="http://www.w3.org/2000/svg" width="224.468" height="202.813" viewBox="0 0 224.46841 202.81291"><defs><filter id="a" color-interpolation-filters="sRGB"><feFlood flood-opacity=".498" flood-color="#000" result="flood"/><feComposite in="flood" in2="SourceGraphic" operator="in" result="composite1"/><feGaussianBlur in="composite1" stdDeviation="5.6" result="blur"/><feOffset dx="4" dy="4" result="offset"/><feComposite in="SourceGraphic" in2="offset" result="composite2"/></filter></defs><path d="M158.999 182.404c-8.1 4.677-85.43 4.677-93.53 0-8.1-4.676-46.763-71.645-46.763-80.998 0-9.353 38.664-76.32 46.764-80.998 8.1-4.676 85.429-4.676 93.529 0 8.1 4.677 46.764 71.645 46.764 80.998 0 9.353-38.665 76.322-46.764 80.998z" fill="#ffa825" filter="url(#a)"/><path d="M120.154 32.049c-13.464.202-27.798 4.245-36.445 15.247-14.232 14.313-17.006 35.473-28.881 51.377-2.13 2.768-3.586 7.074-.127 9.472 2.744 2.493 8.16 4.27 5.954 9.039-1.71 7.173-7.448 16.586-.73 22.962 5.84 5.247 13.715 7.24 20.785 10.231 1.04 6.288-.849 13.673 2.414 19.393 3.87 3.523 7.617-2.275 7.185-6.006-.007-6.371 1.228-13.76-2.11-19.46-7.37-4.116-16.81-4.828-23.184-10.246 2.314-8.753 6.686-18.455 3.369-27.494-1.376-2.055-4.062-2.366-6.127-3.378C74.04 88.93 76.129 69.037 88.239 55.223c7.141-9.67 19.356-14.535 30.887-14.067 12.052-.605 25.155 1.936 33.35 11.562 13.919 13.46 12.087 35.405 5.864 52.186-5.36 14.663-15.06 28.003-28.076 36.608-3.388 5.522-.765 12.695-1.302 18.784-.1 3.533.368 11.942 5.892 9.466 4.066-4.957 1.994-12.47 3.175-18.362-.657-7.178 7.582-10.084 11.46-15.231 11.094-11.867 18.704-27.276 21.096-43.34.849-14.341 1.82-30.623-8.168-42.325-9.288-13.455-26.568-18.714-42.263-18.455z"/><path d="M123.337 63.199c-10.14-.376-20.55 6.06-21.638 19.663-.502 6.278-.093 7.471 5.445 15.864 4.455 6.752 5.632 9.509 4.592 10.761-1.662 2.004-.468 4.42 2.184 4.42 2.324 0 2.427 1.553.25 3.76-1.313 1.332-1.187 1.996.635 3.342 1.251.924 1.93 2.026 1.508 2.447-.422.422-.359 1.426.14 2.234 1.392 2.252 11.812 1.112 11.812-1.293 0-1.082.885-2.666 1.967-3.518 1.574-1.242 1.638-1.881.326-3.212-2.312-2.344-2.046-3.346 1.103-4.17 2.049-.535 2.526-1.385 1.897-3.366-.868-2.735.891-6.603 6.563-14.445 2.438-3.372 3.22-6.116 3.22-11.28 0-13.643-9.866-20.831-20.004-21.207zm-.016 6.242c5.35 0 9.921 3.048 12.74 8.499 2.519 4.871 1.406 10.736-3.104 16.348-1.996 2.483-4.179 6.093-4.851 8.022-1.076 3.087-1.773 3.51-5.803 3.51-3.736 0-4.578-.418-4.578-2.26 0-1.24-1.901-4.746-4.226-7.791-6.342-8.31-7.04-11.224-4.125-17.248 2.909-6.009 7.627-9.08 13.947-9.08z"/><path d="M120.8 90.985c.656-3.276.367-3.934-1.724-3.934-3.901 0-4.252-2.008-1.242-7.11 3.274-5.549 7.08-6.427 6.12-1.412-.395 2.07-.027 3.278.998 3.278.894 0 2.322.84 3.174 1.867 1.223 1.474.912 2.85-1.478 6.539-3.827 5.906-6.957 6.32-5.847.772zM83.9 86.324c-1.636-2.646 1.476-4.052 8.042-3.635 4.643.295 6.41.949 6.41 2.373 0 2.454-13.014 3.59-14.453 1.262zM146.834 86.324c-1.635-2.646 1.477-4.052 8.042-3.635 4.644.295 6.411.949 6.411 2.373 0 2.454-13.014 3.59-14.453 1.262zM95.332 63.694c-4.753-4.904-5.34-7.477-1.704-7.477 2.868 0 11.06 8.726 9.92 10.568-1.392 2.253-3.98 1.28-8.216-3.09zM140.965 66.308c0-2.121 8.074-10.09 10.223-10.09 2.857 0 1.647 3.35-2.747 7.61-4.531 4.391-7.476 5.369-7.476 2.48zM117.938 59.754c-1.476-3.846-.017-13.37 2.048-13.37 2.552 0 2.862 13.906.329 14.75-.901.3-1.97-.32-2.377-1.38z"/></svg>