<svg xmlns="http://www.w3.org/2000/svg" width="224.468" height="202.813" viewBox="0 0 224.46808 202.81233"><defs><filter id="a" color-interpolation-filters="sRGB"><feFlood flood-opacity=".498" flood-color="#000" result="flood"/><feComposite in="flood" in2="SourceGraphic" operator="in" result="composite1"/><feGaussianBlur in="composite1" stdDeviation="5.6" result="blur"/><feOffset dx="4" dy="4" result="offset"/><feComposite in="SourceGraphic" in2="offset" result="composite2"/></filter></defs><path d="M158.998 182.404c-8.1 4.677-85.428 4.677-93.528 0-8.1-4.676-46.764-71.645-46.764-80.998 0-9.353 38.664-76.321 46.764-80.998 8.1-4.676 85.428-4.676 93.528 0 8.1 4.677 46.764 71.645 46.764 80.998 0 9.353-38.665 76.322-46.764 80.998z" fill="#ffa825" filter="url(#a)"/><path d="M167.941 61.615c-1.24 0-8.724 2.968-16.627 6.596a4674.205 4674.205 0 0 1-24.242 11.045c-5.43 2.447-12.046 5.551-14.7 6.896l-4.827 2.446-1.486-2.124c-.976-1.393-2.073-1.898-3.192-1.468-1.105.424-2.2-.057-3.119-1.37-1.494-2.132-6.303-2.816-6.303-.896 0 1.19 13.547 27.415 15.356 29.727.863 1.103 1.38.956 2.804-.803 1.435-1.772 1.543-2.606.6-4.674-.9-1.98-.862-2.694.182-3.34.833-.514 1.099-1.734.713-3.271-.685-2.727-2.602-1.683 33.345-18.153 25.212-11.55 25.453-11.69 25.823-14.921.395-3.441-1.317-5.69-4.327-5.69zm-81.8 21.065c-3.396.137-2.107 3.4 5.796 18.61 4.809 9.255 9.196 17.387 9.749 18.075 1.383 1.72 2.152 1.578 4.304-.799 1.825-2.017 1.713-2.322-6.79-18.75-7.625-14.727-8.962-16.739-11.323-17.029-.67-.082-1.251-.127-1.736-.107zm-6.254 2.935c-2.473 0-4.442 1.23-4.442 2.774 0 1.499 16.18 33.414 18.24 35.976 1.217 1.513 1.38 1.522 3.825.215 1.065-.57 1.935-1.716 1.935-2.549 0-2.545-18.191-36.416-19.558-36.416zm-8.451 5c-1.911 0-3.99 1.912-3.99 3.668 0 1.292 15.363 30.802 17.222 33.082h.002c1.349 1.654 4.247 1.591 5.672-.125.894-1.078-.86-5.198-8.086-19-6.066-11.585-9.774-17.625-10.82-17.625zm-6.803 6.29c-.615.08-1.54 1-2.203 2.237-1.263 2.36-1.065 3.207 2.404 10.272 2.079 4.236 5.34 10.513 7.244 13.951 3.033 5.472 3.832 6.25 6.416 6.25 1.796 0 2.951-.522 2.951-1.336 0-1.963-15.315-30.945-16.57-31.357a.542.542 0 0 0-.242-.018zm23.623 35.808c-.881.014-2.208.238-4.147.558-3.653.604-3.806.78-3.263 3.739 1.425 7.758.793 18.07-1.405 22.959-2.575 5.726-2.087 10.77 1.266 13.119 5.248 3.676 11.738.06 11.738-6.537 0-2.045-.89-5.678-1.978-8.075-2.127-4.688-2.603-13.91-1.113-21.609.619-3.203.84-4.186-1.098-4.154zm-3.61 33.667c.044 3.07 3 4.53 1.239 4.516-1.763-.014-2.585-.082-3.812-2.594-1.227-2.513 1.454-15.73 1.454-15.73s.612 4.58 1.118 13.808z"/></svg>