<?xml version="1.0" encoding="UTF-8" standalone="no"?>
<svg
   xmlns:dc="http://purl.org/dc/elements/1.1/"
   xmlns:cc="http://creativecommons.org/ns#"
   xmlns:rdf="http://www.w3.org/1999/02/22-rdf-syntax-ns#"
   xmlns:svg="http://www.w3.org/2000/svg"
   xmlns="http://www.w3.org/2000/svg"
   xmlns:sodipodi="http://sodipodi.sourceforge.net/DTD/sodipodi-0.dtd"
   xmlns:inkscape="http://www.inkscape.org/namespaces/inkscape"
   width="224.46825"
   height="202.81276"
   viewBox="0 0 224.46808 202.81233"
   version="1.1"
   id="svg6"
   sodipodi:docname="cta-icon_honey-products.svg"
   inkscape:version="0.92.2 (unknown)">
  <metadata
     id="metadata12">
    <rdf:RDF>
      <cc:Work
         rdf:about="">
        <dc:format>image/svg+xml</dc:format>
        <dc:type
           rdf:resource="http://purl.org/dc/dcmitype/StillImage" />
        <dc:title></dc:title>
      </cc:Work>
    </rdf:RDF>
  </metadata>
  <defs
     id="defs10">
    <filter
       style="color-interpolation-filters:sRGB"
       inkscape:label="Drop Shadow"
       id="filter1209">
      <feFlood
         flood-opacity="0.498039"
         flood-color="rgb(0,0,0)"
         result="flood"
         id="feFlood1199" />
      <feComposite
         in="flood"
         in2="SourceGraphic"
         operator="in"
         result="composite1"
         id="feComposite1201" />
      <feGaussianBlur
         in="composite1"
         stdDeviation="5.6"
         result="blur"
         id="feGaussianBlur1203" />
      <feOffset
         dx="4"
         dy="4"
         result="offset"
         id="feOffset1205" />
      <feComposite
         in="SourceGraphic"
         in2="offset"
         operator="over"
         result="composite2"
         id="feComposite1207" />
    </filter>
  </defs>
  <sodipodi:namedview
     pagecolor="#ffffff"
     bordercolor="#666666"
     borderopacity="1"
     objecttolerance="10"
     gridtolerance="10"
     guidetolerance="10"
     inkscape:pageopacity="0"
     inkscape:pageshadow="2"
     inkscape:window-width="2165"
     inkscape:window-height="1565"
     id="namedview8"
     showgrid="false"
     fit-margin-top="0"
     fit-margin-left="0"
     fit-margin-right="0"
     fit-margin-bottom="0"
     inkscape:zoom="2.7927176"
     inkscape:cx="87.636232"
     inkscape:cy="42.325943"
     inkscape:window-x="1011"
     inkscape:window-y="297"
     inkscape:window-maximized="0"
     inkscape:current-layer="svg6" />
  <path
     d="m 158.99845,182.40369 c -8.09998,4.67699 -85.428859,4.67699 -93.528849,0 -8.09999,-4.676 -46.76393,-71.64489 -46.76393,-80.99787 0,-9.352998 38.66394,-76.3209 46.76393,-80.997894 8.09999,-4.675992 85.428869,-4.675992 93.528849,0 8.1,4.676994 46.76394,71.644896 46.76394,80.997894 0,9.35298 -38.66494,76.32187 -46.76394,80.99787 z"
     id="hexagon"
     style="fill:#ffa825;filter:url(#filter1209)"
     inkscape:connector-curvature="0" />
  <path
     style="fill:#000000;"
     d="m 167.94141,61.615234 c -1.241,0 -8.72395,2.967701 -16.62696,6.595704 -7.903,3.628002 -18.81218,8.59892 -24.24218,11.044921 -5.43001,2.447002 -12.04617,5.551484 -14.70118,6.896485 l -4.82617,2.445312 -1.48633,-2.123047 c -0.976,-1.393001 -2.0724,-1.89875 -3.1914,-1.46875 -1.105,0.424001 -2.20014,-0.05714 -3.119143,-1.36914 -1.494001,-2.133002 -6.302735,-2.816486 -6.302735,-0.896485 10e-7,1.189001 13.546468,27.414566 15.355468,29.726566 0.863,1.103 1.38069,0.95626 2.80469,-0.80274 1.435,-1.772 1.54261,-2.60582 0.59961,-4.67383 -0.901,-1.98 -0.86236,-2.69384 0.18164,-3.33984 0.833,-0.514 1.09889,-1.73448 0.71289,-3.27148 -0.685,-2.727003 -2.60132,-1.682335 33.3457,-18.152348 25.21202,-11.551008 25.45227,-11.689872 25.82227,-14.921874 0.395,-3.441003 -1.31617,-5.689454 -4.32617,-5.689454 z M 86.140625,82.679688 c -3.395126,0.137839 -2.107006,3.401194 5.796875,18.611332 4.808004,9.254 9.19505,17.38621 9.74805,18.07421 1.383,1.72001 2.15268,1.57818 4.30468,-0.79882 1.82501,-2.01701 1.713,-2.32199 -6.791011,-18.750004 C 91.575213,85.089395 90.237955,83.07711 87.876953,82.787109 c -0.6705,-0.08213 -1.25131,-0.127113 -1.736328,-0.107421 z m -6.253906,2.935546 c -2.473002,0 -4.441407,1.229437 -4.441407,2.773438 0,1.499001 16.180233,33.414558 18.240235,35.976558 1.216001,1.51301 1.380217,1.52185 3.824219,0.21485 1.065,-0.57 1.935546,-1.71583 1.935546,-2.54883 0,-2.545 -18.191592,-36.416016 -19.558593,-36.416016 z m -8.451172,5 c -1.911002,0 -3.990235,1.911968 -3.990235,3.667969 0,1.292001 15.363655,30.802027 17.222657,33.082027 h 0.002 c 1.349001,1.65401 4.246874,1.59101 5.671875,-0.125 0.894001,-1.078 -0.858932,-5.19799 -8.085938,-19 C 76.189855,96.655229 72.481548,90.615234 71.435547,90.615234 Z m -6.802735,6.289063 c -0.614811,0.0806 -1.540749,1.000155 -2.203124,2.238281 -1.263001,2.359002 -1.064706,3.206482 2.404296,10.271482 2.079002,4.23601 5.33914,10.51317 7.244141,13.95117 3.033002,5.47201 3.832014,6.25 6.416016,6.25 1.796001,0 2.951171,-0.52193 2.951171,-1.33593 0,-1.963 -15.315311,-30.945425 -16.570312,-31.357425 -0.0735,-0.02425 -0.154357,-0.02909 -0.242188,-0.01758 z m 23.623047,35.808593 c -0.88093,0.0145 -2.208045,0.23828 -4.146484,0.55859 -3.653003,0.604 -3.806672,0.77928 -3.263672,3.73829 1.425001,7.758 0.793705,18.07098 -1.404297,22.95898 -2.575002,5.726 -2.087377,10.77014 1.265625,13.11914 5.248004,3.676 11.738281,0.0609 11.738281,-6.53711 10e-7,-2.045 -0.890514,-5.67722 -1.978515,-8.07422 -2.127002,-4.688 -2.603282,-13.91137 -1.113281,-21.60937 0.619438,-3.20307 0.840391,-4.1861 -1.097657,-4.1543 z m -3.610683,33.66683 c 0.04482,3.06983 3.001462,4.53108 1.239348,4.51653 -1.762114,-0.0146 -2.584776,-0.0817 -3.811527,-2.59449 -1.226751,-2.5128 1.45357,-15.72917 1.45357,-15.72917 0,0 0.612268,4.57941 1.118609,13.80713 z"

     id="scoop"
     inkscape:connector-curvature="0"
     sodipodi:nodetypes="ssccccccscccccccscccccccssccssssccccsccccsscccccccsccccczzcc" />
</svg>
