<?xml version="1.0" encoding="UTF-8" standalone="no"?>
<svg
   xmlns:dc="http://purl.org/dc/elements/1.1/"
   xmlns:cc="http://creativecommons.org/ns#"
   xmlns:rdf="http://www.w3.org/1999/02/22-rdf-syntax-ns#"
   xmlns:svg="http://www.w3.org/2000/svg"
   xmlns="http://www.w3.org/2000/svg"
   xmlns:sodipodi="http://sodipodi.sourceforge.net/DTD/sodipodi-0.dtd"
   xmlns:inkscape="http://www.inkscape.org/namespaces/inkscape"
   width="224.46841"
   height="202.81293"
   viewBox="0 0 224.46825 202.81249"
   version="1.1"
   id="svg6"
   sodipodi:docname="cta-icon_hive-sites.svg"
   inkscape:version="0.92.2 (unknown)">
  <metadata
     id="metadata12">
    <rdf:RDF>
      <cc:Work
         rdf:about="">
        <dc:format>image/svg+xml</dc:format>
        <dc:type
           rdf:resource="http://purl.org/dc/dcmitype/StillImage" />
        <dc:title></dc:title>
      </cc:Work>
    </rdf:RDF>
  </metadata>
  <defs
     id="defs10">
    <filter
       style="color-interpolation-filters:sRGB"
       inkscape:label="Drop Shadow"
       id="filter1209">
      <feFlood
         flood-opacity="0.498039"
         flood-color="rgb(0,0,0)"
         result="flood"
         id="feFlood1199" />
      <feComposite
         in="flood"
         in2="SourceGraphic"
         operator="in"
         result="composite1"
         id="feComposite1201" />
      <feGaussianBlur
         in="composite1"
         stdDeviation="5.6"
         result="blur"
         id="feGaussianBlur1203" />
      <feOffset
         dx="4"
         dy="4"
         result="offset"
         id="feOffset1205" />
      <feComposite
         in="SourceGraphic"
         in2="offset"
         operator="over"
         result="composite2"
         id="feComposite1207" />
    </filter>
  </defs>
  <sodipodi:namedview
     pagecolor="#ffffff"
     bordercolor="#666666"
     borderopacity="1"
     objecttolerance="10"
     gridtolerance="10"
     guidetolerance="10"
     inkscape:pageopacity="0"
     inkscape:pageshadow="2"
     inkscape:window-width="2155"
     inkscape:window-height="1081"
     id="namedview8"
     showgrid="false"
     fit-margin-top="0"
     fit-margin-left="0"
     fit-margin-right="0"
     fit-margin-bottom="0"
     inkscape:zoom="3.9494991"
     inkscape:cx="114.09572"
     inkscape:cy="91.994751"
     inkscape:window-x="1297"
     inkscape:window-y="697"
     inkscape:window-maximized="0"
     inkscape:current-layer="svg6" />
  <path
     d="m 158.99858,182.40383 c -8.09999,4.677 -85.428934,4.677 -93.528924,0 -8.1,-4.676 -46.763969,-71.64495 -46.763969,-80.99794 0,-9.352999 38.663969,-76.320951 46.763969,-80.997948 8.09999,-4.675996 85.428934,-4.675996 93.528924,0 8.1,4.676997 46.76397,71.644949 46.76397,80.997948 0,9.35299 -38.66497,76.32194 -46.76397,80.99794 z"
     id="hexagon"
     style="fill:#ffa825;filter:url(#filter1209)"
     inkscape:connector-curvature="0" />
  <path
     d="m 115.41821,35.585498 c -6.25,0.136 -12.606,-0.319 -18.747005,1.077 -3.264,1.059 -6.066,3.932 -6.635,7.363 -0.306,3.009 2.137,6.121 5.26,6.094 6.573005,0.687 13.196005,0.36 19.792005,0.457 7.238,-0.008 14.5,-0.054 21.704,-0.753 2.316,-0.54 3.118,-3.095 3.128,-5.205 0.172,-3.255 -1.776,-6.589 -4.943,-7.636 -3.73,-1.379 -7.79,-1.133 -11.699,-1.34 -2.62,-0.052 -5.24,-0.054 -7.86,-0.057 z m 33.329,17.92 -67.706005,0.582 c -2.78,3.305 -6.92,6.32 -7.028,11.036 0.107,4.07 4.26,6.474 7.999,6.07 13.46,0.709 26.946005,0.222 40.418005,0.39 9.54,-0.063 19.128,0.257 28.626,-0.795 4.706,0.028 5.798,-5.248 4.492,-8.877 -1.03,-3.586 -4.44,-5.732 -6.802,-8.406 z m -35.04,22.297 -40.328005,0.285 c -3.553,2.86 -6.923,6.99 -6.173,11.851 0.366,3.599 3.356,7.219 7.238,6.84 23.214,1.108 46.462005,0.622 69.692005,0.73 4.612,-0.133 9.297,-0.035 13.833,-0.93 3.948,-1.177 5.546,-5.512 4.939,-9.283 -0.242,-4.33 -3.47,-8.791 -8.09,-8.922 -7.299,-0.794 -14.667,-0.497 -22,-0.638 -6.37,-0.013 -12.74,0.025 -19.11,0.067 z m 2.123,22.783 c -14.983,0.167 -30.008005,-0.295 -44.955005,0.914 -5.115,1.387002 -6.904,7.875002 -5.481,12.490002 1.368,4.147 5.831,6.016 9.91,5.747 22.542,1.345 45.143005,1.025 67.709005,0.685 5.64,-0.212 11.344,-0.266 16.912,-1.184 7.256,-2.557 7.642,-14.522 0.459,-17.439002 -4.589,-1.4 -9.5,-0.842 -14.241,-1.112 -10.104,-0.145 -20.209,-0.08 -30.313,-0.101 z m -0.586,23.000002 c -14.195,0.183 -28.445005,-0.45 -42.598005,0.711 -5.195,1.761 -5.822,8.77 -3.52,13.051 2.931,5.442 9.704,6.01 15.21,6.172 3.67,0.09 7.368,-0.064 11.006,0.531 -1.689,3.229 -6.887,0.625 -9.947,1.581 -3.596,-0.092 -8.461,0.04 -9.991,3.963 -1.834,5.547 3.213,11.764 8.901,11.83 6.085,0.375 12.195,0.01 18.290005,0.161 2.315,0.01 5.382,0.752 4.354,-2.615 0.08,-6.224 -0.52,-12.594 0.817,-18.703 2.29,-4.147 7.922,-3.961 11.878,-2.764 4.714,1.49 4.359,7.228 4.258,11.202 0.057,4.293 -0.012,8.587 0.016,12.88 8.683,-0.297 17.575,0.846 26.083,-1.314 4.532,-1.767 7.585,-8.087 4.21,-12.219 -3.01,-3.102 -7.767,-1.8 -11.63,-2.276 -1.824,-0.471 -7.384,0.593 -6.586,-1.734 3.258,-0.965 6.829,-0.136 10.215,-0.527 5.386,0.004 11.988,-0.651 14.98,-5.823 2.39,-3.925 2.189,-9.74 -1.601,-12.735 -3.042,-2.835 -8.047,-0.725 -11.918,-1.372 z"
     style="fill:#000000;"
     id="hive"
     inkscape:connector-curvature="0" />
</svg>
