<svg xmlns="http://www.w3.org/2000/svg" width="224.468" height="202.813" viewBox="0 0 224.46841 202.81291"><defs><filter id="a" color-interpolation-filters="sRGB"><feFlood flood-opacity=".498" flood-color="#000" result="flood"/><feComposite in="flood" in2="SourceGraphic" operator="in" result="composite1"/><feGaussianBlur in="composite1" stdDeviation="5.6" result="blur"/><feOffset dx="4" dy="4" result="offset"/><feComposite in="SourceGraphic" in2="offset" result="composite2"/></filter></defs><path d="M158.999 182.404c-8.1 4.677-85.43 4.677-93.53 0-8.1-4.676-46.763-71.645-46.763-80.998 0-9.353 38.664-76.32 46.764-80.998 8.1-4.676 85.429-4.676 93.529 0 8.1 4.677 46.764 71.645 46.764 80.998 0 9.353-38.665 76.322-46.764 80.998z" fill="#ffa825" filter="url(#a)"/><path d="M79.83 152.171l.312-7.695 16.452-.53c9.048-.292 16.332-.89 16.186-1.327-.146-.438-.266-1.513-.266-2.388 0-.876-.716-1.592-1.592-1.592-.875 0-1.592-.732-1.592-1.626 0-.894.717-1.9 1.592-2.236.876-.336 1.592-1.276 1.592-2.09 0-1.184-2.634-1.478-13.267-1.478H85.98v-6.899l-.149-6.9 14.816-.221c21.077-.317 29.549-4.23 34.698-13.557 6.25-11.32 2.887-22.254-7.017-31.567l-3.823-3.594-3.872 1.847-3.873 1.846V83.53c0 12.23-.201 12.654-5.991 12.654-2.122 0-2.569.464-2.301 2.388.312 2.249-.04 2.388-6.037 2.382-5.62-.007-6.405-.264-6.682-2.195-.228-1.593-1.486-2.456-4.631-3.177l-4.318-.99.17-27.592c.093-15.176.505-27.915.916-28.31.411-.396 2.18-.875 3.931-1.066 2.362-.257 3.272-.964 3.524-2.735.311-2.194.894-2.388 7.164-2.388 6.573 0 6.825.098 6.825 2.653 0 1.908.572 2.654 2.036 2.654 4.159 0 5.394 1.192 5.394 5.207 0 3.478.398 4.063 3.538 5.198 1.946.704 4.212 2.538 5.035 4.077.824 1.538 3.46 3.639 5.86 4.667 5.267 2.258 14.508 11.252 17.415 16.95 4.6 9.016 4.537 25.019-.137 34.728-1.189 2.47-4.258 6.822-6.82 9.672-4.532 5.04-4.642 5.33-4.013 10.634.388 3.28 1.17 5.453 1.96 5.453.723 0 1.929.74 2.68 1.646 1.154 1.39 1.009 1.74-.931 2.247-2.423.633-2.861 2.065-1.358 4.438.602.95 2.471 1.307 5.556 1.061l4.649-.37.53 7.786c.292 4.282.332 7.984.09 8.226-.244.242-16.385.44-35.87.44H79.519zM148.94 169.282c2.537-.12 2.827-.602 2.487-4.117-.37-3.81-.6-3.996-5.358-4.347-2.734-.201-19.094-.028-36.356.385l-31.384.752v7.135l18.955.293c17.573.272 44.96.218 51.657-.101z"/></svg>