<?xml version="1.0" encoding="UTF-8" standalone="no"?>
<!-- Created with Inkscape (http://www.inkscape.org/) -->

<svg
   xmlns:dc="http://purl.org/dc/elements/1.1/"
   xmlns:cc="http://creativecommons.org/ns#"
   xmlns:rdf="http://www.w3.org/1999/02/22-rdf-syntax-ns#"
   xmlns:svg="http://www.w3.org/2000/svg"
   xmlns="http://www.w3.org/2000/svg"
   xmlns:sodipodi="http://sodipodi.sourceforge.net/DTD/sodipodi-0.dtd"
   xmlns:inkscape="http://www.inkscape.org/namespaces/inkscape"
   version="1.1"
   id="svg1266"
   width="224.46841"
   height="202.81291"
   viewBox="0 0 224.46841 202.81291"
   sodipodi:docname="cta-icon_bee-idea.svg"
   inkscape:version="0.92.2 (unknown)">
  <metadata
     id="metadata1272">
    <rdf:RDF>
      <cc:Work
         rdf:about="">
        <dc:format>image/svg+xml</dc:format>
        <dc:type
           rdf:resource="http://purl.org/dc/dcmitype/StillImage" />
        <dc:title></dc:title>
      </cc:Work>
    </rdf:RDF>
  </metadata>
  <defs
     id="defs1270">
    <filter
       style="color-interpolation-filters:sRGB"
       inkscape:label="Drop Shadow"
       id="filter1209">
      <feFlood
         flood-opacity="0.498039"
         flood-color="rgb(0,0,0)"
         result="flood"
         id="feFlood1199" />
      <feComposite
         in="flood"
         in2="SourceGraphic"
         operator="in"
         result="composite1"
         id="feComposite1201" />
      <feGaussianBlur
         in="composite1"
         stdDeviation="5.6"
         result="blur"
         id="feGaussianBlur1203" />
      <feOffset
         dx="4"
         dy="4"
         result="offset"
         id="feOffset1205" />
      <feComposite
         in="SourceGraphic"
         in2="offset"
         operator="over"
         result="composite2"
         id="feComposite1207" />
    </filter>
  </defs>
  <sodipodi:namedview
     pagecolor="#ffffff"
     bordercolor="#666666"
     borderopacity="1"
     objecttolerance="10"
     gridtolerance="10"
     guidetolerance="10"
     inkscape:pageopacity="0"
     inkscape:pageshadow="2"
     inkscape:window-width="2126"
     inkscape:window-height="1394"
     id="namedview1268"
     showgrid="false"
     fit-margin-top="0"
     fit-margin-left="0"
     fit-margin-right="0"
     fit-margin-bottom="0"
     inkscape:zoom="5.5312498"
     inkscape:cx="73.055736"
     inkscape:cy="102.85278"
     inkscape:window-x="1174"
     inkscape:window-y="461"
     inkscape:window-maximized="0"
     inkscape:current-layer="svg1266" />
  <path
     d="m 158.99869,182.40408 c -8.1,4.677 -85.42899,4.677 -93.52899,0 -8.1,-4.676 -46.764,-71.645 -46.764,-80.998 0,-9.353002 38.664,-76.321004 46.764,-80.998004 8.1,-4.676001 85.42899,-4.676001 93.52899,0 8.1,4.677 46.76401,71.645002 46.76401,80.998004 0,9.353 -38.66501,76.322 -46.76401,80.998 z"
     id="hexagon"
     style="fill:#ffa825;filter:url(#filter1209)"
     inkscape:connector-curvature="0" />
  <path
     style="fill:#000000;"
     d="M 120.15367,32.048674 C 106.68969,32.250682 92.356499,36.293751 83.708659,47.295661 69.476756,61.609069 66.702551,82.768626 54.827991,98.672683 c -2.130056,2.768087 -3.585645,7.074107 -0.12676,9.472437 2.74358,2.49322 8.159388,4.27039 5.953888,9.03839 -1.710708,7.17388 -7.448419,16.58658 -0.729832,22.9628 5.838878,5.24705 13.715132,7.2402 20.784832,10.23109 1.039869,6.28764 -0.849113,13.67246 2.414206,19.39239 3.869189,3.5235 7.616294,-2.2749 7.184999,-6.00575 -0.0077,-6.37136 1.227417,-13.76045 -2.11075,-19.4596 -7.369338,-4.11665 -16.809881,-4.82822 -23.183673,-10.24645 2.314366,-8.75312 6.685918,-18.45539 3.368749,-27.49353 -1.376106,-2.05566 -4.061171,-2.36688 -6.126743,-3.37835 11.782895,-14.256316 13.871913,-34.1489 25.982,-47.963367 7.141301,-9.669825 19.356403,-14.534961 30.887233,-14.06654 12.05216,-0.604789 25.15528,1.93602 33.34946,11.562066 13.91933,13.458975 12.08742,35.404956 5.864,52.186011 -5.35958,14.66321 -15.06043,28.00246 -28.07585,36.60758 -3.38778,5.52253 -0.76437,12.69522 -1.30204,18.78439 -0.0996,3.53298 0.3684,11.94213 5.8923,9.46586 4.06635,-4.9575 1.99436,-12.46986 3.17501,-18.3624 -0.65662,-7.17735 7.58175,-10.08395 11.46003,-15.23098 11.09391,-11.86661 18.70441,-27.27612 21.09597,-43.340461 0.84856,-14.340513 1.82072,-30.621817 -8.16835,-42.324462 -9.28738,-13.45519 -26.56779,-18.714244 -42.263,-18.455133 z"
     id="head"
     inkscape:connector-curvature="0" />
  <path
     style="fill:#000000;"
     d="m 123.33666,63.198875 c -10.13883,-0.375991 -20.54886,6.060049 -21.63758,19.663196 -0.50245,6.278015 -0.0933,7.471395 5.44493,15.864232 4.45519,6.751527 5.63162,9.508697 4.59217,10.761177 -1.66237,2.00304 -0.46805,4.41932 2.18373,4.41932 2.32442,0 2.42706,1.553 0.24968,3.76054 -1.31307,1.33126 -1.18623,1.99566 0.63572,3.34186 1.25077,0.92417 1.92925,2.0253 1.50769,2.44686 -0.42157,0.42156 -0.35876,1.42635 0.1402,2.23367 1.39199,2.25228 11.81174,1.11213 11.81174,-1.29257 0,-1.08169 0.88502,-2.66569 1.9667,-3.51855 1.57471,-1.24158 1.63876,-1.88082 0.32651,-3.21127 -2.31255,-2.34458 -2.04649,-3.34617 1.10243,-4.16964 2.04899,-0.53581 2.52627,-1.38594 1.89757,-3.36683 -0.86787,-2.73438 0.89103,-6.60284 6.56271,-14.444892 2.43857,-3.371747 3.22086,-6.115535 3.22086,-11.279737 0,-13.643522 -9.86623,-20.831374 -20.00506,-21.207366 z m -0.0153,6.24198 c 5.3505,0 9.92105,3.048606 12.73941,8.498696 2.51928,4.871785 1.40616,10.736293 -3.10371,16.348224 -1.99578,2.483483 -4.1789,6.093055 -4.85146,8.022385 -1.076,3.0866 -1.77289,3.50895 -5.80216,3.50895 -3.73608,0 -4.57873,-0.4171 -4.57873,-2.25864 0,-1.2414 -1.90098,-4.746821 -4.22535,-7.791906 -6.34276,-8.309463 -7.04115,-11.224051 -4.12546,-17.247069 2.90914,-6.009497 7.62715,-9.08064 13.94746,-9.08064 z"
     id="light-bulb"
     inkscape:connector-curvature="0" />
  <path
     style="fill:#000000;"
     d="m 120.80094,90.984785 c 0.65511,-3.275549 0.36653,-3.933408 -1.72543,-3.933408 -3.90083,0 -4.25154,-2.008794 -1.2414,-7.110591 3.27389,-5.548827 7.07907,-6.426563 6.12043,-1.411792 -0.39564,2.06968 -0.0279,3.277839 0.99775,3.277839 0.8934,0 2.32151,0.840035 3.1736,1.866742 1.22341,1.474122 0.91248,2.849523 -1.47838,6.539449 -3.82698,5.90638 -6.9561,6.319431 -5.84657,0.771761 z"
     id="flame"
     inkscape:connector-curvature="0" />
  <path
     style="fill:#000000;"
     d="m 83.899474,86.323798 c -1.635041,-2.645552 1.476767,-4.052072 8.042453,-3.635145 4.643479,0.294866 6.410816,0.949275 6.410816,2.373798 0,2.453958 -13.014254,3.589722 -14.453269,1.261347 z"
     id="photon1"
     inkscape:connector-curvature="0" />
  <path
     style="fill:#000000;"
     d="m 146.83399,86.323798 c -1.63504,-2.645552 1.47677,-4.052072 8.04246,-3.635145 4.64347,0.294866 6.41081,0.949275 6.41081,2.373798 0,2.453958 -13.01426,3.589722 -14.45327,1.261347 z"
     id="photon2"
     inkscape:connector-curvature="0" />
  <path
     style="fill:#000000;"
     d="m 95.332101,63.694074 c -4.753373,-4.904237 -5.3397,-7.476612 -1.70416,-7.476612 2.867931,0 11.059349,8.725427 9.920819,10.567584 -1.39236,2.252905 -3.981027,1.279092 -8.216659,-3.090972 z"
     id="photon3"
     inkscape:connector-curvature="0" />
  <path
     style="fill:#000000;"
     d="m 140.96465,66.308183 c 0,-2.12163 8.07413,-10.090721 10.22373,-10.090721 2.85645,0 1.64675,3.350914 -2.74712,7.609614 -4.53157,4.392172 -7.47661,5.369481 -7.47661,2.481107 z"
     id="photon4"
     inkscape:connector-curvature="0" />
  <path
     style="fill:#000000;"
     d="m 117.93775,59.754332 c -1.47597,-3.846336 -0.0166,-13.370388 2.04873,-13.370388 2.55171,0 2.86138,13.905745 0.32847,14.750049 -0.90102,0.300341 -1.97076,-0.320505 -2.3772,-1.379661 z"
     id="photon5"
     inkscape:connector-curvature="0" />
</svg>
