<?xml version="1.0" encoding="UTF-8" standalone="no"?>
<!-- Created with Inkscape (http://www.inkscape.org/) -->

<svg
   xmlns:dc="http://purl.org/dc/elements/1.1/"
   xmlns:cc="http://creativecommons.org/ns#"
   xmlns:rdf="http://www.w3.org/1999/02/22-rdf-syntax-ns#"
   xmlns:svg="http://www.w3.org/2000/svg"
   xmlns="http://www.w3.org/2000/svg"
   xmlns:sodipodi="http://sodipodi.sourceforge.net/DTD/sodipodi-0.dtd"
   xmlns:inkscape="http://www.inkscape.org/namespaces/inkscape"
   version="1.1"
   id="svg7255"
   width="224.46841"
   height="202.81291"
   viewBox="0 0 224.46841 202.81291"
   sodipodi:docname="cta-icon_honey-jar.svg"
   inkscape:version="0.92.2 (unknown)">
  <metadata
     id="metadata7261">
    <rdf:RDF>
      <cc:Work
         rdf:about="">
        <dc:format>image/svg+xml</dc:format>
        <dc:type
           rdf:resource="http://purl.org/dc/dcmitype/StillImage" />
        <dc:title></dc:title>
      </cc:Work>
    </rdf:RDF>
  </metadata>
  <defs
     id="defs7259">
    <filter
       style="color-interpolation-filters:sRGB"
       inkscape:label="Drop Shadow"
       id="filter1209">
      <feFlood
         flood-opacity="0.498039"
         flood-color="rgb(0,0,0)"
         result="flood"
         id="feFlood1199" />
      <feComposite
         in="flood"
         in2="SourceGraphic"
         operator="in"
         result="composite1"
         id="feComposite1201" />
      <feGaussianBlur
         in="composite1"
         stdDeviation="5.6"
         result="blur"
         id="feGaussianBlur1203" />
      <feOffset
         dx="4"
         dy="4"
         result="offset"
         id="feOffset1205" />
      <feComposite
         in="SourceGraphic"
         in2="offset"
         operator="over"
         result="composite2"
         id="feComposite1207" />
    </filter>
  </defs>
  <sodipodi:namedview
     pagecolor="#ffffff"
     bordercolor="#666666"
     borderopacity="1"
     objecttolerance="10"
     gridtolerance="10"
     guidetolerance="10"
     inkscape:pageopacity="0"
     inkscape:pageshadow="2"
     inkscape:window-width="2378"
     inkscape:window-height="1482"
     id="namedview7257"
     showgrid="false"
     inkscape:zoom="3.6875001"
     inkscape:cx="122.81942"
     inkscape:cy="66.267892"
     inkscape:window-x="1398"
     inkscape:window-y="73"
     inkscape:window-maximized="0"
     inkscape:current-layer="svg7255"
     fit-margin-top="0"
     fit-margin-left="0"
     fit-margin-right="0"
     fit-margin-bottom="0" />
  <path
     d="m 158.99869,182.40408 c -8.1,4.677 -85.42899,4.677 -93.52899,0 -8.1,-4.676 -46.764,-71.645 -46.764,-80.998 0,-9.353008 38.664,-76.321005 46.764,-80.998005 8.1,-4.676 85.42899,-4.676 93.52899,0 8.1,4.677 46.76401,71.644997 46.76401,80.998005 0,9.353 -38.66501,76.322 -46.76401,80.998 z"
     id="hexagon"
     style="fill:#ffa825;filter:url(#filter1209)"
     inkscape:connector-curvature="0" />
  <path
     style="fill:#000000;"
     d="m 107.91766,34.423804 c -0.31532,0.0091 -0.63632,0.03976 -0.96194,0.0917 -1.99641,0.318418 -4.64427,2.323079 -4.64427,3.516921 0,0.420258 -0.94831,0.651112 -2.5388,0.616719 -3.37984,-0.0731 -5.84131,2.147014 -6.38296,5.759047 -0.35878,2.392502 -0.45227,2.492051 -2.369788,2.492051 -1.5074,0 -2.47483,0.477234 -3.94485,1.947251 l -1.947249,1.947253 v 6.098872 c 0,8.403918 1.249539,10.626278 5.976609,10.626278 1.562098,0 2.043378,0.236643 2.046138,1.003293 0.0138,4.345333 2.88364,7.581321 6.72638,7.585832 l 1.86095,0.0036 v 6.30025 6.30025 H 91.695962 c -11.15419,0 -12.768178,0.359227 -15.329894,3.403646 -1.941792,2.307693 -2.164029,6.822141 -0.46209,9.403633 1.347511,2.04389 3.949068,3.79548 5.643974,3.80101 1.113765,0.003 1.289178,0.3039 1.289178,2.21874 0,2.15847 -0.0602,2.2233 -2.332027,2.52802 -3.234928,0.4339 -6.475459,2.74892 -8.37696,5.9838 l -1.607426,2.73298 -0.161822,21.19322 c -0.16143,21.10066 -0.156672,21.20432 1.145337,23.72842 0.812979,1.57607 2.063995,2.93034 3.304754,3.57985 1.860639,0.97398 4.111773,1.04465 33.230944,1.04465 35.51078,0 34.05319,0.18466 36.53389,-4.6245 1.30201,-2.5241 1.30676,-2.62776 1.14534,-23.72842 l -0.16182,-21.19322 -1.60742,-2.73298 c -1.90151,-3.23488 -5.14023,-5.54991 -8.37517,-5.9838 -2.27184,-0.30473 -2.33202,-0.36956 -2.33202,-2.52802 0,-1.64859 0.23378,-2.21515 0.91519,-2.21515 1.84518,0 4.82704,-1.89204 6.01796,-3.81899 1.66918,-2.700794 1.33063,-7.540042 -0.67965,-9.720078 -2.64401,-2.867262 -3.93886,-3.072811 -19.40959,-3.072811 h -14.33918 v -4.295462 -4.295461 h 2.35001 c 1.92023,0 2.71377,-0.365571 4.35299,-2.004789 1.44068,-1.44068 2.5116,-2.006819 3.8082,-2.008384 3.78674,-0.0045 6.65692,-3.267012 6.67065,-7.585832 0.002,-0.780711 0.49042,-1.003293 2.20976,-1.003293 2.16903,0 5.23942,-1.985187 5.23942,-3.387463 0,-0.372999 6.57444,-0.635564 18.55733,-0.742581 20.80845,-0.185836 20.29232,-0.08026 21.60856,-4.473466 0.51999,-1.735582 0.4609,-2.48099 -0.33443,-4.157013 -1.75354,-3.695305 -2.63557,-3.849554 -21.96098,-3.849554 h -17.18364 l -2.00479,-2.004789 c -1.52449,-1.524484 -2.482,-2.004788 -4.00058,-2.004788 -1.91752,0 -2.01281,-0.09955 -2.37159,-2.492051 -0.53419,-3.562302 -3.0086,-5.833123 -6.28047,-5.762643 -2.10603,0.04537 -2.56537,-0.168166 -3.37487,-1.578658 -0.99792,-1.738732 -2.90808,-2.706855 -5.11537,-2.643085 z m 0.82709,3.759653 c 0.41293,0 0.82645,0.281637 1.39167,0.846866 0.77858,0.778576 0.90081,3.238729 0.90081,18.215705 0,12.703318 -0.18436,17.497452 -0.68865,18.001742 -0.37804,0.378045 -1.09977,0.686843 -1.60383,0.686843 -2.18448,0 -2.29067,-0.869421 -2.29067,-18.688585 0,-14.976976 0.12223,-17.437129 0.90081,-18.215705 0.56523,-0.565229 0.97694,-0.846866 1.38986,-0.846866 z m -10.02394,4.816886 h 1.71891 1.7189 l 0.15283,13.675714 c 0.10801,9.607369 -0.0408,13.910099 -0.49985,14.463245 -0.35941,0.433059 -0.94294,0.783328 -1.29816,0.778541 -2.01209,-0.02732 -2.1015,-0.711461 -1.94547,-14.925335 z m 16.61187,0 h 1.71891 1.7171 l 0.15463,13.992165 c 0.1187,10.812786 -0.0122,14.097981 -0.57356,14.454255 -0.39953,0.253588 -1.01668,0.466293 -1.37189,0.47108 -1.75477,0.02383 -1.95086,-1.646008 -1.79801,-15.241786 z m 10.56156,7.84115 c 1.34069,0.103315 1.75306,1.791338 1.75306,6.147418 0,3.102187 -0.25785,5.229365 -0.68684,5.658359 -0.74889,0.748893 -2.33184,0.913587 -2.93976,0.305663 -0.21002,-0.210024 -0.38297,-2.899971 -0.38297,-5.976607 0,-5.134514 0.0974,-5.624074 1.1741,-5.965819 0.41451,-0.131561 0.77302,-0.192855 1.08241,-0.169014 z m -34.277398,0.0054 c 0.3102,-0.02206 0.668778,0.03773 1.082408,0.169013 1.12018,0.355524 1.18312,0.732621 1.03026,6.204955 -0.16238,5.813351 -0.1663,5.826186 -1.66496,5.999982 -1.949308,0.226056 -2.220548,-0.563182 -2.220548,-6.451284 0,-4.179859 0.42866,-5.827098 1.77284,-5.922666 z m 17.127908,41.985484 c 25.5517,0 26.85819,0.0511 28.00771,1.091396 1.6488,1.492148 1.59064,4.361918 -0.12047,5.969415 -1.32191,1.241762 -1.40135,1.246032 -27.96636,1.246032 H 82.024426 l -1.246025,-1.326942 c -1.605688,-1.709194 -1.624062,-4.454548 -0.03956,-5.888505 1.149519,-1.040261 2.454212,-1.091396 28.005909,-1.091396 z m -6.30025,12.282263 v 3.66973 c 0,3.99316 0.79998,5.32427 2.8121,4.68565 0.97321,-0.30888 1.17312,-0.94724 1.31615,-4.20016 l 0.16722,-3.83518 h 11.45695 11.45517 l 0.17261,2.98831 c 0.13942,2.41573 0.45613,3.21245 1.65237,4.15341 0.81397,0.6403 2.10349,1.16333 2.86425,1.16333 3.2854,0 7.62719,3.93899 7.62719,6.91876 v 1.67395 l -16.75573,-0.009 c -9.21484,-0.005 -17.05948,-0.20446 -17.43357,-0.44232 -0.37409,-0.23787 -0.95016,-1.14217 -1.28018,-2.01018 -0.33002,-0.86802 -0.99488,-1.7284 -1.47618,-1.91309 -1.12419,-0.43139 -2.57835,0.771 -2.57835,2.13244 0,0.58042 -0.49821,1.32267 -1.10757,1.64879 -1.27536,0.68255 -25.611894,0.83582 -25.981347,0.16361 -0.501946,-0.91326 0.802867,-4.05872 2.310451,-5.56845 1.748463,-1.75095 3.552059,-2.59453 5.550477,-2.59453 0.724603,0 1.983745,-0.52304 2.797711,-1.16333 1.19625,-0.94095 1.51296,-1.73768 1.65238,-4.15341 l 0.17261,-2.98831 7.301738,-0.16003 z m 12.83604,29.16203 c 0.51614,0.009 1.09203,0.0332 1.74049,0.0665 l 3.41263,0.1762 1.97782,3.00629 c 1.92232,2.92294 2.05308,3.00808 4.67844,3.00808 1.48555,0 3.11311,0.1577 3.61581,0.35059 0.50269,0.19292 1.85668,2.03739 3.00987,4.09949 l 2.0965,3.74887 -1.56248,2.98651 c -2.60919,4.98348 -3.24592,5.42461 -7.81958,5.42461 h -3.98441 l -1.78182,-2.43452 c -0.97978,-1.3389 -1.91099,-2.75632 -2.06952,-3.15012 -0.18063,-0.44865 -1.441,-0.71561 -3.37668,-0.71561 -3.61655,0 -4.33249,-0.55028 -6.76953,-5.20885 l -1.67576,-3.20227 2.13066,-3.8082 c 2.08296,-3.72469 2.76461,-4.41253 6.37756,-4.3476 z"
     id="path10436"
     inkscape:connector-curvature="0" />
  <path
     style="fill:#000000;"
     d="m 130.41396,151.31091 1.24985,-2.11834 -1.15862,-2.03442 c -0.98407,-1.72793 -1.50453,-2.06074 -3.45463,-2.20909 -2.14663,-0.16332 -2.36917,-0.0329 -3.42071,2.00477 -1.12384,2.17772 -1.12377,2.18119 0.0757,4.32744 1.05149,1.88158 1.46443,2.14798 3.32949,2.14798 1.84787,0 2.29424,-0.27984 3.37898,-2.11834 z"
     id="hex1"
     inkscape:connector-curvature="0" />
  <path
     style="fill:#000000;"
     d="m 119.78019,144.46764 1.22091,-2.13632 -1.22899,-2.18667 c -1.13022,-2.01096 -1.40619,-2.17301 -3.43414,-2.01645 -1.84695,0.14258 -2.39338,0.50071 -3.36379,2.20465 l -1.15862,2.03442 1.24985,2.11835 c 1.08355,1.83647 1.5322,2.11834 3.37187,2.11834 1.84995,0 2.27855,-0.2739 3.34291,-2.13632 z"
     id="hex2"
     inkscape:connector-curvature="0" />
</svg>
