<svg xmlns="http://www.w3.org/2000/svg" width="224.468" height="202.813" viewBox="0 0 224.4684 202.81291"><defs><filter id="a" color-interpolation-filters="sRGB"><feFlood flood-opacity=".498" flood-color="#000" result="flood"/><feComposite in="flood" in2="SourceGraphic" operator="in" result="composite1"/><feGaussianBlur in="composite1" stdDeviation="5.6" result="blur"/><feOffset dx="4" dy="4" result="offset"/><feComposite in="SourceGraphic" in2="offset" result="composite2"/></filter></defs><path d="M158.999 182.404c-8.1 4.677-85.43 4.677-93.53 0-8.1-4.676-46.763-71.645-46.763-80.998 0-9.353 38.664-76.32 46.764-80.998 8.1-4.676 85.429-4.676 93.529 0 8.1 4.677 46.764 71.645 46.764 80.998 0 9.353-38.665 76.322-46.764 80.998z" fill="#ffa825" filter="url(#a)"/><path d="M126.472 52.453c0-1.248-.665-2.91-1.497-3.742-1.367-1.368-2.494-1.497-13.055-1.497-11.096 0-11.605.066-12.723 1.663-1.653 2.36-1.45 5.499.472 7.289 1.496 1.393 2.602 1.526 12.724 1.526 10.088 0 11.22-.135 12.582-1.497.832-.832 1.497-2.495 1.497-3.742zM137.398 66.162c.379-1.928.1-2.75-1.453-4.304l-1.92-1.92H90.479l-1.837 1.836c-2.27 2.27-2.342 4.64-.21 6.91l1.628 1.731h22.18c16.574 0 22.496-.236 23.435-.935.69-.515 1.466-2.008 1.723-3.318zM143.211 74.212c-1.916-1.507-2.775-1.551-30.263-1.551-32.914 0-33.588.113-33.616 5.657-.012 2.432 1.137 4.382 2.982 5.063.618.227 14.538.35 30.934.273 28.56-.135 29.856-.202 30.873-1.594 1.764-2.412 1.339-6.08-.91-7.848zM117.646 94.445l.959 2.166h14.62c16.757 0 17.946-.334 17.946-5.036 0-1.487-.558-3.32-1.239-4.074-1.167-1.29-3.323-1.368-37.55-1.368-40.743 0-39.05-.23-39.05 5.312 0 4.855 1.091 5.168 17.943 5.15l14.615-.016 1.123-2.415c2.126-4.574 8.56-4.403 10.633.28zM156.41 104.095c0-1.247-.665-2.91-1.497-3.742-1.41-1.41-2.495-1.497-18.711-1.497h-17.214v5.988h-12.532l-.48-2.994-.478-2.994H88.992c-16.151 0-18.852.338-20.325 2.545-.93 1.391-.634 4.52.592 6.27l1.165 1.663h41.496c40.498 0 41.532-.036 42.993-1.496.832-.832 1.497-2.495 1.497-3.743zM146.205 113.131c-1.925-1.514-2.735-1.551-33.73-1.551-36.104 0-36.125.004-36.125 5.613 0 5.65-.226 5.616 36.898 5.416 31.5-.17 32.847-.235 33.867-1.63 1.764-2.412 1.338-6.08-.91-7.848zM140.95 126.42c-1.156-1.278-3.041-1.368-28.568-1.368-30.734 0-30.068-.118-30.068 5.312 0 5.193-.159 5.166 29.938 5.166 22.873 0 26.844-.164 28.274-1.165 2.04-1.429 2.278-5.897.425-7.945zM134.404 144c.379-1.928.101-2.75-1.452-4.304l-1.921-1.92H93.473l-1.837 1.836c-2.225 2.225-2.363 5.122-.34 7.145 1.419 1.419 2.494 1.496 20.813 1.496 14.284 0 19.643-.243 20.572-.935.69-.515 1.466-2.008 1.723-3.319zM166.14 66.048c0-2.657.2-3.217.898-2.518.494.494 1.774.898 2.844.898 2.597 0 3.742-1.29 3.742-4.215 0-2.499-2.184-4.719-5.72-5.816-.881-.273-1.803-1.243-2.048-2.156-.76-2.839-.546-3.657.845-3.224 1.823.568 3.38-.587 3.057-2.267-.487-2.53-4.393-1.836-6.395 1.136-.943 1.398-1.714 2.094-1.714 1.545 0-3.079-6.214-5.946-7.217-3.33-.602 1.568 1.212 3.537 2.861 3.106 1.008-.264 1.36.063 1.35 1.258-.015 2.288-.696 3.074-4.199 4.85-3.2 1.621-4.022 2.789-4.022 5.715 0 2.419 1.784 3.616 4.855 3.257 2.55-.298 2.63-.23 2.63 2.231 0 2.594 2.591 6.772 4.249 6.85.485.023 1.58-.846 2.432-1.93 1.055-1.342 1.552-3.066 1.552-5.39zM66.597 151.942c0-2.833.012-2.844 2.613-2.422 5.151.836 6.796-4.005 2.569-7.562-1.267-1.066-2.59-1.937-2.94-1.937-1.253 0-2.99-2.383-2.99-4.1 0-1.322.332-1.661 1.362-1.392 1.649.432 3.463-1.538 2.861-3.106-.995-2.593-7.169.22-7.247 3.302-.02.75-.407.487-1.064-.721-2.125-3.905-7.517-4.894-7.005-1.284.174 1.225.823 1.754 2.365 1.93 1.895.217 2.072.46 1.629 2.246-.273 1.101-.724 2.092-1.003 2.202-.278.11-1.853.96-3.5 1.89-2.409 1.36-3.04 2.17-3.231 4.152-.131 1.354.162 2.946.653 3.536 1.083 1.306 4.562 1.411 5.797.176.698-.698.898-.085.898 2.759 0 2.724.415 4.098 1.627 5.388 2.099 2.234 3.148 2.184 5.055-.24.951-1.21 1.55-3.072 1.55-4.817z"/></svg>