<?xml version="1.0" encoding="UTF-8" standalone="no"?>
<!-- Created with Inkscape (http://www.inkscape.org/) -->

<svg
   xmlns:dc="http://purl.org/dc/elements/1.1/"
   xmlns:cc="http://creativecommons.org/ns#"
   xmlns:rdf="http://www.w3.org/1999/02/22-rdf-syntax-ns#"
   xmlns:svg="http://www.w3.org/2000/svg"
   xmlns="http://www.w3.org/2000/svg"
   xmlns:sodipodi="http://sodipodi.sourceforge.net/DTD/sodipodi-0.dtd"
   xmlns:inkscape="http://www.inkscape.org/namespaces/inkscape"
   version="1.1"
   id="svg2180"
   width="224.46841"
   height="202.81293"
   viewBox="0 0 224.46841 202.81293"
   sodipodi:docname="cta-icon_bee-health2.svg"
   inkscape:version="0.92.2 (unknown)">
  <metadata
     id="metadata2186">
    <rdf:RDF>
      <cc:Work
         rdf:about="">
        <dc:format>image/svg+xml</dc:format>
        <dc:type
           rdf:resource="http://purl.org/dc/dcmitype/StillImage" />
        <dc:title></dc:title>
      </cc:Work>
    </rdf:RDF>
  </metadata>
  <defs
     id="defs2184">
    <filter
       style="color-interpolation-filters:sRGB"
       inkscape:label="Drop Shadow"
       id="filter1209">
      <feFlood
         flood-opacity="0.498039"
         flood-color="rgb(0,0,0)"
         result="flood"
         id="feFlood1199" />
      <feComposite
         in="flood"
         in2="SourceGraphic"
         operator="in"
         result="composite1"
         id="feComposite1201" />
      <feGaussianBlur
         in="composite1"
         stdDeviation="5.6"
         result="blur"
         id="feGaussianBlur1203" />
      <feOffset
         dx="4"
         dy="4"
         result="offset"
         id="feOffset1205" />
      <feComposite
         in="SourceGraphic"
         in2="offset"
         operator="over"
         result="composite2"
         id="feComposite1207" />
    </filter>
  </defs>
  <sodipodi:namedview
     pagecolor="#ffffff"
     bordercolor="#666666"
     borderopacity="1"
     objecttolerance="10"
     gridtolerance="10"
     guidetolerance="10"
     inkscape:pageopacity="0"
     inkscape:pageshadow="2"
     inkscape:window-width="1952"
     inkscape:window-height="1238"
     id="namedview2182"
     showgrid="false"
     fit-margin-top="0"
     fit-margin-left="0"
     fit-margin-right="0"
     fit-margin-bottom="0"
     inkscape:zoom="2.6074563"
     inkscape:cx="92.887485"
     inkscape:cy="93.258446"
     inkscape:window-x="1098"
     inkscape:window-y="167"
     inkscape:window-maximized="0"
     inkscape:current-layer="svg2180" />
  <path
     d="m 158.9987,182.40409 c -8.1,4.677 -85.42899,4.677 -93.52899,0 -8.1,-4.676 -46.76401,-71.64501 -46.76401,-80.99801 0,-9.353003 38.66401,-76.321003 46.76401,-80.998003 8.1,-4.676 85.42899,-4.676 93.52899,0 8.1,4.677 46.764,71.645 46.764,80.998003 0,9.353 -38.665,76.32201 -46.764,80.99801 z"
     id="hexagon"
     style="fill:#ffa825;filter:url(#filter1209)"
     inkscape:connector-curvature="0" />
  <path
     style="fill:#000000;"
     d="m 95.932807,170.72431 c -1.374551,-0.90409 -3.482253,-2.89565 -4.683769,-4.42567 -1.20153,-1.53001 -3.00182,-3.72661 -4.00065,-4.88133 -0.99883,-1.15472 -2.35871,-3.00949 -3.02196,-4.12171 -1.45361,-2.43761 -3.97064,-10.01629 -4.47641,-13.4783 -0.41192,-2.81972 -0.39958,-2.81776 3.26694,0.51815 6.48664,5.90173 18.234622,10.98607 27.944932,12.0941 1.59956,0.18253 2.90829,0.50486 2.90829,0.7163 0,1.31085 -11.5516,8.14121 -13.76852,8.14121 -0.776355,0 -0.899397,0.4844 -0.899397,3.54054 0,1.94729 -0.173311,3.54053 -0.385132,3.54053 -0.21182,0 -1.509763,-0.73972 -2.884324,-1.64382 z M 118.1694,149.2717 c -3.19676,-0.38825 -11.20156,-2.36153 -14.27954,-3.52008 -4.32876,-1.62934 -8.857434,-3.94827 -12.527352,-6.4147 -4.21888,-2.83536 -11.88743,-10.38486 -11.88078,-11.69633 0.007,-1.53008 2.39025,-12.96802 2.78257,-13.35871 0.18367,-0.1829 0.78349,0.23646 1.33294,0.93192 2.49391,3.15669 8.523351,8.82071 11.778337,11.06453 6.994945,4.82195 17.536365,9.08743 25.184865,10.19081 6.11346,0.88194 6.00968,0.83787 5.6566,2.40171 -0.17131,0.75877 -1.31748,3.48494 -2.54702,6.05815 -1.61534,3.38061 -2.47797,4.65753 -3.1094,4.60278 -0.48061,-0.0417 -1.55667,-0.15871 -2.39122,-0.26008 z m 4.80501,-20.89664 c -9.49646,-1.94909 -17.61145,-5.27918 -24.037812,-9.86422 -3.304939,-2.35799 -8.73818,-7.89686 -11.03317,-11.24765 -1.84342,-2.6915 -1.54609,-3.57903 2.02219,-6.03629 2.787547,-1.919611 2.886567,-1.944971 7.441814,-1.906065 3.118128,0.02666 5.251368,0.313519 6.572038,0.883835 l 1.95537,0.8444 -0.34409,-1.136734 c -0.98711,-3.261117 -0.91,-7.969921 0.18616,-11.367446 2.08399,-6.459277 5.80824,-10.101127 11.85585,-11.593524 3.37718,-0.833404 5.86036,-0.687613 10.24396,0.601439 1.00792,0.296386 1.08294,0.09544 1.31512,-3.522242 0.37827,-5.894368 3.74597,-12.091653 7.80524,-14.363337 0.66741,-0.3735 0.51498,-0.95956 -1.06624,-4.099443 -1.32804,-2.637126 -1.80172,-4.17777 -1.69056,-5.498578 l 0.15442,-1.834939 7.83975,-2.682478 c 4.31187,-1.475363 8.49962,-2.621876 9.30612,-2.547807 1.90286,0.174759 2.69471,1.417721 2.05475,3.225338 -0.42467,1.199501 -1.22428,1.619975 -6.30297,3.314433 -3.19912,1.067358 -6.108,2.049918 -6.46419,2.183466 -0.49004,0.183739 -0.38263,0.76824 0.44151,2.402402 0.59902,1.187772 1.14386,2.223333 1.21076,2.301247 0.0669,0.07791 2.01844,-0.775608 4.33675,-1.896715 4.10806,-1.986611 4.35099,-2.038375 9.56656,-2.038375 5.88557,0 7.5997,0.61995 7.5997,2.748596 0,2.052412 -1.26913,2.544227 -7.2644,2.815099 l -5.59737,0.252896 3.36482,1.964148 c 5.91824,3.454654 10.52724,8.575731 13.00107,14.44555 1.45384,3.449612 1.6255,9.440498 0.32727,11.421829 -2.68298,4.094761 -9.10586,6.079298 -18.43225,5.695193 l -5.92779,-0.244137 1.00181,2.831645 c 0.71773,2.02867 1.01085,4.20388 1.03366,7.670754 0.0291,4.41418 -0.10154,5.10004 -1.48692,7.81044 -1.25193,2.44935 -1.95978,3.19862 -4.02926,4.26512 -2.19346,1.1304 -3.26321,1.31511 -8.47061,1.4626 -3.27806,0.0928 -5.9601,0.3267 -5.9601,0.51969 0,0.19299 0.29936,0.79985 0.66525,1.34857 1.13835,1.70715 1.8637,5.02185 1.8637,8.51677 0,1.84547 -0.17071,3.32874 -0.37934,3.29615 -0.20865,-0.0326 -2.314,-0.45632 -4.67857,-0.94163 z m 36.60424,-48.014684 c 1.20149,-1.201492 1.53942,-2.042217 1.72621,-4.294602 0.28938,-3.489621 -0.77706,-6.390429 -3.34139,-9.088813 -5.5649,-5.855824 -13.7702,-4.805058 -15.7823,2.021071 -0.86948,2.949733 0.32879,6.389546 3.18288,9.136936 3.43344,3.305071 6.01657,4.300827 10.21277,3.936877 1.93185,-0.167555 2.85102,-0.560661 4.00183,-1.711469 z M 95.408833,95.641879 C 88.917568,94.136864 85.970178,93.224548 82.646888,91.69164 71.45303,86.528317 64.66873,79.022114 60.70647,67.416598 59.65812,64.345954 59.4977,62.936283 59.4977,56.794996 c 0,-6.577545 0.0876,-7.234037 1.23208,-9.232303 2.49521,-4.356674 9.31637,-5.952749 15.84331,-3.707153 5.829868,2.005771 13.346638,6.361905 20.649085,11.966601 5.340065,4.098544 15.179745,14.643259 15.109895,16.192532 -0.0114,0.252906 -1.13767,0.983444 -2.50282,1.623417 -1.36515,0.639974 -3.20073,1.834904 -4.07908,2.655401 -0.87834,0.820496 -1.77435,1.491812 -1.99112,1.491812 -0.21677,0 -0.8019,-0.625915 -1.30029,-1.390924 -1.63077,-2.503162 -12.520482,-13.322578 -16.729402,-16.621402 -2.26367,-1.774201 -5.56345,-3.944089 -7.332848,-4.821975 -8.00737,-3.972875 -10.2839,-1.878886 -8.28551,7.621144 2.5598,12.168862 12.297768,21.34599 24.85923,23.427489 2.673602,0.443033 3.209634,0.688288 2.946092,1.347971 -0.177194,0.443522 -0.448073,2.570348 -0.601971,4.726279 -0.153888,2.155933 -0.417989,3.893475 -0.586877,3.861206 -0.168879,-0.03227 -0.762274,-0.164216 -1.318641,-0.293212 z M 121.29794,72.294398 c -2.28977,-0.804934 -2.55348,-1.091504 -4.41757,-4.800645 -2.44394,-4.862902 -3.53708,-6.480052 -6.50222,-9.619171 -2.33257,-2.469423 -6.47112,-4.858841 -8.43166,-4.868074 -0.77285,-0.0036 -8.713057,-4.712477 -10.782512,-6.394422 -0.426,-0.346241 1.239231,-1.826483 3.153249,-2.802945 3.182986,-1.623838 8.113113,-1.158776 13.040443,1.230114 6.72046,3.258244 14.0683,11.045797 17.65602,18.712596 l 1.54827,3.30855 -0.99474,2.946494 c -0.5471,1.620573 -1.18359,2.990829 -1.41443,3.045015 -0.23083,0.05419 -1.51551,-0.286695 -2.85485,-0.757512 z"
     id="bee"
     inkscape:connector-curvature="0" />
</svg>
