<svg xmlns="http://www.w3.org/2000/svg" width="224.468" height="202.813" viewBox="0 0 224.46841 202.81291"><defs><filter id="a" color-interpolation-filters="sRGB"><feFlood flood-opacity=".498" flood-color="#000" result="flood"/><feComposite in="flood" in2="SourceGraphic" operator="in" result="composite1"/><feGaussianBlur in="composite1" stdDeviation="5.6" result="blur"/><feOffset dx="4" dy="4" result="offset"/><feComposite in="SourceGraphic" in2="offset" result="composite2"/></filter></defs><path d="M158.999 182.404c-8.1 4.677-85.43 4.677-93.53 0-8.1-4.676-46.763-71.645-46.763-80.998 0-9.353 38.664-76.32 46.764-80.998 8.1-4.676 85.429-4.676 93.529 0 8.1 4.677 46.764 71.645 46.764 80.998 0 9.353-38.665 76.322-46.764 80.998z" fill="#ffa825" filter="url(#a)"/><path d="M96.987 160.693c-.176-2.317 4.683-4.71-.474-4.539-5.211.013-11.496-1.39-14.588 3.504-4.558-.106-8.7-1.91-13.297.57-4.528-1.964-4.176-10.317-6.57-14.965-6.409-20.643-12.992-41.24-18.925-62.023 4.05-3.916 8.709-1.769 8.747 3.721 5.149 15.537 9.383 31.38 14.81 46.819-2.922-17.085-7.83-33.802-10.401-50.949 1.742-7.026 4.145 3.445 4.537 6.22 3.804 15.067 6.524 30.485 10.87 45.368-1.45-18.152-3.97-36.203-5.65-54.334 5.726-4.756 3.87 7.022 4.91 10.362 1.673 15.67 3.408 31.333 5.116 47l.954-59.196h6.684l.538 22.437h14.095c-2.61-4.067-.567-8.079 1.04-12.023-.832-3.082-4.557-4.44-.395-7.049 2.438-3.7-6.045-8.022 1.171-8.93 2.885-.885 6.33-2.93 7.842-5.259-1.346-4.63-4.624-9.402-2.937-14.296 3.452-4.834 12.49-5.399 13.972 1.515 2.543 7.603 8.863-1.196 12.973-2.941 6.062-4.056 11.942-8.447 18.368-11.912 4.435 1.803 13.157 7.34 9.713 12.74-3.358 7.016-8.406 13.328-10.533 20.87-.392 3.63-4.822 7.785.508 11.054-7.223 4.212 3.737 10.946-2.046 15.97-.008 3.41 6.166.018 3.956-3.08-1.586-6.954 8.466-11.54 10.941-3.985.752 6.332.408 12.864-.4 19.177-3.404 2.99-2.45-6.87-2.903-8.987-.083-2.026-.18-13.225-2.816-8.263-1.61 18.825-.396 37.802-2.006 56.626-3.358 5.776-1.201-9.233-6.962-5.032-1.777 4.637-.255 9.981 1.849 13.81-9.043 1.572-18.39.922-27.558 1.168-8.344-.262-16.917.333-25.133-1.168zm-27.53-7.806c1.97-4.161-5.58-9.576-4.157-2.636.14 1.666 2.754 5.927 4.157 2.636zm12.343-3.586c-.42-8.599-6.681 3.805-1.106 3.524.907-.913 1.076-2.303 1.106-3.524zm17.663-7.08c-1.88-4.655-10.528-1.908-14.84-1.787-1.828 7.03 10.894 4.097 14.703 3.15zm52.512-18.141v-18.618c-4.551-1.195-6.367 3.36-1.91 5.729-4.435 3.91-2.246 10.653-2.863 15.898v15.609c1.738-.424 5.55 1.226 4.773-1.714V124.08zm-86.883 12.826c.975-3.457-4.804-8.737-4.389-2.526-.322 2.272 3.846 7.21 4.389 2.526zm16.708-2.88c-.42-8.6-6.681 3.804-1.106 3.523.907-.913 1.076-2.303 1.106-3.524zm-21.072-10.314c2.121-4.175-5.882-10.184-4.474-3.254.24 1.764 2.51 5.922 4.474 3.254zM81.8 118.75c-.42-8.599-6.681 3.805-1.106 3.524.907-.913 1.076-2.303 1.106-3.524zm-25.71-9.78c1.97-4.162-5.58-9.577-4.156-2.637.14 1.666 2.754 5.927 4.157 2.636zm25.71-5.496c-.42-8.6-6.681 3.804-1.106 3.523.907-.912 1.076-2.302 1.106-3.523zM51.725 92.987c1.515-4.33-6.258-7.552-4.248-1.59-.008 2.22 4.02 5.697 4.248 1.59zm30.075-4.79c-.42-8.6-6.681 3.804-1.106 3.523.907-.912 1.076-2.302 1.106-3.523z"/></svg>