<?xml version="1.0" encoding="UTF-8" standalone="no"?>
<!-- Created with Inkscape (http://www.inkscape.org/) -->

<svg
   xmlns:dc="http://purl.org/dc/elements/1.1/"
   xmlns:cc="http://creativecommons.org/ns#"
   xmlns:rdf="http://www.w3.org/1999/02/22-rdf-syntax-ns#"
   xmlns:svg="http://www.w3.org/2000/svg"
   xmlns="http://www.w3.org/2000/svg"
   xmlns:sodipodi="http://sodipodi.sourceforge.net/DTD/sodipodi-0.dtd"
   xmlns:inkscape="http://www.inkscape.org/namespaces/inkscape"
   version="1.1"
   id="svg2138"
   width="224.4684"
   height="202.81291"
   viewBox="0 0 224.4684 202.81291"
   sodipodi:docname="cta-icon_bee-hive.svg"
   inkscape:version="0.92.2 (unknown)">
  <metadata
     id="metadata2144">
    <rdf:RDF>
      <cc:Work
         rdf:about="">
        <dc:format>image/svg+xml</dc:format>
        <dc:type
           rdf:resource="http://purl.org/dc/dcmitype/StillImage" />
        <dc:title></dc:title>
      </cc:Work>
    </rdf:RDF>
  </metadata>
  <defs
     id="defs2142">
    <filter
       style="color-interpolation-filters:sRGB"
       inkscape:label="Drop Shadow"
       id="dropshadow">
      <feFlood
         flood-opacity="0.498039"
         flood-color="rgb(0,0,0)"
         result="flood"
         id="feFlood1199" />
      <feComposite
         in="flood"
         in2="SourceGraphic"
         operator="in"
         result="composite1"
         id="feComposite1201" />
      <feGaussianBlur
         in="composite1"
         stdDeviation="5.6"
         result="blur"
         id="feGaussianBlur1203" />
      <feOffset
         dx="4"
         dy="4"
         result="offset"
         id="feOffset1205" />
      <feComposite
         in="SourceGraphic"
         in2="offset"
         operator="over"
         result="composite2"
         id="feComposite1207" />
    </filter>
  </defs>
  <sodipodi:namedview
     pagecolor="#ffffff"
     bordercolor="#666666"
     borderopacity="1"
     objecttolerance="10"
     gridtolerance="10"
     guidetolerance="10"
     inkscape:pageopacity="0"
     inkscape:pageshadow="2"
     inkscape:window-width="1712"
     inkscape:window-height="1156"
     id="namedview2140"
     showgrid="false"
     fit-margin-top="0"
     fit-margin-left="0"
     fit-margin-right="0"
     fit-margin-bottom="0"
     inkscape:zoom="3.6875"
     inkscape:cx="91.794412"
     inkscape:cy="100.32171"
     inkscape:window-x="889"
     inkscape:window-y="290"
     inkscape:window-maximized="0"
     inkscape:current-layer="svg2138" />
  <path
     d="m 158.99869,182.40408 c -8.1,4.677 -85.42899,4.677 -93.52899,0 -8.1,-4.676 -46.764,-71.645 -46.764,-80.998 0,-9.353008 38.664,-76.321005 46.764,-80.998005 8.1,-4.676 85.42899,-4.676 93.52899,0 8.1,4.677 46.76401,71.644997 46.76401,80.998005 0,9.353 -38.66501,76.322 -46.76401,80.998 z"
     id="hexagon"
     style="fill:#ffa825;filter:url(#dropshadow)"
     inkscape:connector-curvature="0" />
  <path
     style="fill:#000000;"
     d="m 126.47222,52.452851 c 0,-1.247403 -0.66528,-2.910606 -1.49688,-3.742208 -1.36765,-1.367646 -2.4948,-1.496883 -13.05529,-1.496883 -11.09568,0 -11.60505,0.06659 -12.723514,1.663416 -1.6523,2.358989 -1.44859,5.498573 0.47291,7.288728 1.495584,1.393342 2.601954,1.526038 12.723514,1.526038 10.08758,0 11.22024,-0.13475 12.58238,-1.496883 0.8316,-0.831601 1.49688,-2.494805 1.49688,-3.742208 z"
     id="path2725"
     inkscape:connector-curvature="0" />
  <path
     style="fill:#000000;"
     d="m 137.39817,66.161523 c 0.37846,-1.927185 0.10066,-2.750098 -1.45277,-4.303539 l -1.92072,-1.920717 H 112.25183 90.478976 l -1.83708,1.837084 c -2.26979,2.269788 -2.34173,4.639469 -0.20974,6.908867 l 1.62735,1.732231 h 22.179734 c 16.57516,0 22.49703,-0.236403 23.43537,-0.935552 0.69059,-0.514553 1.4662,-2.007821 1.72356,-3.318374 z"
     id="path2723"
     inkscape:connector-curvature="0" />
  <path
     style="fill:#000000;"
     d="m 143.21122,74.211979 c -1.91606,-1.507174 -2.77508,-1.551205 -30.26316,-1.551205 -32.914401,0 -33.588448,0.113438 -33.616208,5.657378 -0.0122,2.43173 1.136763,4.38209 2.982308,5.06255 0.617464,0.22763 14.537796,0.35061 30.93409,0.27321 28.55947,-0.13482 29.856,-0.20174 30.87321,-1.59355 1.76342,-2.41282 1.33813,-6.07982 -0.91024,-7.848383 z"
     id="path2719"
     inkscape:connector-curvature="0" />
  <path
     style="fill:#000000;"
     d="m 117.64602,94.444962 0.95875,2.16595 h 14.6196 c 16.75791,0 17.94642,-0.33347 17.94642,-5.03549 0,-1.48791 -0.55739,-3.3212 -1.23866,-4.07399 -1.16757,-1.29015 -3.32268,-1.3687 -37.55026,-1.3687 -40.742762,0 -39.049009,-0.23044 -39.049009,5.31264 0,4.85504 1.090547,5.16798 17.942015,5.14935 l 14.615204,-0.0162 1.12266,-2.4147 c 2.12632,-4.57338 8.55977,-4.4033 10.63328,0.28111 z"
     id="path2717"
     inkscape:connector-curvature="0" />
  <path
     style="fill:#000000;"
     d="m 156.40988,104.09533 c 0,-1.24741 -0.66528,-2.91061 -1.49688,-3.74221 -1.41011,-1.410108 -2.4948,-1.496878 -18.71104,-1.496878 h -17.21415 v 2.993758 2.99377 h -6.2661 -6.2661 L 105.97689,101.85 105.49816,98.856242 H 88.992086 c -16.151318,0 -18.852301,0.33812 -20.325526,2.544468 -0.929071,1.39142 -0.633519,4.52017 0.592316,6.27029 l 1.165099,1.66342 h 41.496075 c 40.49815,0 41.53207,-0.036 42.99295,-1.49688 0.8316,-0.8316 1.49688,-2.49481 1.49688,-3.74221 z"
     id="path2715"
     inkscape:connector-curvature="0" />
  <path
     style="fill:#000000;"
     d="m 146.20499,113.13095 c -1.92469,-1.51393 -2.73462,-1.55121 -33.72908,-1.55121 -36.104526,0 -36.126358,0.004 -36.126358,5.61332 0,5.6494 -0.225258,5.61634 36.898618,5.41606 31.50077,-0.16994 32.84733,-0.23474 33.86698,-1.62979 1.7635,-2.41276 1.33823,-6.07979 -0.91016,-7.84838 z"
     id="path2713"
     inkscape:connector-curvature="0" />
  <path
     style="fill:#000000;"
     d="m 140.95083,126.4204 c -1.15691,-1.27838 -3.04232,-1.36871 -28.56896,-1.36871 -30.733628,0 -30.06771,-0.11766 -30.06771,5.31265 0,5.193 -0.159074,5.16554 29.93767,5.16554 22.87355,0 26.84445,-0.16364 28.27425,-1.1651 2.03926,-1.42836 2.27815,-5.89641 0.42475,-7.94438 z"
     id="path2711"
     inkscape:connector-curvature="0" />
  <path
     style="fill:#000000;"
     d="m 134.40441,143.99946 c 0.37845,-1.92719 0.10066,-2.7501 -1.45278,-4.30354 l -1.92072,-1.92072 H 112.25183 93.472746 l -1.83708,1.83709 c -2.22513,2.22511 -2.36304,5.12137 -0.34021,7.14421 1.41956,1.41955 2.49481,1.49688 20.813324,1.49688 14.28452,0 19.64352,-0.24371 20.57206,-0.93555 0.6906,-0.51455 1.4662,-2.00782 1.72357,-3.31837 z"
     id="path2709"
     inkscape:connector-curvature="0" />
  <path
      style="fill:#000000;"
      d="m 166.13963,66.048398 c 0,-2.657465 0.19958,-3.217156 0.89813,-2.518611 0.49397,0.493971 1.7738,0.89813 2.84407,0.89813 2.59753,0 3.74221,-1.289349 3.74221,-4.215153 0,-2.498522 -2.1837,-4.718801 -5.71961,-5.815404 -0.88176,-0.273461 -1.80335,-1.243844 -2.04799,-2.156407 -0.76097,-2.838473 -0.54665,-3.65651 0.84452,-3.22361 1.82342,0.567406 3.38067,-0.587604 3.05716,-2.267487 -0.48709,-2.529224 -4.39291,-1.835484 -6.39534,1.135917 -0.9426,1.398715 -1.7138,2.094019 -1.7138,1.545121 0,-3.078419 -6.21382,-5.945603 -7.21742,-3.330265 -0.60182,1.568327 1.21232,3.537631 2.86159,3.106337 1.00819,-0.263645 1.35906,0.06312 1.3506,1.25774 -0.0162,2.287988 -0.6969,3.073945 -4.19977,4.849489 -3.20031,1.622184 -4.02163,2.789391 -4.02163,5.715305 0,2.419092 1.78379,3.616067 4.85457,3.257571 2.55084,-0.297797 2.62985,-0.230776 2.62985,2.230974 0,2.594129 2.59164,6.771868 4.24921,6.84976 0.48468,0.02278 1.57928,-0.846006 2.43244,-1.930627 1.0548,-1.340959 1.55121,-3.065441 1.55121,-5.38878 z"
      id="bee1"
      inkscape:connector-curvature="0" />
  <path
     style="fill:#000000;"
     d="m 66.596887,151.94171 c 0,-2.83301 0.01175,-2.84388 2.613214,-2.42171 5.151134,0.83591 6.79543,-4.00508 2.568456,-7.56184 -1.266512,-1.0657 -2.589652,-1.93763 -2.940312,-1.93763 -1.25239,0 -2.9898,-2.38246 -2.9898,-4.09983 0,-1.32141 0.332136,-1.66071 1.362059,-1.39139 1.649266,0.4313 3.463414,-1.53801 2.861592,-3.10634 -0.994971,-2.59284 -7.169075,0.22 -7.247385,3.30181 -0.01901,0.74949 -0.40677,0.48672 -1.06379,-0.72092 -2.124511,-3.90498 -7.517033,-4.89348 -7.004485,-1.28399 0.173901,1.22464 0.822395,1.75406 2.364859,1.93064 1.894822,0.21691 2.071409,0.46035 1.628653,2.24532 -0.273128,1.10112 -0.724289,2.09211 -1.00259,2.2022 -0.278293,0.11008 -1.853186,0.96041 -3.499757,1.8896 -2.409316,1.35962 -3.04026,2.17023 -3.231943,4.15227 -0.131,1.35455 0.162838,2.94602 0.652978,3.53659 1.083092,1.30506 4.56244,1.41047 5.797263,0.17565 0.698543,-0.69855 0.89813,-0.0856 0.89813,2.75841 0,2.72418 0.414951,4.09825 1.627352,5.38878 2.098398,2.23365 3.147848,2.18386 5.054301,-0.2398 0.951568,-1.20973 1.551205,-3.07211 1.551205,-4.81782 z"
     id="bee2"
     inkscape:connector-curvature="0" />
</svg>
