<svg xmlns="http://www.w3.org/2000/svg" width="224.468" height="202.813" viewBox="0 0 224.46841 202.81293"><defs><filter id="a" color-interpolation-filters="sRGB"><feFlood flood-opacity=".498" flood-color="#000" result="flood"/><feComposite in="flood" in2="SourceGraphic" operator="in" result="composite1"/><feGaussianBlur in="composite1" stdDeviation="5.6" result="blur"/><feOffset dx="4" dy="4" result="offset"/><feComposite in="SourceGraphic" in2="offset" result="composite2"/></filter></defs><path d="M158.999 182.404c-8.1 4.677-85.43 4.677-93.53 0-8.1-4.676-46.763-71.645-46.763-80.998 0-9.353 38.664-76.32 46.764-80.998 8.1-4.676 85.429-4.676 93.529 0 8.1 4.677 46.764 71.645 46.764 80.998 0 9.353-38.665 76.322-46.764 80.998z" fill="#ffa825" filter="url(#a)"/><path d="M153.89 36.056c-1.262 0-1.634 1.897-1.874 9.595l-.3 9.598-3.003-1.135c-2.412-.91-3.53-.786-5.693.63-3.446 2.259-5.839 2.237-7.633-.071-1.358-1.748-1.494-1.748-2.853 0-1.802 2.318-5.815 2.37-7.475.1-1.62-2.214-3.243-1.207-4.03 2.5-.34 1.598-1.698 4.22-3.02 5.826l-2.403 2.917-6.436-2.354c-8.189-2.995-11.185-1.982-13.107 4.433-1.609 5.37-.713 7.097 5.144 9.915 2.398 1.154 4.374 2.334 4.392 2.622.019.289-4.676 7.369-10.431 15.733-5.755 8.365-10.474 15.94-10.485 16.833-.01.894.509 2.153 1.152 2.797.86.86.321 1.605-2.032 2.823-4.177 2.16-6.12 1.294-6.943-3.092-1.45-7.727-9.69-13.103-17.761-11.588-7.305 1.37-12.816 8.776-12.04 16.18.213 2.028-.588 4.054-2.5 6.327-7.174 8.525-2.976 21.414 7.739 23.767 6.128 1.347 12.869 5.664 14.846 9.508 1.036 2.014 3.396 4.582 5.244 5.71 6.172 3.762 13.682 1.819 17.564-4.549 2.604-4.27 2.602-8.739-.004-13.012-1.58-2.593-1.917-4.513-1.469-8.391.365-3.15.01-6.675-.95-9.436-1.476-4.24-1.442-4.495.936-6.73 2.317-2.176 2.592-2.212 4.4-.575 1.061.96 2.315 1.748 2.786 1.748.472 0 6.241-3.093 12.822-6.871 8.202-4.71 12.61-6.667 14.013-6.222 1.337.425 2.264.08 2.677-.995.85-2.214 5.597-2.092 7.37.19 1.36 1.748 1.496 1.748 2.854 0 1.803-2.319 3.845-2.319 7.928 0 3.052 1.733 3.408 1.734 6.38.047 3.126-1.775 3.146-1.77 3.146.787 0 2.35-.408 2.575-4.72 2.575-7.788 0-11.518 5.788-6.783 10.523 1.923 1.922 3.244 2.104 13.373 1.836 9.16-.242 11.24-.588 11.24-1.87 0-1.266-2.155-1.676-11.012-2.098-8.857-.422-11.013-.833-11.013-2.098 0-1.302 2.622-1.664 15.208-2.098 12.587-.434 15.209-.795 15.209-2.097 0-1.247-1.796-1.637-8.653-1.879-8.41-.296-8.653-.377-8.653-2.884 0-3.076 2.728-3.493 4.865-.744 1.332 1.714 1.517 1.717 2.798.074.759-.974 3.22-1.911 5.507-2.098 5.932-.484 5.689-3.371-.322-3.806l-4.457-.322v-43.81l4.457-.324c6.01-.435 6.254-3.322.322-3.806-2.287-.187-4.748-1.124-5.507-2.098-1.28-1.643-1.466-1.638-2.798.076-.785 1.01-2.419 1.835-3.632 1.835-2.071 0-2.226-.626-2.508-10.226-.242-8.257-.602-10.226-1.872-10.226zm-28.32 24.648h6.294v44.052H125.57V82.73zm17.633.299c2.03 0 3.815.4 3.815 21.727s-2.83 22.026-4.86 22.026c-2.032 0-3.667-.7-3.667-22.026 0-21.327 2.68-21.727 4.712-21.727zm9.638-.3h8.391v44.053h-8.391V82.73zm-90.727 47.2c3.015 0 4.676.794 7.447 3.564 4.588 4.588 4.498 5.876-.408 5.876-2.185 0-5.824.944-8.087 2.097-2.263 1.154-5.43 2.098-7.04 2.098-2.57 0-2.925-.394-2.925-3.253 0-4.844 5.876-10.382 11.013-10.382zm7.259 13.826c7.117.087 13.551 5.016 14.841 11.893.923 4.919-.135 8.698-2.384 8.514-.993-.08-1.975.68-2.184 1.69-.216 1.047.245 1.836 1.073 1.836 2.154 0 5.925 3.88 6.675 6.867.894 3.561-1.269 8.34-4.423 9.777-7.24 3.3-14.213-2.398-12.63-10.318.787-3.933-1.259-5.386-3.285-2.333-1.22 1.838-1.88 2.048-3.583 1.136-2.071-1.108-2.07-1.13.112-2.659 2.408-1.686 2.978-4.59.89-4.531-.722.02-2.492.712-3.934 1.536-9.266 5.298-19.18-4.455-14.24-14.008 2.786-5.387 9.286-6.809 15.051-3.294 1.89 1.152 3.895 2.094 4.458 2.094 1.723 0 1.144-2.36-1.19-4.845l-2.217-2.358 3.89-.731a15.641 15.641 0 0 1 3.08-.266z"/></svg>