<svg xmlns="http://www.w3.org/2000/svg" width="224.468" height="202.813" viewBox="0 0 224.46808 202.81234"><defs><filter id="a" color-interpolation-filters="sRGB"><feFlood flood-opacity=".498" flood-color="#000" result="flood"/><feComposite in="flood" in2="SourceGraphic" operator="in" result="composite1"/><feGaussianBlur in="composite1" stdDeviation="5.6" result="blur"/><feOffset dx="4" dy="4" result="offset"/><feComposite in="SourceGraphic" in2="offset" result="composite2"/></filter></defs><path d="M158.998 182.404c-8.1 4.677-85.428 4.677-93.528 0-8.1-4.676-46.764-71.645-46.764-80.998 0-9.353 38.664-76.321 46.764-80.998 8.1-4.676 85.428-4.676 93.528 0 8.1 4.677 46.764 71.645 46.764 80.998 0 9.353-38.665 76.322-46.764 80.998z" fill="#ffa825" filter="url(#a)"/><path d="M73.887 164.288c.019-.687 2.414-6.65 5.32-13.25l5.289-12h58.65l5.296 12c2.912 6.6 5.32 12.563 5.352 13.25.046.98-8.577 1.25-39.942 1.25-31.351 0-39.992-.27-39.965-1.25zm5.165-34.95c-.868-.868-1.2-8.033-1.2-25.95v-24.75l-5.75-.3-5.75-.3v-8l8.409-.5 8.409-.5 1.805-5.324c2.545-7.502 5.226-11.452 10.037-14.787 4.1-2.84 4.396-2.89 17.84-2.89 13.445 0 13.74.049 17.84 2.89 4.81 3.334 7.492 7.283 10.038 14.787l1.807 5.324 8.158.29 8.157.29v8.92h-11v24.8c0 17.956-.33 25.13-1.2 26-1.717 1.718-65.882 1.718-67.6 0zm57.8-43.8v-6h-48v12h48zm-38.837 3.1c-1.813-1.12-1.07-5.502 1.002-5.896 2.23-.425 3.486 3.574 1.688 5.372-.813.812-1.886 1.022-2.69.525zm26 0c-1.813-1.12-1.07-5.502 1.002-5.896 2.23-.425 3.486 3.574 1.688 5.372-.813.812-1.886 1.022-2.69.525zm33.296 27.834c-.362-.587-.393-1.333-.068-1.658.326-.326.082-1.207-.542-1.958-.624-.751-.808-1.692-.41-2.09.399-.4 1.31.075 2.025 1.053 1.158 1.584 1.367 1.604 1.91.185.337-.876 1.087-1.3 1.668-.94.73.452.707 1.073-.08 2.02-.623.75-.873 1.79-.554 2.306.32.516-.128 1.21-.995 1.543-2.08.799-2.185.782-2.954-.461zm-102.015-5.22c-.3-.78-.425-1.82-.281-2.315.144-.494-.304-1.92-.997-3.17-.692-1.248-.986-2.71-.653-3.25 1.226-1.983 3.622-.89 4.946 2.26l1.362 3.24.34-2.99c.25-2.21.926-3.072 2.59-3.308 2.568-.365 3.063 1.862.896 4.03-.744.743-1.306 2.463-1.25 3.82.087 2.082-.408 2.519-3.154 2.783-2.115.204-3.447-.182-3.8-1.1zm113.086-13.666c-.363-.586-.395-1.898-.072-2.916.338-1.063-.06-2.387-.935-3.113-1.76-1.461-1.988-3.613-.48-4.546 1.65-1.02 3.953 1.518 3.996 4.4.038 2.557.077 2.54 1.452-.623.934-2.15 2.106-3.25 3.46-3.25 2.295 0 2.698 1.948.8 3.856-.688.69-1.25 2.468-1.25 3.95 0 2.292-.472 2.74-3.157 3-1.736.17-3.452-.172-3.814-.758z"/></svg>