<?xml version="1.0" encoding="UTF-8" standalone="no"?>
<!-- Created with Inkscape (http://www.inkscape.org/) -->

<svg
   xmlns:dc="http://purl.org/dc/elements/1.1/"
   xmlns:cc="http://creativecommons.org/ns#"
   xmlns:rdf="http://www.w3.org/1999/02/22-rdf-syntax-ns#"
   xmlns:svg="http://www.w3.org/2000/svg"
   xmlns="http://www.w3.org/2000/svg"
   xmlns:sodipodi="http://sodipodi.sourceforge.net/DTD/sodipodi-0.dtd"
   xmlns:inkscape="http://www.inkscape.org/namespaces/inkscape"
   version="1.1"
   id="svg8224"
   width="224.46841"
   height="202.81291"
   viewBox="0 0 224.46841 202.81291"
   sodipodi:docname="cta-icon_bee-smoke.svg"
   inkscape:version="0.92.2 (unknown)">
  <metadata
     id="metadata8230">
    <rdf:RDF>
      <cc:Work
         rdf:about="">
        <dc:format>image/svg+xml</dc:format>
        <dc:type
           rdf:resource="http://purl.org/dc/dcmitype/StillImage" />
        <dc:title></dc:title>
      </cc:Work>
    </rdf:RDF>
  </metadata>
  <defs
     id="defs8228">
    <filter
       style="color-interpolation-filters:sRGB"
       inkscape:label="Drop Shadow"
       id="filter1209">
      <feFlood
         flood-opacity="0.498039"
         flood-color="rgb(0,0,0)"
         result="flood"
         id="feFlood1199" />
      <feComposite
         in="flood"
         in2="SourceGraphic"
         operator="in"
         result="composite1"
         id="feComposite1201" />
      <feGaussianBlur
         in="composite1"
         stdDeviation="5.6"
         result="blur"
         id="feGaussianBlur1203" />
      <feOffset
         dx="4"
         dy="4"
         result="offset"
         id="feOffset1205" />
      <feComposite
         in="SourceGraphic"
         in2="offset"
         operator="over"
         result="composite2"
         id="feComposite1207" />
    </filter>
  </defs>
  <sodipodi:namedview
     pagecolor="#ffffff"
     bordercolor="#666666"
     borderopacity="1"
     objecttolerance="10"
     gridtolerance="10"
     guidetolerance="10"
     inkscape:pageopacity="0"
     inkscape:pageshadow="2"
     inkscape:window-width="1628"
     inkscape:window-height="1054"
     id="namedview8226"
     showgrid="false"
     fit-margin-top="0"
     fit-margin-left="0"
     fit-margin-right="0"
     fit-margin-bottom="0"
     inkscape:zoom="3.6875"
     inkscape:cx="98.785575"
     inkscape:cy="99.50815"
     inkscape:window-x="1284"
     inkscape:window-y="311"
     inkscape:window-maximized="0"
     inkscape:current-layer="svg8224" />
  <path
     d="m 158.99869,182.40408 c -8.1,4.677 -85.428988,4.677 -93.528988,0 -8.100001,-4.676 -46.764002,-71.645 -46.764002,-80.998 0,-9.353005 38.664001,-76.321005 46.764002,-80.998005 8.1,-4.676 85.428988,-4.676 93.528988,0 8.1,4.677 46.76401,71.645 46.76401,80.998005 0,9.353 -38.66501,76.322 -46.76401,80.998 z"
     id="hexagon"
     style="fill:#ffa825;filter:url(#filter1209)"
     inkscape:connector-curvature="0" />
  <path
     style="fill:#000000;"
     d="m 96.986827,160.69313 c -0.175485,-2.31679 4.682953,-4.71019 -0.473861,-4.53868 -5.21145,0.0126 -11.496085,-1.38989 -14.587795,3.50334 -4.558311,-0.10532 -8.700112,-1.90885 -13.296958,0.56984 C 64.100362,158.26402 64.451714,149.9106 62.0586,145.26259 55.64916,124.62035 49.065947,104.02326 43.132514,83.239595 c 4.050394,-3.915795 8.709099,-1.768405 8.747334,3.72155 5.148709,15.536995 9.382849,31.380095 14.81016,46.818555 -2.922227,-17.08502 -7.829095,-33.80153 -10.401098,-50.948374 1.741978,-7.026431 4.145323,3.444986 4.536836,6.219034 3.804566,15.06717 6.523777,30.48517 10.870692,45.36884 -1.450909,-18.15193 -3.970725,-36.20275 -5.649731,-54.334038 5.725459,-4.756305 3.870166,7.021786 4.910064,10.362192 1.672571,15.669866 3.407351,31.332986 5.114895,46.999056 0.318253,-19.73167 0.636505,-39.463336 0.954758,-59.195003 2.227769,0 4.455538,0 6.683307,0 0.179325,7.478938 0.358651,14.957876 0.537978,22.436813 4.698301,0 9.396602,0 14.094903,0 -2.608779,-4.067106 -0.566305,-8.07889 1.041221,-12.022946 -0.832357,-3.082696 -4.558229,-4.440524 -0.396239,-7.049269 2.438286,-3.699683 -6.044359,-8.021561 1.171856,-8.930911 2.8849,-0.883982 6.32959,-2.9293 7.84191,-5.25784 -1.3462,-4.629443 -4.62443,-9.402429 -2.93765,-14.296165 3.4526,-4.833967 12.48936,-5.398761 13.97207,1.514744 2.54355,7.602698 8.86292,-1.195508 12.97364,-2.94095 6.0611,-4.056288 11.94187,-8.446967 18.36805,-11.911687 4.43431,1.803304 13.15604,7.339959 9.7123,12.740721 -3.35764,7.014674 -8.40593,13.327099 -10.53288,20.86838 -0.39165,3.630256 -4.82144,7.785575 0.50853,11.055037 -7.2235,4.211833 3.73701,10.94579 -2.04631,15.969646 -0.008,3.4091 6.16613,0.0183 3.95583,-3.080412 -1.58601,-6.953412 8.46616,-11.539792 10.94141,-3.984603 0.7512,6.331637 0.40767,12.863975 -0.40034,19.176625 -3.40397,2.99034 -2.44928,-6.86865 -2.90301,-8.98609 -0.083,-2.02621 -0.18016,-13.225817 -2.81583,-8.263153 -1.61031,18.824383 -0.39609,37.801753 -2.00641,56.626133 -3.35754,5.77504 -1.20097,-9.23359 -6.96144,-5.03237 -1.77774,4.63687 -0.25573,9.98112 1.84824,13.81002 -9.04218,1.57155 -18.38949,0.92185 -27.55734,1.16823 -8.34391,-0.26271 -16.91682,0.33217 -25.133393,-1.16823 z m -27.529534,-7.80595 c 1.969004,-4.16164 -5.580906,-9.57641 -4.157076,-2.63626 0.140116,1.66621 2.75396,5.92674 4.157076,2.63626 z m 12.342922,-3.58586 c -0.420576,-8.59898 -6.681483,3.80452 -1.106484,3.52349 0.907126,-0.91258 1.07591,-2.3025 1.106484,-3.52349 z m 17.663023,-7.08112 c -1.879321,-4.6547 -10.528594,-1.90713 -14.839774,-1.78667 -1.82845,7.0314 10.893761,4.09729 14.702528,3.1498 z m 52.511692,-18.14041 c 0,-6.20592 0,-12.41185 0,-18.61778 -4.55142,-1.19532 -6.3665,3.36038 -1.90952,5.72855 -4.43515,3.91044 -2.24639,10.65366 -2.86362,15.89857 -10e-4,5.20281 -2.7e-4,10.40563 -6.5e-4,15.60845 1.73922,-0.42316 5.55117,1.22641 4.77379,-1.71335 0,-5.63481 0,-11.26962 0,-16.90444 z m -86.882981,12.82648 c 0.975012,-3.45738 -4.804168,-8.73705 -4.388897,-2.52657 -0.322282,2.27219 3.846148,7.20952 4.388897,2.52657 z m 16.708266,-2.88108 c -0.420581,-8.59899 -6.681483,3.80453 -1.106484,3.5235 0.907127,-0.91259 1.075909,-2.30251 1.106484,-3.5235 z m -21.072458,-10.3131 c 2.121405,-4.17539 -5.881581,-10.18448 -4.4734,-3.2542 0.238863,1.76427 2.509626,5.92203 4.4734,3.2542 z m 21.072458,-4.96303 c -0.420581,-8.59898 -6.681483,3.80454 -1.106484,3.5235 0.907127,-0.91259 1.075909,-2.30251 1.106484,-3.5235 z M 56.09068,108.96831 c 1.969005,-4.16164 -5.580909,-9.576411 -4.157075,-2.63626 0.140109,1.66622 2.753964,5.92676 4.157075,2.63626 z m 25.709535,-5.49538 c -0.420581,-8.598985 -6.681483,3.80454 -1.106484,3.5235 0.907127,-0.91259 1.075909,-2.30251 1.106484,-3.5235 z M 51.725336,92.98739 c 1.514802,-4.330528 -6.257849,-7.5519 -4.248745,-1.590342 -0.0079,2.220096 4.020352,5.697449 4.248745,1.590342 z m 30.074879,-4.790586 c -0.42058,-8.598988 -6.681483,3.804533 -1.106484,3.523494 0.907127,-0.912582 1.075909,-2.302502 1.106484,-3.523494 z"
     id="smoker"
     inkscape:connector-curvature="0" />
</svg>
