<?xml version="1.0" encoding="UTF-8" standalone="no"?>
<!-- Created with Inkscape (http://www.inkscape.org/) -->

<svg
   xmlns:dc="http://purl.org/dc/elements/1.1/"
   xmlns:cc="http://creativecommons.org/ns#"
   xmlns:rdf="http://www.w3.org/1999/02/22-rdf-syntax-ns#"
   xmlns:svg="http://www.w3.org/2000/svg"
   xmlns="http://www.w3.org/2000/svg"
   xmlns:sodipodi="http://sodipodi.sourceforge.net/DTD/sodipodi-0.dtd"
   xmlns:inkscape="http://www.inkscape.org/namespaces/inkscape"
   version="1.1"
   id="svg1046"
   width="224.46841"
   height="202.81293"
   viewBox="0 0 224.46841 202.81293"
   sodipodi:docname="cta-icon_bee-smoke2.svg"
   inkscape:version="0.92.2 (unknown)">
  <metadata
     id="metadata1052">
    <rdf:RDF>
      <cc:Work
         rdf:about="">
        <dc:format>image/svg+xml</dc:format>
        <dc:type
           rdf:resource="http://purl.org/dc/dcmitype/StillImage" />
        <dc:title />
      </cc:Work>
    </rdf:RDF>
  </metadata>
  <defs
     id="defs1050">
    <filter
       style="color-interpolation-filters:sRGB"
       inkscape:label="Drop Shadow"
       id="filter1209">
      <feFlood
         flood-opacity="0.498039"
         flood-color="rgb(0,0,0)"
         result="flood"
         id="feFlood1199" />
      <feComposite
         in="flood"
         in2="SourceGraphic"
         operator="in"
         result="composite1"
         id="feComposite1201" />
      <feGaussianBlur
         in="composite1"
         stdDeviation="5.6"
         result="blur"
         id="feGaussianBlur1203" />
      <feOffset
         dx="4"
         dy="4"
         result="offset"
         id="feOffset1205" />
      <feComposite
         in="SourceGraphic"
         in2="offset"
         operator="over"
         result="composite2"
         id="feComposite1207" />
    </filter>
  </defs>
  <sodipodi:namedview
     pagecolor="#ffffff"
     bordercolor="#666666"
     borderopacity="1"
     objecttolerance="10"
     gridtolerance="10"
     guidetolerance="10"
     inkscape:pageopacity="0"
     inkscape:pageshadow="2"
     inkscape:window-width="2914"
     inkscape:window-height="1698"
     id="namedview1048"
     showgrid="false"
     fit-margin-top="0"
     fit-margin-left="0"
     fit-margin-right="0"
     fit-margin-bottom="0"
     inkscape:zoom="6.6954173"
     inkscape:cx="70.699016"
     inkscape:cy="103.20185"
     inkscape:window-x="616"
     inkscape:window-y="45"
     inkscape:window-maximized="0"
     inkscape:current-layer="svg1046" />
  <path
     d="m 158.9987,182.40409 c -8.1,4.677 -85.428997,4.677 -93.528997,0 -8.1,-4.676 -46.764003,-71.64501 -46.764003,-80.99801 0,-9.353003 38.664003,-76.321003 46.764003,-80.998003 8.1,-4.676 85.428997,-4.676 93.528997,0 8.1,4.677 46.764,71.645 46.764,80.998003 0,9.353 -38.665,76.32201 -46.764,80.99801 z"
     id="hexagon"
     style="fill:#ffa825;filter:url(#filter1209)"
     inkscape:connector-curvature="0" />
  <path
     style="fill:#000000"
     d="m 192.60075,109.06174 c -0.51975,-1.14997 -2.40224,-0.70701 -9.51585,2.24386 l -8.86891,3.68024 -0.20269,-3.20406 c -0.16381,-2.5735 -0.73816,-3.54104 -2.91963,-4.92784 -3.47706,-2.21042 -4.44246,-4.40008 -3.07834,-6.985049 1.03335,-1.958144 0.97729,-2.082164 -1.17528,-2.600374 -2.85394,-0.68705 -4.55536,-4.32249 -3.17018,-6.770437 1.35096,-2.387444 -0.23568,-3.451779 -3.93701,-2.642572 -1.59634,0.34901 -4.54545,0.19092 -6.55266,-0.352067 l -3.64793,-0.98826 -0.50605,-6.834754 c -0.64292,-8.695437 -2.80057,-11.008304 -9.4377,-10.11767 -5.55676,0.745656 -6.76056,2.273211 -6.91651,8.770969 -0.0639,2.660078 -0.32526,4.946792 -0.58052,5.082259 -0.25531,0.135469 -8.64009,-1.226155 -18.63283,-3.025795 -9.99273,-1.799636 -18.838005,-2.979818 -19.657194,-2.621254 -0.81918,0.358555 -1.75276,1.349813 -2.073943,2.200776 -0.429449,1.137782 -1.330849,0.954326 -3.409344,-0.689181 -3.688332,-2.916437 -3.700283,-5.043376 -0.04241,-7.599577 6.444393,-4.503481 7.949196,-14.226313 3.245233,-20.957593 -4.25747,-6.09235 -13.276198,-8.063674 -19.702082,-4.307263 -1.761425,1.029686 -3.937268,1.133717 -6.796556,0.326918 -10.722739,-3.0256 -20.739044,6.107779 -18.470505,16.841319 1.297501,6.138973 0.138985,14.059554 -2.549215,17.444 -1.408575,1.7734 -2.776983,4.981667 -3.042732,7.130295 -0.887286,7.173887 3.976863,13.21707 11.378164,14.13248 4.964034,0.61396 9.034973,-1.22865 11.855905,-5.362983 1.71151,-2.50836 3.322668,-3.60563 7.04127,-4.794299 3.02076,-0.965605 6.087002,-2.73976 8.206768,-4.752312 3.256543,-3.091808 3.50274,-3.165325 6.517855,-1.918486 2.937458,1.214742 3.083519,1.450334 2.336843,3.772699 -0.437957,1.36231 -0.638919,2.829175 -0.444891,3.25847 0.194028,0.429298 5.388024,4.413498 11.54186,8.854191 7.668704,5.53384 11.268254,8.74451 11.440294,10.20621 0.164,1.3934 0.86026,2.09666 2.00997,2.0298 2.36753,-0.13767 4.21082,4.23921 2.86207,6.79504 -1.03334,1.95815 -0.9773,2.08216 1.17529,2.60037 2.85572,0.68749 3.69684,2.54853 3.26516,7.22433 -0.32259,3.49435 -0.17664,3.81988 2.58439,5.83246 2.9056,2.11794 2.90928,2.13815 0.57911,3.19131 -2.14207,0.96813 -2.51472,0.68835 -4.29041,-3.24045 -3.20743,-7.09659 -10.01806,-8.11246 -12.38302,-1.84666 -0.95988,2.54311 -0.58087,3.8221 3.83513,12.9421 3.99334,8.24712 5.16545,10.0006 6.33379,9.47255 1.15298,-0.52112 0.63925,-2.6549 -2.62424,-10.8996 -3.26349,-8.24471 -3.77725,-10.37849 -2.62424,-10.89961 1.18648,-0.53626 2.596,1.70422 8.17526,12.99479 5.57926,11.29057 6.98878,13.53104 8.17525,12.99479 1.1361,-0.51347 0.75216,-2.31093 -1.85202,-8.65884 -3.19398,-7.78576 -3.22025,-8.04043 -0.93545,-9.07309 2.8028,-1.26678 4.30644,1.04795 2.68146,4.12726 -1.01316,1.91988 -0.93992,2.09018 1.08525,2.58037 1.19965,0.29038 3.06733,2.14661 4.17944,4.15388 2.88469,5.20661 5.41516,3.79551 3.33596,-1.86069 l -1.54284,-4.19452 19.9612,-9.02181 19.96115,-9.0218 2.13087,3.92875 c 2.87175,5.29799 5.60292,4.331 3.60089,-1.27455 -0.77185,-2.16106 -0.93107,-4.78945 -0.35635,-5.88178 0.97022,-1.84402 0.88891,-2.01069 -1.22158,-2.51876 -1.24311,-0.2993 -2.66873,-1.448 -3.16851,-2.55379 -0.85301,-1.88733 -0.34566,-2.28615 8.28611,-6.49669 7.4248,-3.62177 9.07088,-4.76038 8.54768,-5.91802 z m -34.12419,-15.654433 1.29594,2.86733 1.29595,2.867344 -20.07131,9.071579 -20.07129,9.07157 -1.29595,-2.86733 -1.29594,-2.86733 20.0713,-9.07158 z m 6.98957,16.190053 c 0.83653,1.85087 1.20637,3.64166 -18.22773,12.42526 -19.43412,8.78359 -21.23673,6.49303 -22.07325,4.64216 -0.83654,-1.85086 -0.87266,-3.6286 18.56145,-12.41219 19.43411,-8.78359 20.903,-6.5061 21.73953,-4.65523 z m 4.2419,8.66013 1.72793,3.82311 1.72791,3.8231 -20.07129,9.07158 -20.0713,9.07157 -1.72793,-3.8231 -1.72791,-3.8231 20.0713,-9.07158 z M 89.331854,55.021959 c 1.241731,2.747389 1.202327,4.588016 -0.18125,8.25369 -2.291035,6.069915 -3.501204,6.518821 -5.521743,2.048282 -0.900119,-1.991557 -3.259128,-4.918982 -5.242515,-6.505973 -1.983388,-1.58699 -4.148014,-4.084312 -4.810545,-5.550191 -1.059093,-2.343297 -0.845431,-2.828151 1.759576,-4.005529 4.413945,-1.994961 11.880614,1.078271 13.996477,5.759721 z m -9.609429,12.308098 c 2.851382,6.521755 1.010044,14.41495 -4.72566,18.423183 -4.10182,2.866439 -7.981261,3.458338 -8.740293,1.33357 -0.334971,-0.937578 -1.433606,-1.519575 -2.43947,-1.293897 -1.043237,0.234062 -1.571732,0.979153 -1.230504,1.734145 0.886967,1.962454 -1.095124,6.996409 -3.508529,8.909979 -2.877224,2.281344 -8.122937,2.279054 -10.731573,-0.003 -5.98811,-5.239064 -3.667955,-13.93984 4.20134,-15.758281 3.908126,-0.903081 4.38866,-3.36563 0.772914,-3.955244 -2.177704,-0.355126 -2.640817,-0.869527 -2.511685,-2.796698 0.157037,-2.34356 0.177594,-2.351637 2.469434,-0.992457 2.528432,1.499493 5.409489,0.822651 4.495423,-1.056121 -0.315575,-0.648693 -1.674744,-1.976735 -3.019986,-2.951377 -8.643329,-6.262265 -3.839694,-19.312245 6.900212,-18.745075 6.056431,0.319841 10.029158,5.65685 9.20047,12.358329 -0.271481,2.195442 -0.303753,4.411347 -0.0719,4.92432 0.709635,1.570103 2.62192,0.07032 3.92467,-3.079959 l 1.23573,-2.990932 2.26864,3.243752 c 0.60125,0.860371 1.103443,1.764359 1.510771,2.696043 z"
     id="smoker2"
     inkscape:connector-curvature="0"
     sodipodi:nodetypes="ccccssccccccsccsccsssscccsccscccsscsccscssssscssscsccscccccscssccccccccccccssssscccccccccssssssscsccssssccsccscscccc" />
</svg>
