<svg xmlns="http://www.w3.org/2000/svg" width="224.468" height="202.813" viewBox="0 0 224.46841 202.81291"><defs><filter id="a" color-interpolation-filters="sRGB"><feFlood flood-opacity=".498" flood-color="#000" result="flood"/><feComposite in="flood" in2="SourceGraphic" operator="in" result="composite1"/><feGaussianBlur in="composite1" stdDeviation="5.6" result="blur"/><feOffset dx="4" dy="4" result="offset"/><feComposite in="SourceGraphic" in2="offset" result="composite2"/></filter></defs><path d="M158.999 182.404c-8.1 4.677-85.43 4.677-93.53 0-8.1-4.676-46.763-71.645-46.763-80.998 0-9.353 38.664-76.32 46.764-80.998 8.1-4.676 85.429-4.676 93.529 0 8.1 4.677 46.764 71.645 46.764 80.998 0 9.353-38.665 76.322-46.764 80.998z" fill="#ffa825" filter="url(#a)"/><path d="M107.918 34.424c-.316.009-.637.04-.962.092-1.997.318-4.645 2.323-4.645 3.516 0 .42-.948.652-2.538.617-3.38-.073-5.842 2.147-6.383 5.76-.36 2.392-.453 2.491-2.37 2.491-1.507 0-2.475.477-3.945 1.947l-1.947 1.948v6.099c0 8.404 1.25 10.626 5.976 10.626 1.563 0 2.044.237 2.047 1.003.013 4.346 2.883 7.582 6.726 7.586l1.86.004v12.6H91.697c-11.154 0-12.768.36-15.33 3.404-1.942 2.307-2.164 6.822-.462 9.403 1.347 2.044 3.949 3.796 5.644 3.801 1.114.003 1.29.304 1.29 2.22 0 2.158-.061 2.222-2.333 2.527-3.235.434-6.475 2.75-8.377 5.984l-1.607 2.733-.162 21.193c-.162 21.1-.157 21.204 1.145 23.729.813 1.576 2.064 2.93 3.305 3.58 1.86.973 4.112 1.044 33.23 1.044 35.512 0 34.054.185 36.535-4.624 1.302-2.525 1.307-2.628 1.145-23.729l-.162-21.193-1.607-2.733c-1.902-3.235-5.14-5.55-8.375-5.984-2.272-.305-2.332-.37-2.332-2.528 0-1.648.234-2.215.915-2.215 1.845 0 4.827-1.892 6.018-3.819 1.67-2.7 1.33-7.54-.68-9.72-2.644-2.867-3.939-3.073-19.41-3.073h-14.339V80.122h2.35c1.92 0 2.714-.365 4.353-2.005 1.441-1.44 2.512-2.006 3.809-2.008 3.786-.004 6.657-3.267 6.67-7.586.002-.78.49-1.003 2.21-1.003 2.17 0 5.24-1.985 5.24-3.388 0-.373 6.574-.635 18.557-.742 20.808-.186 20.292-.08 21.608-4.474.52-1.735.461-2.48-.334-4.157-1.754-3.695-2.636-3.85-21.961-3.85h-17.184l-2.004-2.004c-1.525-1.524-2.482-2.005-4.001-2.005-1.918 0-2.013-.1-2.372-2.492-.534-3.562-3.008-5.833-6.28-5.762-2.106.045-2.565-.169-3.375-1.58-.998-1.738-2.908-2.706-5.115-2.642zm.827 3.76c.413 0 .826.281 1.391.846.779.779.901 3.24.901 18.216 0 12.703-.184 17.497-.688 18.002-.378.378-1.1.687-1.604.687-2.185 0-2.29-.87-2.29-18.689 0-14.977.121-17.437.9-18.216.565-.565.977-.847 1.39-.847zM98.72 43h3.438l.152 13.676c.108 9.607-.04 13.91-.5 14.463-.359.433-.942.784-1.298.779-2.012-.027-2.101-.712-1.945-14.925zm16.612 0h3.436l.154 13.993c.119 10.812-.012 14.097-.573 14.454-.4.253-1.017.466-1.372.47-1.755.025-1.951-1.645-1.798-15.24zm10.561 7.841c1.34.104 1.753 1.792 1.753 6.148 0 3.102-.258 5.23-.687 5.658-.748.75-2.331.914-2.94.306-.21-.21-.382-2.9-.382-5.977 0-5.134.097-5.624 1.174-5.965.414-.132.773-.193 1.082-.17zm-34.277.006c.31-.022.669.038 1.082.169 1.12.355 1.183.733 1.03 6.205-.162 5.813-.166 5.826-1.664 6-1.95.226-2.221-.563-2.221-6.451 0-4.18.429-5.828 1.773-5.923zm17.128 41.985c25.551 0 26.858.051 28.007 1.092 1.65 1.492 1.591 4.362-.12 5.97-1.322 1.241-1.401 1.245-27.966 1.245H82.024l-1.246-1.327c-1.605-1.709-1.624-4.454-.04-5.888 1.15-1.04 2.455-1.092 28.007-1.092zm-6.3 12.283v3.67c0 3.993.8 5.324 2.812 4.685.973-.309 1.173-.947 1.316-4.2l.167-3.835h22.912l.173 2.988c.14 2.416.456 3.212 1.652 4.153.814.64 2.104 1.164 2.864 1.164 3.286 0 7.628 3.939 7.628 6.918v1.674l-16.756-.009c-9.215-.005-17.06-.204-17.434-.442-.374-.238-.95-1.142-1.28-2.01-.33-.868-.995-1.728-1.476-1.913-1.124-.432-2.579.77-2.579 2.132 0 .58-.498 1.323-1.107 1.65-1.275.682-25.612.835-25.981.163-.502-.914.802-4.059 2.31-5.569 1.748-1.75 3.552-2.594 5.55-2.594.725 0 1.984-.523 2.798-1.164 1.196-.94 1.513-1.737 1.653-4.153l.172-2.988 7.302-.16zm12.836 29.162c.516.009 1.092.033 1.74.066l3.413.176 1.977 3.007c1.923 2.923 2.054 3.008 4.679 3.008 1.485 0 3.113.157 3.616.35.502.193 1.856 2.038 3.01 4.1l2.096 3.749-1.562 2.986c-2.61 4.984-3.246 5.425-7.82 5.425h-3.984l-1.782-2.435c-.98-1.339-1.911-2.756-2.07-3.15-.18-.448-1.44-.715-3.376-.715-3.617 0-4.333-.55-6.77-5.21l-1.676-3.202 2.131-3.808c2.083-3.724 2.765-4.412 6.378-4.347z"/><path d="M130.414 151.31l1.25-2.117-1.159-2.035c-.984-1.728-1.504-2.06-3.454-2.209-2.147-.163-2.37-.033-3.421 2.005-1.124 2.178-1.124 2.181.076 4.327 1.051 1.882 1.464 2.148 3.329 2.148 1.848 0 2.294-.28 3.379-2.118zM119.78 144.468l1.221-2.137-1.229-2.186c-1.13-2.011-1.406-2.173-3.434-2.017-1.847.143-2.393.5-3.364 2.205l-1.158 2.034 1.25 2.119c1.083 1.836 1.532 2.118 3.371 2.118 1.85 0 2.279-.274 3.343-2.136z"/></svg>