<svg xmlns="http://www.w3.org/2000/svg" width="224.468" height="202.813" viewBox="0 0 224.46825 202.81249"><defs><filter id="a" color-interpolation-filters="sRGB"><feFlood flood-opacity=".498" flood-color="#000" result="flood"/><feComposite in="flood" in2="SourceGraphic" operator="in" result="composite1"/><feGaussianBlur in="composite1" stdDeviation="5.6" result="blur"/><feOffset dx="4" dy="4" result="offset"/><feComposite in="SourceGraphic" in2="offset" result="composite2"/></filter></defs><path d="M158.999 182.404c-8.1 4.677-85.43 4.677-93.53 0-8.1-4.676-46.763-71.645-46.763-80.998 0-9.353 38.664-76.321 46.764-80.998 8.1-4.676 85.429-4.676 93.529 0 8.1 4.677 46.764 71.645 46.764 80.998 0 9.353-38.665 76.322-46.764 80.998z" fill="#ffa825" filter="url(#a)"/><path d="M115.418 35.585c-6.25.136-12.606-.319-18.747 1.077-3.264 1.06-6.066 3.932-6.635 7.363-.306 3.01 2.137 6.121 5.26 6.094 6.573.687 13.196.36 19.792.457 7.238-.008 14.5-.054 21.704-.753 2.316-.54 3.118-3.095 3.128-5.205.172-3.255-1.776-6.589-4.943-7.636-3.73-1.379-7.79-1.133-11.699-1.34-2.62-.052-5.24-.054-7.86-.057zm33.33 17.92l-67.707.582c-2.78 3.305-6.92 6.32-7.028 11.036.107 4.07 4.26 6.474 8 6.07 13.46.71 26.945.222 40.417.39 9.54-.063 19.128.257 28.626-.795 4.706.028 5.798-5.248 4.492-8.877-1.03-3.586-4.44-5.732-6.802-8.406zm-35.04 22.297l-40.329.285c-3.553 2.86-6.923 6.99-6.173 11.851.366 3.6 3.356 7.22 7.238 6.84 23.214 1.108 46.462.622 69.692.73 4.612-.133 9.297-.035 13.833-.93 3.948-1.177 5.546-5.512 4.94-9.283-.243-4.33-3.47-8.79-8.09-8.922-7.3-.794-14.668-.497-22-.638-6.37-.013-12.74.025-19.11.067zm2.122 22.783c-14.983.167-30.008-.295-44.955.914-5.115 1.388-6.904 7.876-5.48 12.49 1.367 4.148 5.83 6.017 9.91 5.748 22.541 1.345 45.142 1.025 67.708.685 5.64-.212 11.344-.266 16.912-1.184 7.256-2.557 7.642-14.522.46-17.44-4.59-1.4-9.5-.842-14.242-1.112-10.104-.145-20.209-.08-30.313-.1zm-.586 23c-14.195.184-28.445-.45-42.598.712-5.195 1.76-5.822 8.77-3.52 13.05 2.931 5.442 9.704 6.01 15.21 6.172 3.67.09 7.368-.064 11.006.531-1.689 3.23-6.887.625-9.947 1.581-3.596-.092-8.46.04-9.99 3.963-1.835 5.547 3.212 11.764 8.9 11.83 6.085.375 12.195.01 18.29.161 2.315.01 5.382.752 4.354-2.615.08-6.224-.52-12.594.817-18.703 2.29-4.147 7.922-3.96 11.878-2.764 4.714 1.49 4.36 7.228 4.258 11.202.057 4.293-.012 8.587.016 12.88 8.683-.297 17.575.846 26.083-1.314 4.532-1.767 7.585-8.087 4.21-12.219-3.01-3.102-7.767-1.8-11.63-2.276-1.824-.47-7.384.593-6.586-1.734 3.258-.965 6.83-.136 10.215-.527 5.386.004 11.988-.65 14.98-5.823 2.39-3.925 2.19-9.74-1.6-12.735-3.043-2.835-8.048-.725-11.919-1.372z" overflow="visible"/></svg>