<svg xmlns="http://www.w3.org/2000/svg" width="224.468" height="202.813" viewBox="0 0 224.46841 202.81293"><defs><filter id="a" color-interpolation-filters="sRGB"><feFlood flood-opacity=".498" flood-color="#000" result="flood"/><feComposite in="flood" in2="SourceGraphic" operator="in" result="composite1"/><feGaussianBlur in="composite1" stdDeviation="5.6" result="blur"/><feOffset dx="4" dy="4" result="offset"/><feComposite in="SourceGraphic" in2="offset" result="composite2"/></filter></defs><path d="M158.999 182.404c-8.1 4.677-85.43 4.677-93.53 0-8.1-4.676-46.763-71.645-46.763-80.998 0-9.353 38.664-76.32 46.764-80.998 8.1-4.676 85.429-4.676 93.529 0 8.1 4.677 46.764 71.645 46.764 80.998 0 9.353-38.665 76.322-46.764 80.998z" fill="#ffa825" filter="url(#a)"/><path d="M95.933 170.724c-1.375-.904-3.482-2.895-4.684-4.425a163.292 163.292 0 0 0-4-4.882c-1-1.154-2.36-3.01-3.023-4.121-1.453-2.438-3.97-10.017-4.476-13.479-.412-2.82-.4-2.817 3.267.518 6.487 5.902 18.235 10.987 27.945 12.095 1.6.182 2.908.504 2.908.716 0 1.31-11.551 8.141-13.768 8.141-.777 0-.9.484-.9 3.54 0 1.948-.173 3.541-.385 3.541-.212 0-1.51-.74-2.884-1.644zm22.236-21.452c-3.196-.389-11.201-2.362-14.28-3.52-4.328-1.63-8.857-3.949-12.526-6.415-4.22-2.835-11.888-10.385-11.881-11.696.007-1.53 2.39-12.968 2.782-13.36.184-.182.784.237 1.333.933 2.494 3.156 8.524 8.82 11.779 11.064 6.995 4.822 17.536 9.088 25.184 10.191 6.114.882 6.01.838 5.657 2.402-.171.759-1.317 3.485-2.547 6.058-1.615 3.38-2.478 4.658-3.11 4.603a90.478 90.478 0 0 1-2.39-.26zm4.805-20.897c-9.496-1.949-17.611-5.28-24.037-9.864-3.305-2.358-8.739-7.897-11.034-11.248-1.843-2.691-1.546-3.579 2.023-6.036 2.787-1.92 2.886-1.945 7.441-1.906 3.119.026 5.252.313 6.572.884l1.956.844-.344-1.137c-.987-3.26-.91-7.97.186-11.367 2.084-6.46 5.808-10.101 11.856-11.594 3.377-.833 5.86-.687 10.244.602 1.008.296 1.083.095 1.315-3.522.378-5.895 3.746-12.092 7.805-14.364.667-.373.515-.96-1.066-4.1-1.328-2.636-1.802-4.177-1.69-5.498l.154-1.835 7.84-2.682c4.311-1.476 8.5-2.622 9.306-2.548 1.902.175 2.694 1.418 2.054 3.225-.424 1.2-1.224 1.62-6.303 3.315-3.199 1.067-6.108 2.05-6.464 2.183-.49.184-.382.768.442 2.403.599 1.187 1.144 2.223 1.21 2.3.067.079 2.019-.775 4.337-1.896 4.108-1.986 4.351-2.038 9.567-2.038 5.885 0 7.6.62 7.6 2.748 0 2.053-1.27 2.545-7.265 2.815l-5.597.253 3.364 1.965c5.919 3.454 10.528 8.575 13.002 14.445 1.453 3.45 1.625 9.44.327 11.422-2.683 4.095-9.106 6.08-18.432 5.695l-5.928-.244 1.002 2.832c.717 2.028 1.01 4.203 1.033 7.67.03 4.415-.101 5.1-1.487 7.81-1.252 2.45-1.96 3.2-4.029 4.266-2.193 1.13-3.263 1.315-8.47 1.463-3.279.092-5.96.326-5.96.52 0 .192.299.799.665 1.348 1.138 1.707 1.863 5.022 1.863 8.517 0 1.845-.17 3.328-.379 3.296-.209-.033-2.314-.457-4.679-.942zM159.58 80.36c1.201-1.201 1.54-2.042 1.726-4.294.29-3.49-.777-6.39-3.342-9.089-5.564-5.856-13.77-4.805-15.782 2.021-.87 2.95.329 6.39 3.183 9.137 3.433 3.305 6.017 4.3 10.213 3.937 1.932-.168 2.85-.56 4.002-1.712zm-64.17 15.282c-6.491-1.505-9.439-2.417-12.762-3.95-11.194-5.164-17.978-12.67-21.94-24.275-1.049-3.071-1.21-4.48-1.21-10.622 0-6.578.088-7.234 1.233-9.232 2.495-4.357 9.316-5.953 15.843-3.707 5.83 2.005 13.347 6.361 20.65 11.966 5.34 4.099 15.179 14.643 15.11 16.193-.012.253-1.139.983-2.504 1.623s-3.2 1.835-4.079 2.655c-.878.821-1.774 1.492-1.991 1.492-.217 0-.802-.626-1.3-1.39-1.631-2.504-12.52-13.323-16.73-16.622-2.263-1.774-5.563-3.944-7.332-4.822-8.008-3.973-10.284-1.879-8.286 7.621C72.671 74.741 82.409 83.918 94.971 86c2.673.443 3.209.688 2.945 1.348-.177.443-.448 2.57-.602 4.726-.154 2.156-.418 3.893-.587 3.861a56.087 56.087 0 0 1-1.318-.293zm25.889-23.348c-2.29-.805-2.554-1.091-4.418-4.8-2.444-4.863-3.537-6.48-6.502-9.62-2.332-2.469-6.471-4.858-8.432-4.867-.772-.004-8.713-4.713-10.782-6.395-.426-.346 1.24-1.826 3.153-2.803 3.183-1.624 8.113-1.159 13.04 1.23 6.721 3.258 14.069 11.046 17.657 18.713l1.548 3.308-.995 2.947c-.547 1.62-1.183 2.99-1.414 3.045-.231.054-1.516-.287-2.855-.758z"/></svg>