<svg xmlns="http://www.w3.org/2000/svg" width="224.469" height="202.813" viewBox="0 0 224.46842 202.81263"><defs><filter id="a" color-interpolation-filters="sRGB"><feFlood flood-opacity=".498" flood-color="#000" result="flood"/><feComposite in="flood" in2="SourceGraphic" operator="in" result="composite1"/><feGaussianBlur in="composite1" stdDeviation="5.6" result="blur"/><feOffset dx="4" dy="4" result="offset"/><feComposite in="SourceGraphic" in2="offset" result="composite2"/></filter></defs><path d="M158.999 182.404c-8.1 4.677-85.43 4.677-93.53 0-8.1-4.676-46.763-71.645-46.763-80.998 0-9.353 38.664-76.321 46.764-80.998 8.1-4.676 85.429-4.676 93.529 0 8.1 4.677 46.764 71.645 46.764 80.998 0 9.353-38.665 76.322-46.764 80.998z" fill="#ffa825" filter="url(#a)"/><path d="M110.826 84.7c-1.545-.016-2.032.083-2.93 1.98-1.322 3.112-1.372 6.567-2.197 9.818-.962 4.325-2.265 8.575-3.982 12.66-.622 1.78-1.731 3.692-1.705 5.412.026 1.72.976 1.98 3.515 2.09 2.538.11 6.2.235 9.978.155 3.392-.178 8.299.307 11.642-.345 1.586-.652.008-3.137-.242-4.285-1.326-3.08-2.734-6.135-3.703-9.355-1.443-4.653-2.652-9.46-2.617-14.362.003-1.354-.837-3.475-1.867-3.673-1.031-.198-4.347-.08-5.892-.095zM121.652 84.946v4.041c0 9.86 5.91 23.553 13.252 30.748 4.917 4.82 16.57 11.361 22.934 12.855 8.41 1.975 14.736.541 17.984-3.514 3.248-4.055 3.266-10.542-.498-18.317-3.8-7.848-13.667-17.659-21.75-21.638-6.356-3.13-7.95-3.453-19.223-3.793zM96.906 120.43c-2.57 2.525-5.99 4.71-6.98 8.37-.115 3.336 2.314 5.998 4.303 8.405 3.71 4.24 8.862 6.676 13.576 9.57 2.328 1.325 3.364 3.9 3.935 6.383.295 1.307 1.66 4.562 2.524 1.941 1.237-2.518 1.128-5.737 3.482-7.63 3.562-3.223 8.615-4.033 12.17-7.28 3.036-2.447 5.872-5.4 7.39-9.035.477-2.78-2.011-4.724-3.708-6.539-1.385-1.356-2.851-2.626-4.25-3.969-10.813-.07-21.629-.143-32.442-.216zm4.162 6.234c3.32.008 8.19 2.128 12.505 2.063 4.315-.065 7.866-1.658 12.926-2.32 1.604-.114 5.54.375 4.81 2.682-1.182 1.833-3.944 3.415-5.78 3.842-3.789.83-7.602 2.156-11.664 1.909-4.005.29-6.56-.343-9.77-.943-3.208-.6-5.606-2.232-7.823-4.011-1.388-1.924 1.835-3.132 3.494-3.081.433-.057.867-.101 1.302-.14z" overflow="visible"/><ellipse cx="112.588" cy="63.321" rx="23.33" ry="19.389"/><path d="M103.79 84.983v4.041c0 9.86-5.91 23.552-13.25 30.747-4.918 4.82-16.57 11.362-22.934 12.856-8.41 1.975-14.737.54-17.985-3.514-3.248-4.055-3.265-10.542.499-18.318 3.799-7.848 13.667-17.658 21.749-21.638 6.356-3.13 7.949-3.452 19.224-3.793z" overflow="visible"/><path d="M152.4 45.938c1.446 3.275-6.897-.483-10.653 1.175-3.756 1.657-6.937 7.03-9.68 4.303-3.437-3.422 4.59-6.83 8.346-8.487 3.756-1.657 10.542-.266 11.988 3.01zm-79.171-.125c-1.446 3.275 6.897-.483 10.653 1.175 3.756 1.657 6.938 7.03 9.679 4.303 3.438-3.422-4.59-6.83-8.345-8.487-3.756-1.658-10.542-.266-11.987 3.01z"/></svg>