<svg xmlns="http://www.w3.org/2000/svg" width="224.468" height="202.813" viewBox="0 0 224.46841 202.81291"><defs><filter id="a" color-interpolation-filters="sRGB"><feFlood flood-opacity=".498" flood-color="#000" result="flood"/><feComposite in="flood" in2="SourceGraphic" operator="in" result="composite1"/><feGaussianBlur in="composite1" stdDeviation="5.6" result="blur"/><feOffset dx="4" dy="4" result="offset"/><feComposite in="SourceGraphic" in2="offset" result="composite2"/></filter></defs><path d="M158.999 182.404c-8.1 4.677-85.43 4.677-93.53 0-8.1-4.676-46.763-71.645-46.763-80.998 0-9.353 38.664-76.32 46.764-80.998 8.1-4.676 85.429-4.676 93.529 0 8.1 4.677 46.764 71.645 46.764 80.998 0 9.353-38.665 76.322-46.764 80.998z" fill="#ffa825" filter="url(#a)"/><path d="M85.358 152.098c-8.176-2.03-11.882-8.968-8.903-16.665.45-1.166-.175-1.874-2.52-2.855-6.377-2.664-9.276-9.454-6.685-15.656 1.386-3.317 1.368-3.535-.388-4.765-4.4-3.082-5.996-11.491-2.998-15.802 2.193-3.154 4.998-5.384 6.818-5.42 2.26-.044 2.532-1.021 1.43-5.149-.835-3.127-.717-4.246.757-7.216 3.193-6.433 5.172-7.201 19.58-7.597l12.732-.35v-6.18H57.65l-2.24-2.24c-3.723-3.723-2.494-8.529 2.685-10.498 3.425-1.303 103.521-1.303 106.947 0 5.179 1.969 6.408 6.775 2.684 10.499l-2.24 2.24h-47.531v6.18l12.732.35c14.408.395 16.388 1.163 19.58 7.596 1.475 2.97 1.592 4.089.757 7.216-1.101 4.128-.83 5.105 1.43 5.15 1.82.035 4.626 2.265 6.818 5.419 2.998 4.311 1.403 12.72-2.998 15.802-1.756 1.23-1.773 1.448-.387 4.765 2.59 6.202-.308 12.992-6.685 15.656-2.356.985-2.97 1.684-2.506 2.855 2.375 6.001.359 12.003-5.12 15.238-2.867 1.694-4.898 1.837-28.183 1.992-13.8.091-26.417-.163-28.035-.565zm64.487-25.154c3.008-3.01 3.318-7.03.77-9.993l-2.183-2.537-37.649.68-37.649.68-1.437 2.194c-2.156 3.29-.636 7.63 3.393 9.684 2.9 1.479 6.168 1.596 38.05 1.369 33.507-.24 34.95-.32 36.705-2.077zm-24.58-3.635c-1.397-1.683-.526-5.55 1.417-6.295 1.716-.658 4.546.694 5.24 2.503.683 1.78-1.849 5.15-3.87 5.15-.913 0-2.168-.612-2.787-1.358zm18.432-33.648c2.727-2.072 3.6-5.771 2.17-9.193-2.12-5.075-4.233-5.348-35.969-4.643-15.392.342-28.74.834-29.665 1.095-2.057.58-4.448 5.974-3.65 8.231.321.906 1.415 2.572 2.432 3.7 1.847 2.054 1.851 2.054 32.484 2.025 23.689-.023 30.99-.298 32.198-1.215z"/></svg>