<svg xmlns="http://www.w3.org/2000/svg" width="224.468" height="202.813" viewBox="0 0 224.46842 202.81293"><defs><filter id="a" color-interpolation-filters="sRGB"><feFlood flood-opacity=".498" flood-color="#000" result="flood"/><feComposite in="flood" in2="SourceGraphic" operator="in" result="composite1"/><feGaussianBlur in="composite1" stdDeviation="5.6" result="blur"/><feOffset dx="4" dy="4" result="offset"/><feComposite in="SourceGraphic" in2="offset" result="composite2"/></filter></defs><path d="M158.999 182.404c-8.1 4.677-85.43 4.677-93.53 0-8.1-4.676-46.763-71.645-46.763-80.998 0-9.353 38.664-76.32 46.764-80.998 8.1-4.676 85.429-4.676 93.529 0 8.1 4.677 46.764 71.645 46.764 80.998 0 9.353-38.665 76.322-46.764 80.998z" fill="#ffa825" filter="url(#a)"/><path d="M110.452 73.898L93.558 84.094 76.28 74.562l-.383-19.73L92.79 44.636l17.278 9.532zM155.108 73.898l-16.894 10.196-17.278-9.532-.383-19.73 16.894-10.196 17.278 9.532zM88.756 111.602L71.862 121.8l-17.278-9.532-.383-19.73 16.894-10.196 17.278 9.532zM133.412 111.602L116.518 121.8l-17.278-9.532-.383-19.73 16.894-10.196 17.278 9.532zM111.505 150.571l-16.894 10.197-17.278-9.533-.383-19.729 16.894-10.197 17.278 9.533z" fill="none" stroke="#000" stroke-width="6.214"/><path d="M157.721 159.866l-19.155 4.742-13.684-14.217 5.47-18.96 19.154-4.742 13.685 14.217z" stroke="#000" stroke-width="6.214"/></svg>