<svg xmlns="http://www.w3.org/2000/svg" width="348.969" height="344.709" viewBox="0 0 348.96879 344.7088"><path d="M221.894 140.186c5.197 22.629-7.045 51.646-31.84 60.95-25.82 9.689-47.418-.977-52.615-20.18-6.065-22.411 7.65-48.487 31.513-59.971 23.862-11.484 47.745-3.428 52.942 19.2zM77.518 301.004l8.53-3.869-2.855-1.083c-9.116-3.46-26.004-19.207-28.374-26.456-.545-1.666-.878-.992-3.695 7.456-1.703 5.107-3.096 9.988-3.096 10.846 0 5.34 8.184 14.143 15.523 16.697 3.464 1.205 3.297 1.248 13.967-3.591z" fill="#f2d000"/><path d="M96.365 291.49c3.92-2.166 8.323-4.697 9.785-5.624l2.658-1.685-2.95-1.651c-6.085-3.406-36.304-30.539-39.824-35.757l-1.674-2.482-2.276 4.928c-6.937 15.02-7.546 17.922-4.754 22.65 4.113 6.966 15.046 17.026 23.475 21.601 5.33 2.894 7.16 2.661 15.56-1.98z" fill="#f2d000"/><path d="M114.943 279.936c5.494-3.73 12.878-9.466 13.154-10.218.622-1.696-9.638-12.786-22.31-24.116-14.177-12.677-19.101-16.565-26.355-20.81l-2.996-1.754-4.14 6.975c-6.786 11.433-6.844 11.576-5.84 14.545 1.026 3.033 9.358 11.21 26.852 26.353 11.044 9.56 13.977 11.636 16.515 11.691.635.014 2.94-1.186 5.12-2.666z" fill="#f2d000"/><path d="M134.731 264.586c6.015-5.117 18.298-17.696 18.789-19.242.476-1.5-2.296-10.031-5.498-16.92-2.634-5.668-4.453-7.709-16.614-18.645-9.67-8.696-13.661-10.687-27.22-13.577l-5.76-1.227-3.078 3.346c-3.968 4.314-10.164 12.21-14.715 18.752l-3.593 5.166 2.693 1.308c9.306 4.523 41.392 33.127 47.813 42.625.88 1.302 1.808 2.369 2.063 2.371.255.003 2.56-1.778 5.12-3.957z" fill="#f2d000"/><path d="M160.807 236.708c2.844-3.784 5.779-8.13 6.52-9.657 1.247-2.565 1.292-3.126.593-7.359-.416-2.52-1.446-5.759-2.289-7.197-2.028-3.46-8.845-9.777-13.21-12.24-1.95-1.1-5.043-3.748-6.986-5.98-10.505-12.067-15.211-15.348-22.704-15.829-6.147-.394-7.638.398-16.359 8.696l-7.132 6.786 6.634 1.404c12.382 2.62 17.792 5.408 26.43 13.615 2.84 2.698 6.394 5.865 7.898 7.038 1.503 1.173 4.027 3.945 5.609 6.161 3.44 4.82 5.504 9.574 8.966 20.642.138.44.387.8.554.8.167 0 2.631-3.096 5.476-6.88z" fill="#f2d000"/><path d="M163.483 183.355c-3.026-1.57-5.327-4.098-6.48-7.117-.87-2.277-.998-4.261-.708-10.93.294-6.777.74-9.473 2.642-16.01 3.322-11.41 4.556-13.944 8.186-16.813 3.587-2.836 6.792-3.545 13.24-2.93 14.24 1.356 24.745 9.849 28.252 22.841 4.113 15.24.554 20.542-18.572 27.669-10.98 4.091-22.311 5.495-26.56 3.29z" fill="#895321" fill-opacity=".894"/><path d="M143 342.78c-.908-2.609-2.032-2.887-5.486-1.359-3.508 1.552-3.783.892-.632-1.512 3.075-2.345 4.74-5.236 4.743-8.235l.003-2.474-1.655 1.085c-2.39 1.567-2.442.945-.177-2.135l1.99-2.706-1.839.431c-1.71.401-1.592.177 1.681-3.205 2.948-3.044 3.234-3.528 1.76-2.975-2.425.91-2.208.304.872-2.429l2.63-2.335-.797-2.664c-.73-2.434-.65-3.042.93-7.032 2.107-5.323 9.168-18.33 12.795-23.567 1.719-2.483 2.959-5.198 3.508-7.68 1.045-4.728 1.309-5.237 5.8-11.2 4.747-6.305 6.051-9.647 7.358-18.851.598-4.208 1.496-8.442 1.996-9.408.5-.967.908-2.027.908-2.355 0-.329-1.944-.79-4.32-1.027-2.376-.236-5.2-.58-6.277-.763-1.788-.304-2.155-.038-4.24 3.075-3.986 5.954-15.508 19.249-22.047 25.44-17.356 16.435-36.053 29.275-58.796 40.375-11.864 5.791-17.807 8.092-25.564 9.896-10.284 2.392-11.532 2.51-12.836 1.206-.996-.996-1.084-1.913-.717-7.513.574-8.753 2.427-17.33 5.92-27.403 8.331-24.022 15.387-38.418 28.013-57.152 7.517-11.155 13.77-18.68 23.995-28.872l9.05-9.022-1.37-6.013c-.754-3.307-1.482-6.137-1.618-6.287-.136-.15-1.324.315-2.64 1.035s-5.632 2.1-9.591 3.067c-8.483 2.07-12.705 4.368-18.722 10.186-3.672 3.551-9.233 6.786-11.667 6.786-.339 0-2.388 1.532-4.554 3.404-5.182 4.48-15.845 11.896-21.818 15.174-4.402 2.416-4.96 2.569-7.181 1.955-2.097-.579-2.59-.493-3.823.664-.777.731-1.76 2.165-2.183 3.186-.963 2.324-2.065 2.443-1.493.161.569-2.265-.435-1.597-3.032 2.019-2.113 2.943-3.262 3.286-2.662.796.297-1.23-.019-1.09-2.167.96-2.88 2.75-4.044 3.128-2.533.823 1.565-2.389 1.306-2.83-1.317-2.238-3.05.688-5.215 2.33-7.478 5.672-2.064 3.05-2.829 3.05-1.766 0 1.355-3.884.994-4.926-2.006-5.795-2.254-.653-2.446-.82-1.12-.976 13.482-1.587 14.06-1.698 13.355-2.548-.575-.693-.2-.857 1.965-.857 1.62 0 2.52-.253 2.28-.64-.238-.386.616-.64 2.15-.64 1.4 0 3.001-.175 3.558-.389 1.814-.696 1.067-1.531-1.388-1.552-2.288-.02-2.34-.066-1.12-1.003.704-.54 5.096-3.285 9.76-6.099s8.48-5.351 8.48-5.638c0-.287 2.952-2.614 6.56-5.17 3.608-2.557 7.208-5.234 8-5.95 1.318-1.192 1.354-1.394.431-2.414-.565-.624-.915-1.909-.799-2.929.25-2.178 3.63-4.116 19.33-11.082 5.722-2.539 11.806-5.745 13.924-7.337 3.199-2.405 5.618-3.579 12.074-5.86.672-.238-.574-1.7-4.16-4.884-2.816-2.499-7.28-6.74-9.92-9.425l-4.8-4.882-5.44 1.84c-5.654 1.911-16.65 3.262-18.633 2.289-.724-.356-1.798.148-3.595 1.686-2.59 2.217-3.542 2.35-2.972.416.229-.775.054-.716-.656.223l-1.936 2.56-.967 1.28-.038-1.28c-.031-1.077-.337-.924-1.923.96l-1.885 2.24-.018-1.76c-.01-.968-.116-1.76-.237-1.76-1.345 0-8.114 2.925-9.359 4.045-3.432 3.088-3.686 3.19-5.256 2.09-.797-.558-1.314-1.04-1.147-1.069.166-.03.965-.126 1.775-.215.81-.09 1.962-.66 2.56-1.269 1.027-1.045.99-1.083-.673-.675-1.352.331-1.76.2-1.76-.566 0-.549.504-1.28 1.12-1.627 1.034-.58 1.038-.66.05-1.04-.588-.227-1.693-.08-2.455.328-2.033 1.088-2.492.095-.646-1.4 1.294-1.05 2.146-1.214 4.606-.888 1.66.22 4.337.069 5.95-.337 2.421-.61 2.865-.945 2.552-1.93-.33-1.043-.113-1.146 1.743-.824 1.166.202 2.52.493 3.01.647.728.228.743.1.082-.696-.695-.838-.523-.974 1.228-.974 1.194 0 1.872-.265 1.64-.64-.24-.388.648-.64 2.247-.64 1.903 0 3.442-.55 5.5-1.966 4.9-3.372 11.057-5.074 18.348-5.074 6.232 0 6.385-.037 8.145-1.92 2.51-2.688 4.367-2.461 10.58 1.291 5.2 3.141 6.463 4.372 19.804 19.298 1.048 1.172 2.92 3.75 4.16 5.731 4.116 6.57 10.822 13.536 15.514 16.116 2.364 1.3 4.49 2.364 4.724 2.364.234 0 .256-1.043.05-2.318-.558-3.438.704-12.08 2.543-17.413.89-2.58 1.514-4.794 1.387-4.92-.127-.128-3.482-1.376-7.456-2.776-8.339-2.938-13.948-6.058-15.406-8.57-.665-1.146-2.06-2.105-4.009-2.755-5.072-1.693-12.819-9.727-13.72-14.23-.286-1.435-.82-2.012-2.1-2.268-2.35-.47-11.219-9.555-14.262-14.609-6.174-10.254-10.103-22.74-10.12-32.165-.011-5.513 2.107-9.792 5.149-10.4l1.875-.375-1.907-2.173c-1.05-1.194-2.096-2.923-2.327-3.842-.766-3.052.284-33.495 1.332-38.61C79.07 6.376 82.67 1.153 87.63.103c2.627-.556 7.586 1.137 13.883 4.74 9.133 5.226 13.719 10.383 21.36 24.024 6.894 12.307 11.998 23.36 14.925 32.32 3.492 10.686 5.345 15.252 13.799 33.996 6.906 15.31 9.913 21.447 12.215 24.926l1.579 2.386 3.745-1.616c2.477-1.069 3.869-2.076 4.11-2.974.63-2.351.416-8.483-.605-17.293-.972-8.382-.966-8.571.399-12.29.762-2.076 2.12-4.563 3.016-5.524 1.506-1.617 1.552-1.835.606-2.88-.763-.844-.857-1.43-.37-2.3.604-1.08.52-2.157-1.034-13.123-.066-.468-.502-1.087-.969-1.375-.466-.288-.681-.958-.478-1.489.205-.533-.193-1.474-.889-2.104-.693-.627-1.115-1.517-.937-1.979.177-.461-.39-1.305-1.258-1.874-1.795-1.176-2.016-1.979-.628-2.28.726-.158.346-1.164-1.6-4.233-1.403-2.214-2.551-4.171-2.551-4.35 0-.177.943-.145 2.097.071 1.57.295 2.52.06 3.78-.931 2.422-1.905 3.408-1.659 1.89.472-.988 1.388-1.196 2.414-.914 4.514.256 1.91.619 2.62 1.219 2.39 1.079-.414 2.1 1.344 1.69 2.91-.202.77.028 1.19.65 1.19.647 0 1.101.925 1.386 2.823.233 1.553.796 2.966 1.252 3.141 1.186.455 2.95 7.264 2.95 11.389 0 3.435.048 3.527 2.256 4.325 4.056 1.467 4.483 2.865 4.31 14.132-.114 7.4-.544 11.918-1.676 17.63-.837 4.224-1.399 7.896-1.248 8.16.15.264.655.48 1.122.48.55 0 1.006-1.263 1.298-3.598.616-4.935 1.847-8.152 4.504-11.771 2.03-2.766 7.526-7.048 9.01-7.02.32.005-.342.603-1.474 1.328-2.302 1.475-4.662 4.893-4.662 6.754 0 6.77 13.268 5.445 16.96-1.695 1.303-2.519 1.213-3.473-.52-5.486-1.236-1.438-1.996-1.718-4.64-1.71-2.452.007-2.802-.103-1.56-.493 3.299-1.035 10.149-.586 15.445 1.014.784.236 1.151-.25 1.47-1.946.31-1.66-.109-3.923-1.576-8.5-1.1-3.43-2.863-9.684-3.919-13.897-2.351-9.381-2.935-10.802-5.887-14.321-2.544-3.032-2.96-4.592-1.213-4.556 1.385.028 3.962 2.194 5.821 4.892 1.756 2.55 4.579 9.96 4.579 12.023 0 .852.884 4.188 1.965 7.415 2.542 7.587 3.696 13.755 3.316 17.715l-.304 3.166 2.855 1.673c1.57.92 4.495 3.445 6.5 5.61 3.484 3.763 3.748 3.918 6.016 3.534 4.174-.706 10.522-.312 16.772 1.042 3.344.725 8.24 1.538 10.88 1.807 6.637.677 11.533 2.65 14.372 5.793 2.193 2.427 2.477 3.788.79 3.785-.42 0-2.401-1.115-4.405-2.476-3.027-2.057-4.54-2.604-8.96-3.24-14.334-2.066-18.38-2.731-21.463-3.528-4.16-1.076-8.848-.215-8.13 1.492 1.768 4.198 2.822 9.008 2.728 12.45-.081 2.978-.17 3.317-.365 1.384-.466-4.643-4.294-6.833-7.732-4.425-5.205 3.646-6.88 14.015-2.63 16.289 2.82 1.51 7.58-.667 8.619-3.94.227-.716.565-1.148.752-.962.651.652-2.95 5.933-5.899 8.651-3.308 3.05-7.014 4.912-11.064 5.56-2.052.328-2.693.716-2.693 1.628 0 1.691 1.36 1.542 9.648-1.057 7.632-2.393 18.05-4.144 24.646-4.144 3.672 0 4.125.157 5.649 1.969.911 1.083 1.657 2.307 1.657 2.72 0 .526 1.974.75 6.588.75 5.28 0 6.94.23 8.356 1.16.973.637 2.777 1.222 4.01 1.301 1.231.079 2.478.529 2.769 1 .29.47.922.715 1.403.544 1.105-.394 3.261.68 2.815 1.4-.184.298.888.669 2.382.824 1.946.202 3.198-.051 4.415-.893 2.266-1.568 2.692-1.481 1.519.309-1.086 1.656-1.318 3.866-.636 6.048.437 1.396.272 1.365-4.263-.813-3.818-1.833-4.758-2.08-4.925-1.293-.28 1.32-.969 1.224-2.374-.329-.648-.716-1.53-1.168-1.959-1.003-.429.165-1.246-.216-1.816-.846-.662-.731-1.608-1.035-2.62-.842-.92.176-1.584.003-1.584-.412 0-.874-13.3-.986-14.663-.123-.556.351-1.349.293-2.062-.153-.961-.6-1.518-.384-3.257 1.267-4.215 4-5.512 4.34-18.098 4.746-6.336.204-12.99.723-14.784 1.152l-3.264.781-1.056 3.798c-.581 2.09-1.056 3.965-1.056 4.17 0 2.102 44.913 17.133 62.08 20.775 10.805 2.293 15.176 3.649 27.103 8.406 22.966 9.16 28.556 13.08 36.826 25.827 2.474 3.814 2.943 5.06 3.157 8.38.244 3.8.185 3.97-2.257 6.538-3.043 3.2-9.13 6.142-15.429 7.46-8.698 1.822-21.524 3.624-28.28 3.975-6.475.337-6.809.288-9.149-1.322-1.335-.92-2.54-1.671-2.677-1.671s-.34.763-.452 1.695c-.124 1.043-1.149 2.46-2.66 3.68-2.41 1.948-2.605 1.989-10.449 2.198-5.798.155-9.34-.083-12.903-.865-6.356-1.396-16.205-5.04-20.27-7.499-4.887-2.957-11.058-8.05-12.3-10.154-.711-1.203-1.94-2.108-3.398-2.5-3.988-1.074-11.248-6.194-13.41-9.457-1.09-1.646-2.146-3.646-2.346-4.445-.212-.843-.853-1.453-1.526-1.453-2.062 0-6.933-6.44-10.652-14.08-1.97-4.048-3.681-7.475-3.803-7.615-.122-.14-2.459.762-5.193 2.004-5.403 2.455-12.67 4.33-16.779 4.33-1.426 0-2.593.149-2.593.33 0 .182 1.066 1.937 2.37 3.9 2.476 3.73 10.393 9.824 17.224 13.259 3.44 1.73 10.516 6.442 18.975 12.64 6.501 4.761 12.589 12.527 12.614 16.089.013 1.787-.324 2.56-1.357 3.113-1.32.706-1.359 1.022-.98 8.078.455 8.51-.546 14.68-3.088 19.016-1.021 1.743-1.598 3.703-1.598 5.43 0 1.632-.253 2.545-.638 2.307-.424-.262-.424.168 0 1.284.845 2.223.81 2.438-.322 2.003-1.131-.434-1.165-.154-.331 2.753.712 2.483.45 3.12-.845 2.045-1.284-1.065-2.026 5.653-.953 8.621.857 2.369.204 5.377-1.273 5.867-.642.214-.739-.268-.409-2.027.458-2.44-.436-3.182-1.513-1.258-.808 1.444-2.234.43-1.805-1.282.338-1.352.329-1.35-.845.07-.68.824-1.045 1.985-.852 2.72.44 1.686-.56 1.644-1.63-.069-.75-1.2-.626-1.622 1.11-3.783 1.075-1.338 2.26-3.826 2.634-5.529.373-1.703.832-3.6 1.018-4.216.262-.864-.035-1.12-1.303-1.12-2.15 0-2.073-.484.437-2.723 1.154-1.03 1.581-1.7.96-1.507-1.63.508-1.371-.6.48-2.056 1.79-1.408 2.096-2.185.64-1.626-1.4.537-1.183-.424.731-3.24 1.378-2.028 1.556-2.706.96-3.66-1.123-1.799-.854-12.331.48-18.788.656-3.168 1.155-5.782 1.11-5.807-1.703-.984-9.964-7.746-14.623-11.968-6.211-5.629-6.221-5.635-6.615-3.852-1.224 5.539-2.56 9.223-4.518 12.457-1.215 2.007-3.873 8.731-5.945 15.04-5.581 16.996-6.32 18.748-8.207 19.465-1.21.46-2.01.366-3.127-.365-1.718-1.126-1.705-1.141-7.608 9.27-1.696 2.992-3.595 6.016-4.22 6.72-.624.704-3.114 5.58-5.532 10.838-2.419 5.257-4.741 9.673-5.162 9.813-.5.167-.764-.553-.764-2.076 0-1.391-.258-2.171-.64-1.935-.352.217-.64 1.818-.64 3.557 0 1.773-.294 3.163-.67 3.163-.423 0-.507.86-.229 2.343.383 2.037.298 2.288-.65 1.925-.993-.381-1.071.229-.89 6.938.11 4.046.01 7.355-.219 7.355-.23 0-.72-.87-1.09-1.93zm-65.482-41.776l8.53-3.869-2.855-1.083c-9.116-3.46-26.004-19.207-28.374-26.456-.545-1.666-.878-.992-3.695 7.456-1.703 5.107-3.096 9.988-3.096 10.846 0 5.34 8.184 14.143 15.523 16.697 3.464 1.205 3.297 1.248 13.967-3.591zm18.847-9.514c3.92-2.166 8.323-4.697 9.785-5.624l2.658-1.685-2.95-1.651c-6.085-3.406-36.304-30.539-39.824-35.757l-1.674-2.482-2.276 4.928c-6.937 15.02-7.546 17.922-4.754 22.65 4.113 6.966 15.046 17.026 23.475 21.601 5.33 2.894 7.16 2.661 15.56-1.98zm18.578-11.554c5.494-3.73 12.878-9.466 13.154-10.218.622-1.696-9.638-12.786-22.31-24.116-14.177-12.677-19.101-16.565-26.355-20.81l-2.996-1.754-4.14 6.975c-6.786 11.433-6.844 11.576-5.84 14.545 1.026 3.033 9.358 11.21 26.852 26.353 11.044 9.56 13.977 11.636 16.515 11.691.635.014 2.94-1.186 5.12-2.666zm19.788-15.35c6.015-5.117 18.298-17.696 18.789-19.242.476-1.5-2.296-10.031-5.498-16.92-2.634-5.668-4.453-7.709-16.614-18.645-9.67-8.696-13.661-10.687-27.22-13.577l-5.76-1.227-3.078 3.346c-3.968 4.314-10.164 12.21-14.715 18.752l-3.593 5.166 2.693 1.308c9.306 4.523 41.392 33.127 47.813 42.625.88 1.302 1.808 2.369 2.063 2.371.255.003 2.56-1.778 5.12-3.957zm147.633-9.519c4.043-.932 6.464-2.832 6.464-5.074 0-3.224-8.07-12.968-15.58-18.811-5.355-4.167-18.168-13.07-20.739-14.409-.914-.476.892 2.497 4.96 8.163 3.52 4.901 6.399 9.307 6.399 9.791s3.456 4.328 7.68 8.54c4.224 4.214 7.68 7.949 7.68 8.3 0 .353-3.389-2.739-7.53-6.87-4.141-4.13-7.918-7.51-8.394-7.51-.475 0-3.748-2.303-7.272-5.12-3.524-2.815-6.99-5.12-7.7-5.12-1.216 0-1.268.28-.89 4.766.237 2.79 1.097 6.497 2.075 8.94.919 2.296 1.56 4.508 1.424 4.916-.532 1.596-3.888-8.732-4.45-13.7l-.595-5.241-4.294-4.04c-3.917-3.684-12.274-9.732-13.42-9.713-.261.004-1.084.95-1.828 2.1L225 217.068l3.693 6.241c2.964 5.009 3.783 7.003 4.141 10.094.383 3.299.783 4.18 2.78 6.13 9.886 9.653 24.074 15.011 42.654 16.108.704.041 2.547-.217 4.096-.574zM316.15 249c17.86-2.621 24.388-4.687 28.818-9.116 2.109-2.11 2.225-2.444 1.96-5.646-.226-2.718-.886-4.312-3.277-7.907-1.647-2.477-3.153-4.503-3.347-4.503-.194 0-.181.277.028.616.523.846-1.963 3.224-3.37 3.224-.63 0-3.997-1.74-7.482-3.865-5.256-3.204-11.337-6.375-12.224-6.375-.115 0 .207 1.368.714 3.04 1.225 4.037 1.175 7.213-.142 9.095-1.076 1.535-1.06 1.558 4.956 7.133 3.32 3.076 5.876 5.75 5.683 5.945-.194.193-3.219-2.335-6.722-5.619-5.893-5.523-9.239-7.79-9.239-6.258 0 .342-1.89 1.729-4.201 3.08-4.137 2.42-4.196 2.493-3.785 4.679.483 2.576 1.548 4.632 3.906 7.545.926 1.144 1.384 2.08 1.017 2.08-1.178 0-5.126-6.013-5.597-8.524-.266-1.42-1.022-2.79-1.818-3.297-1.956-1.247-21.37-9.94-22.197-9.94-.382 0-1.992.894-3.579 1.985l-2.885 1.985 4.723 4.352c2.598 2.394 5.999 6.005 7.557 8.026 1.559 2.02 4.564 5.072 6.678 6.783 3.773 3.053 3.924 3.11 8.292 3.11 2.447 0 9.437-.733 15.533-1.628zm-155.344-12.292c2.844-3.784 5.779-8.13 6.52-9.657 1.247-2.565 1.292-3.126.593-7.359-.416-2.52-1.446-5.759-2.289-7.197-2.028-3.46-8.845-9.777-13.21-12.24-1.95-1.1-5.043-3.748-6.986-5.98-10.505-12.067-15.211-15.348-22.704-15.829-6.147-.394-7.638.398-16.359 8.696l-7.132 6.786 6.634 1.404c12.382 2.62 17.792 5.408 26.43 13.615 2.84 2.698 6.394 5.865 7.898 7.038 1.503 1.173 4.027 3.945 5.609 6.161 3.44 4.82 5.504 9.574 8.966 20.642.138.44.387.8.554.8.167 0 2.631-3.096 5.476-6.88zm97.991-8.252c-2.473-3.47-5.584-7.967-6.913-9.993-2.237-3.41-3.916-4.69-22.498-17.146-11.044-7.404-20.221-13.321-20.393-13.15-.38.38-.079.76 10.563 13.32 6.598 7.787 9.361 10.549 12.402 12.396 2.152 1.307 6.48 4.637 9.618 7.4 3.778 3.328 6.23 5.025 7.26 5.025.986 0 3.842 1.847 7.813 5.052 3.693 2.982 6.337 4.715 6.451 4.229.107-.453-1.83-3.663-4.303-7.133zm-26.93 3.47c0-1.259-4.397-9.092-9.4-16.746-5.308-8.12-16.568-22.792-17.49-22.792-.26 0-.826.424-1.256.943-.636.766-.364 1.696 1.45 4.96 2.673 4.806 7.18 15.355 7.792 18.241.806 3.795 4.01 9.47 6.738 11.934 1.485 1.342 4.47 3.278 6.633 4.303 3.638 1.724 3.993 1.783 4.733.779.44-.597.8-1.326.8-1.621zm76.03-.904c2.008-1.278 3.856-2.646 4.107-3.04.543-.848-4.091-5.76-9.097-9.642-1.984-1.539-5.054-3.178-7.035-3.757l-3.515-1.026-1.925 1.813c-1.563 1.472-2.352 1.758-4.194 1.52-2.17-.28-2.346-.149-4.063 3.006-.987 1.814-1.695 3.367-1.572 3.452 1.37.94 21.638 9.9 22.495 9.942.632.032 2.792-.989 4.8-2.268zm9.627-6.314c.12-1.408-.102-4.002-.491-5.764-.61-2.759-1.084-3.436-3.417-4.878-2.848-1.76-8.645-4.121-9.062-3.69-.135.138.735 2.266 1.934 4.727 1.198 2.462 2.179 5.043 2.179 5.736 0 2.02 5.128 6.84 7.04 6.616 1.365-.16 1.632-.563 1.817-2.747zm-55.945-7.228c-7.855-7.663-13.069-11.941-28.053-23.018-10.123-7.482-18.67-13.441-18.992-13.242-.323.2-.587.626-.587.948 0 .321 5.832 5.792 12.96 12.157 10.946 9.775 15.275 13.124 27.859 21.55 8.194 5.487 15.051 10.223 15.237 10.524.187.302.538.536.782.52.243-.015-3.9-4.263-9.206-9.44zm14.856 7.708c1.913-1.21 3.384-2.888 4.705-5.366l1.923-3.606-2.078-1.578c-4.553-3.459-18.267-9.819-22.385-10.381-2.555-.35-2.817-.24-4.013 1.682l-1.28 2.056 9.6 9.46c5.28 5.202 9.858 9.467 10.173 9.476.315.009 1.825-.775 3.355-1.743zm62.69-2.407c.894-3.56-6.09-9.716-16.698-14.72-6.674-3.15-19.165-8.24-22.794-9.29-2.455-.71-3.349.107-2.808 2.568.593 2.7 6.41 8.298 8.642 8.318.88.008 3.616 1.038 6.08 2.288 2.464 1.25 5.982 2.808 7.818 3.462 1.836.654 5.861 2.726 8.945 4.604 6.61 4.029 7.116 4.273 8.985 4.332 1.01.031 1.545-.426 1.83-1.562zm-34.059-8.43c-1.457-2.872-3.48-5.715-4.982-7-2.375-2.033-2.812-2.163-7.232-2.163-6.039 0-6.564.909-2.762 4.782 2 2.038 3.668 3.036 6.326 3.786 2.217.624 4.97 2.094 7.13 3.806 1.937 1.534 3.623 2.527 3.748 2.206.125-.32-.878-2.758-2.228-5.418zm-93.04 2.96c0-2.533-8.958-22.383-10.086-22.35-.26.009-1.151.537-1.98 1.174l-1.507 1.16 3.522 7.327c3.355 6.979 8.084 14.006 9.427 14.006.343 0 .625-.593.625-1.317zm14.061-3.756c.775-1.87.657-2.054-7.436-11.601-4.523-5.335-8.716-10.318-9.317-11.074-.882-1.107-1.316-1.235-2.24-.663-.631.39-1.147.861-1.147 1.045 0 .185 2.621 3.61 5.825 7.61 3.205 4.002 7.323 9.516 9.152 12.254 1.83 2.738 3.563 4.832 3.851 4.653.289-.178.88-1.18 1.312-2.224zm63.993.94l1.477-1.571-3.125-3.5c-4.103-4.593-10.383-7.62-15.751-7.59-3.825.02-10.094 1.253-10.094 1.984 0 .233 2.83 1.65 6.29 3.147 3.46 1.499 8.429 4.148 11.04 5.888 5.5 3.663 7.9 4.051 10.163 1.643zm-35.173-10.965c0-1.166-4.187-4.292-14.178-10.587-4.88-3.073-12.216-7.945-16.303-10.825-5.741-4.046-7.558-5.04-7.986-4.364-1.343 2.12-2.808.886 28.547 24.024l7.04 5.195 1.44-1.325c.792-.728 1.44-1.681 1.44-2.118zm36.89 1.018c2.197 0 4.132-.224 4.3-.496.17-.273.109-1.466-.134-2.65-.574-2.809-3.48-4.458-7.288-4.135-3.059.26-12.012 2.776-12.001 3.374.014.79 9.928 4.985 10.52 4.453.335-.3 2.406-.546 4.603-.546zm-108.33-1.9c16.906-4.324 31.72-19.128 36.34-36.317 1.761-6.554 1.892-16.818.282-22.23-4.046-13.606-14.099-22.621-27.914-25.033-9.912-1.73-21.913 1.064-31.297 7.288-13.216 8.765-21.933 23.069-23.452 38.483-.69 6.992-.216 8.295 4.37 12.031 2.195 1.788 4.855 4.096 5.91 5.128 1.057 1.033 2.994 2.382 4.306 3 2.475 1.164 6.853 5.518 6.95 6.911.03.44 2.839 3.306 6.24 6.371l6.185 5.573 3.577.027c1.968.015 5.795-.54 8.504-1.232zm79.926-1.3c2.004-.705 5.304-1.284 7.338-1.29 2.108-.004 5.752-.664 8.483-1.535l4.787-1.527-2.867-.76c-12.524-3.316-38.662-11.876-51.48-16.859-5.968-2.32-10.945-4.126-11.058-4.012-.306.306 16.197 11.612 25.75 17.64 4.577 2.887 9.04 5.93 9.92 6.76 1.357 1.279 3.9 2.675 5.143 2.822.188.022 1.981-.535 3.984-1.24zm20.954-7.04c-.88-.282-2.176-.521-2.88-.532l-1.28-.019 1.28.55c.704.303 2 .542 2.88.532l1.6-.019zm-4.654-1.027c-.212-.213-.764-.236-1.226-.05-.51.204-.36.355.386.386.675.028 1.053-.123.84-.336zm-63.186-5.618c0-.134-1.008-1.012-2.24-1.952-1.232-.94-2.24-1.434-2.24-1.099 0 .335.936 1.21 2.08 1.942 2.194 1.405 2.4 1.5 2.4 1.11zm-73.679-43.678c.422-.926.684-1.765.583-1.865-1.18-1.164-17.273-6.545-21.784-7.284-4.505-.737-3.745.914 1.965 4.271 2.998 1.762 15.537 6.448 17.452 6.521.56.022 1.362-.718 1.784-1.643zm2.6-4.004c.675-1.262-.564-2.246-11.722-9.302-5.044-3.19-24.365-12.831-27.716-13.83-2.334-.696-2.815-.661-3.745.269-1.498 1.498-.878 3.257 2.727 7.73 4.182 5.189 7.58 7.155 14.94 8.642 6.34 1.28 15.57 4.134 20.435 6.315 3.65 1.638 4.286 1.66 5.08.176zm2.36-4.422c-.215-.348-5.625-4.166-12.023-8.485-11.17-7.541-11.696-7.817-13.234-6.95-.88.497-1.701 1.206-1.823 1.575-.122.369 2.159 1.938 5.068 3.486 5.485 2.918 16.291 9.538 19.006 11.642 1.352 1.049 1.674 1.086 2.475.284.507-.506.746-1.205.53-1.552zm-4.66-9.266c-3.466-4.295-10.366-12.565-15.335-18.377l-9.033-10.569-9.207-5.233c-15.355-8.727-16.217-8.719-7.706.078 3.34 3.454 5.86 6.598 5.86 7.315 0 .76 2.03 3.09 5.127 5.887 2.82 2.546 6.697 6.548 8.615 8.892 2.795 3.416 5.783 5.827 15.04 12.133 6.352 4.33 11.744 8.185 11.981 8.568.298.483.512.454.695-.094.145-.435-2.572-4.305-6.037-8.6zm9.877 4.55c-.137-.41-.944-1.203-1.795-1.76l-1.547-1.015 1.262 1.74c1.283 1.768 2.532 2.39 2.08 1.034zm2.589-3.66c-.423-.57-2.683-3.051-5.022-5.515-2.339-2.464-8.975-9.664-14.748-16-7.495-8.228-13.334-13.882-20.426-19.781-12.925-10.751-12.995-10.803-9.541-7.08 1.622 1.75 7.11 8.22 12.196 14.38 8.64 10.466 14.53 16.416 30.603 30.915 4.578 4.13 6.27 5.308 6.887 4.795.643-.532.653-.903.05-1.714zm3.54-1.015c1.11-.841.737-1.407-5.782-8.78-3.833-4.334-9.6-11.192-12.814-15.24-3.216-4.049-6.971-8.45-8.346-9.78l-2.5-2.421-1.713 1.347c-.942.74-1.712 1.586-1.712 1.878 0 .293 6.264 7.351 13.92 15.686 7.656 8.334 14.496 15.832 15.2 16.661 1.495 1.762 2.131 1.872 3.747.649zm-3.05-13.3c-8.32-15.933-22.755-48.753-22.797-51.833-.015-1.123-.14-1.232-.56-.487-.904 1.604-1.503 6.948-1.72 15.36-.115 4.4-.26 8.813-.324 9.807-.086 1.358.6 2.55 2.763 4.8 1.583 1.646 5.144 5.872 7.912 9.392 5.465 6.949 19.432 23.36 19.88 23.36.152 0-2.167-4.68-5.154-10.4zm64.103 8.64c.35-1.051-1.655-1.801-2.515-.941-.369.368-.466.998-.218 1.4.566.915 2.377.61 2.733-.46zm-98.767-1.738l1.873-1.531-2.63-3.406c-1.445-1.873-5-5.556-7.898-8.185l-5.27-4.78-4.592.192c-2.525.106-5.862-.139-7.414-.543-1.552-.405-3.902-1.015-5.222-1.357-1.32-.342-2.4-.86-2.4-1.151 0-.291 1.938.008 4.306.664 4.118 1.142 13.573 1.662 14.442.793.786-.786-1.446-3.829-6.278-8.558-2.697-2.64-5.094-5.273-5.327-5.851-.233-.578-3.972-3.99-8.31-7.58-4.338-3.591-7.74-6.677-7.559-6.857.18-.18 4.018 2.719 8.527 6.443 4.51 3.725 8.711 6.78 9.337 6.788 1.182.017 7.385 2.982 11.318 5.41 6.383 3.94 8.666 5.075 7.726 3.84-3.924-5.16-13.517-16.113-17.396-19.863-4.637-4.483-12.507-10.098-16.433-11.724-5.096-2.11-7.587 1.72-6.94 10.67.56 7.752 2.382 13.87 6.875 23.08 3.4 6.97 4.482 8.532 9.417 13.6l5.575 5.724 4.48.036c3.89.032 5.28.404 10.56 2.828 3.344 1.536 6.368 2.805 6.72 2.82.352.017 1.483-.66 2.513-1.502zm94.127-2.262c0-.519-.504-1.04-1.12-1.159-.786-.151-1.12.195-1.12 1.159 0 .963.334 1.309 1.12 1.158.616-.119 1.12-.64 1.12-1.158zm5.363-2.333c-.558-.672-.944-.708-1.616-.15-.672.557-.708.943-.15 1.615.558.672.944.708 1.616.15.672-.557.707-.943.15-1.615zM127.16 90.773c1.877-1.649 1.974-1.932 1.364-4-1.273-4.317-9.474-17.351-13.031-20.711l-1.954-1.846-3.076 2.197c-1.882 1.345-3.747 3.438-4.806 5.396l-1.731 3.199 10.37 8.724c5.705 4.798 10.478 8.745 10.607 8.77.13.025 1.145-.753 2.257-1.729zm2.19-15.505c-.202-5.079-.395-5.738-2.911-9.92-2.486-4.134-8.506-9.92-10.32-9.92-.354 0-1.195.792-1.869 1.76-1.649 2.37-.838 5.398 2.356 8.8 3.045 3.242 6.186 7.745 9.333 13.377 2.309 4.132 2.506 4.318 3.047 2.88.319-.846.482-3.985.363-6.977zm-29.506-18.03L93.279 46.17l-3.207-.651c-3.293-.669-9.244-3.766-9.244-4.811 0-.322 1.656.378 3.68 1.557 2.024 1.178 4.867 2.316 6.318 2.527l2.64.385 1.73-3.995c.951-2.197 2.183-4.497 2.736-5.11.93-1.032.77-1.347-2.129-4.17-1.724-1.679-5.007-4.675-7.295-6.658-2.288-1.982-4.016-3.752-3.84-3.931.176-.18 3.145 2.127 6.597 5.125 5.823 5.057 6.34 5.367 7.133 4.283.726-.994 1.732-1.16 6.688-1.107l5.833.063-1.386-2.325c-.762-1.278-3.5-5.16-6.086-8.626-2.692-3.611-4.7-6.94-4.7-7.794 0-.82.695-2.038 1.544-2.706l1.544-1.214-4.666-2.309c-2.567-1.27-5.637-2.483-6.824-2.697-4.935-.89-9.338 4.311-11.16 13.182-.633 3.082-1.102 10.417-1.353 21.14-.376 16.11-.357 16.461 1.018 18.686 1.63 2.637 5.473 5.935 12.218 10.486 2.64 1.782 6.384 4.679 8.32 6.439l3.52 3.2 1.75-3.416 1.75-3.415zm30.775 7.63c1.34-6.304 1.55-9.316.802-11.581-.916-2.776-1.621-3.342-4.764-3.825l-2.49-.383.366 4.37c.208 2.485.1 4.637-.25 4.988-.396.396.365 2.252 2.124 5.18 1.507 2.511 2.911 4.575 3.119 4.588.208.012.7-1.49 1.093-3.337zm-18.077-3.992c-.348-2.325-.17-3.01 1.215-4.655l1.623-1.929-1.376-3.11c-.757-1.712-2.7-4.644-4.316-6.517-2.985-3.458-9.051-8.437-10.278-8.437-.37 0-1.723 2.123-3.008 4.718l-2.334 4.719 5.614 9.521c3.087 5.237 6.023 10.176 6.524 10.976l.91 1.454 2.918-2.007c2.862-1.97 2.91-2.06 2.508-4.733zm23.693 1.856c-.504-1.378-.937-2.187-.962-1.8-.063.98 1.327 4.857 1.631 4.552.137-.136-.164-1.375-.669-2.752zm-12.967-9.487l-.12-4.932-2.76-2.496c-1.518-1.373-3.129-2.509-3.58-2.523-.45-.015-2.53-.746-4.62-1.626-2.091-.88-4.106-1.6-4.477-1.6-.372 0 .85 1.8 2.714 4 1.865 2.2 3.904 5.296 4.532 6.88 1.125 2.84 6.353 7.81 7.79 7.407.37-.103.59-2.264.521-5.11zm6.581-5.107c.579-1.508-9.29-20.273-15.208-28.92-5.957-8.703-14.613-13.624-14.613-8.309 0 .993 1.635 3.74 4.295 7.22 2.363 3.09 5.183 7.347 6.268 9.459 1.085 2.112 3.074 5.535 4.42 7.607 1.347 2.073 2.71 4.716 3.03 5.876 1.226 4.438 10.652 10.08 11.808 7.067zM115.376 37.58c-3.023-5.67-4.369-6.686-9.272-6.998-8.297-.528-9.445 1.2-3.927 5.915 2.352 2.01 4.01 2.93 5.28 2.932 1.018.002 3.579.709 5.69 1.571 2.113.862 3.934 1.301 4.048.975.114-.325-.705-2.303-1.82-4.395zm117.214 98.906c-2.263-2.727-1.16-9.069 2.151-12.38 2.383-2.384 4.108-2.673 5.668-.95 2.295 2.537.502 10.795-2.854 13.146-1.811 1.268-3.998 1.349-4.965.184zm-33.786-30.478c-5.293-2.214 1.154-10.262 8.22-10.262 5.278 0 6.455 3.887 2.25 7.425-3.141 2.644-7.87 3.925-10.47 2.837z"/></svg>