<?xml version="1.0" encoding="UTF-8" standalone="no"?>
<!-- Created with Inkscape (http://www.inkscape.org/) -->

<svg
   xmlns:dc="http://purl.org/dc/elements/1.1/"
   xmlns:cc="http://creativecommons.org/ns#"
   xmlns:rdf="http://www.w3.org/1999/02/22-rdf-syntax-ns#"
   xmlns:svg="http://www.w3.org/2000/svg"
   xmlns="http://www.w3.org/2000/svg"
   xmlns:sodipodi="http://sodipodi.sourceforge.net/DTD/sodipodi-0.dtd"
   xmlns:inkscape="http://www.inkscape.org/namespaces/inkscape"
   version="1.1"
   id="svg815"
   width="348.96878"
   height="344.7088"
   viewBox="0 0 348.96879 344.7088"
   sodipodi:docname="bee.svg"
   inkscape:version="0.92.2 (unknown)">
  <metadata
     id="metadata821">
    <rdf:RDF>
      <cc:Work
         rdf:about="">
        <dc:format>image/svg+xml</dc:format>
        <dc:type
           rdf:resource="http://purl.org/dc/dcmitype/StillImage" />
        <dc:title />
      </cc:Work>
    </rdf:RDF>
  </metadata>
  <defs
     id="defs819" />
  <sodipodi:namedview
     pagecolor="#ffffff"
     bordercolor="#666666"
     borderopacity="1"
     objecttolerance="10"
     gridtolerance="10"
     guidetolerance="10"
     inkscape:pageopacity="0"
     inkscape:pageshadow="2"
     inkscape:window-width="2987"
     inkscape:window-height="1692"
     id="namedview817"
     showgrid="false"
     fit-margin-top="0"
     fit-margin-left="0"
     fit-margin-right="0"
     fit-margin-bottom="0"
     inkscape:zoom="3.0644602"
     inkscape:cx="161.86858"
     inkscape:cy="137.01354"
     inkscape:window-x="481"
     inkscape:window-y="131"
     inkscape:window-maximized="0"
     inkscape:current-layer="svg815" />
  <path
     transform="matrix(0.90108319,-0.43364627,0.22382602,0.97462912,0,0)"
     style="fill:#f2d000;fill-opacity:1;stroke:none;stroke-width:2.55697107;stroke-miterlimit:4;stroke-dasharray:none;stroke-opacity:1"
     inkscape:transform-center-x="-5.9241873"
     inkscape:transform-center-y="15.798181"
     d="m 189.57261,228.18246 c -1e-5,23.21777 -18.89341,44.58456 -45.80558,42.15631 -28.02645,-2.52879 -47.16307,-21.98741 -47.949422,-42.03948 -0.917773,-23.4033 18.773062,-41.39693 45.254802,-41.39693 26.48174,0 48.5002,18.06233 48.5002,41.2801 z"
     id="path1109"
     inkscape:connector-curvature="0"
     sodipodi:nodetypes="sssss" />
  <path
     style="fill:#f2d000;fill-opacity:1;stroke-width:0.63999999"
     d="m 77.517602,301.00403 8.52981,-3.86854 -2.85426,-1.08345 c -9.11632,-3.46049 -26.00435,-19.2067 -28.3742,-26.45579 -0.54461,-1.66588 -0.87831,-0.99254 -3.69492,7.45539 -1.70293,5.10767 -3.09624,9.98835 -3.09624,10.84597 0,5.33986 8.18451,14.14311 15.52345,16.69699 3.46391,1.20541 3.29691,1.24835 13.96636,-3.59057 z"
     id="path1036"
     inkscape:connector-curvature="0" />
  <path
     style="fill:#f2d000;fill-opacity:1;stroke-width:0.63999999"
     d="m 96.364942,291.48964 c 3.919898,-2.16584 8.323118,-4.69639 9.784948,-5.62345 l 2.65786,-1.68557 -2.94999,-1.65105 c -6.084351,-3.40532 -36.303478,-30.5384 -39.823958,-35.75705 l -1.67398,-2.48147 -2.27608,4.92824 c -6.93712,15.02046 -7.5459,17.92127 -4.75357,22.65032 4.11269,6.96517 15.04614,17.02583 23.47464,21.60072 5.33097,2.89358 7.15959,2.66081 15.56013,-1.98069 z"
     id="path1034"
     inkscape:connector-curvature="0" />
  <path
     style="fill:#f2d000;fill-opacity:1;stroke-width:0.63999999"
     d="m 114.9429,279.93569 c 5.49414,-3.73006 12.87824,-9.46603 13.15399,-10.21801 0.62169,-1.69536 -9.63802,-12.78592 -22.3091,-24.11572 C 91.609852,232.92481 86.686022,229.0369 79.432082,224.79119 l -2.99571,-1.75339 -4.14067,6.97565 c -6.78603,11.43219 -6.84358,11.57554 -5.83935,14.54475 1.02578,3.03296 9.35765,11.21018 26.85144,26.35303 11.044208,9.56002 13.977028,11.63619 16.515108,11.69124 0.63532,0.0138 2.93932,-1.18627 5.12,-2.66678 z"
     id="path1032"
     inkscape:connector-curvature="0" />
  <path
     style="fill:#f2d000;fill-opacity:1;stroke-width:0.63999999"
     d="m 134.73135,264.58625 c 6.01511,-5.1171 18.29761,-17.69613 18.78818,-19.24176 0.47604,-1.49989 -2.29597,-10.03177 -5.49733,-16.92 -2.63426,-5.66804 -4.45297,-7.70917 -16.61407,-18.64594 -9.6692,-8.69575 -13.66115,-10.68673 -27.22034,-13.57612 l -5.760001,-1.22742 -3.078007,3.34626 c -3.96784,4.31362 -10.16383,12.20945 -14.71486,18.7518 l -3.59329,5.16555 2.69308,1.30882 c 9.30643,4.52288 41.392258,33.1269 47.813078,42.6246 0.88,1.30171 1.8086,2.3687 2.06356,2.37111 0.25496,0.003 2.55896,-1.7782 5.12,-3.9569 z"
     id="path1030"
     inkscape:connector-curvature="0" />
  <path
     style="fill:#f2d000;fill-opacity:1;stroke-width:0.63999999"
     d="m 160.8067,236.70752 c 2.84459,-3.784 5.77904,-8.12944 6.52099,-9.65653 1.24615,-2.56482 1.29131,-3.12592 0.59225,-7.35889 -0.41622,-2.5203 -1.44627,-5.75892 -2.28899,-7.19691 -2.02793,-3.46041 -8.84491,-9.77695 -13.21052,-12.24075 -1.94962,-1.1003 -5.04242,-3.74782 -6.98561,-5.97987 -10.50491,-12.06651 -15.2111,-15.34756 -22.70355,-15.82839 -6.14707,-0.3945 -7.6378,0.39794 -16.35887,8.69596 l -7.132221,6.78626 6.633801,1.40395 c 12.3819,2.62046 17.79246,5.40745 26.43,13.61418 2.84009,2.69844 6.39406,5.86572 7.89769,7.0384 1.50365,1.17268 4.02773,3.9453 5.60909,6.16137 3.43966,4.82025 5.50454,9.57363 8.96661,20.64122 0.13763,0.44 0.38684,0.8 0.5538,0.8 0.16695,0 2.63095,-3.096 5.47553,-6.88 z"
     id="path1024"
     inkscape:connector-curvature="0" />
  <path
     style="fill:#895321;fill-opacity:0.89430895;stroke-width:0.63999999"
     d="m 163.48317,183.35477 c -3.02595,-1.57054 -5.3274,-4.09794 -6.48013,-7.11631 -0.86994,-2.27791 -0.99853,-4.26189 -0.7085,-10.93115 0.29469,-6.776 0.73975,-9.47197 2.64294,-16.0096 3.3213,-11.40895 4.55512,-13.94327 8.1851,-16.81262 3.58734,-2.83563 6.79267,-3.54521 13.23978,-2.93095 14.24138,1.35687 24.74597,9.84983 28.25259,22.84221 4.11314,15.23958 0.55418,20.54177 -18.57179,27.66848 -10.98067,4.09162 -22.3113,5.49513 -26.55999,3.28994 z"
     id="path994"
     inkscape:connector-curvature="0" />
  <path
     inkscape:connector-curvature="0"
     id="path938"
     d="m 143.00075,342.77908 c -0.90909,-2.60778 -2.03255,-2.8859 -5.48633,-1.35813 -3.50813,1.55182 -3.78391,0.89237 -0.63214,-1.5116 3.07501,-2.34543 4.74021,-5.23671 4.74311,-8.23544 l 0.003,-2.4736 -1.65552,1.08474 c -2.39073,1.56646 -2.44234,0.94527 -0.17735,-2.13463 l 1.99066,-2.70689 -1.83889,0.43145 c -1.71008,0.40122 -1.59232,0.17674 1.6811,-3.20475 2.9474,-3.04469 3.2337,-3.52868 1.76,-2.97529 -2.42587,0.91094 -2.20823,0.30427 0.87122,-2.42851 l 2.63121,-2.335 -0.79828,-2.66445 c -0.72926,-2.43405 -0.64881,-3.04214 0.93034,-7.03196 2.10687,-5.32317 9.16826,-18.32983 12.79493,-23.5675 1.71875,-2.48223 2.95916,-5.19777 3.50809,-7.68 1.04538,-4.72719 1.30915,-5.23656 5.79962,-11.2 4.74722,-6.30441 6.05179,-9.64627 7.35876,-18.85064 0.59749,-4.20784 1.49534,-8.44154 1.99523,-9.40821 0.49988,-0.96667 0.90888,-2.02633 0.90888,-2.35481 0,-0.32847 -1.944,-0.79049 -4.32,-1.02672 -2.376,-0.23622 -5.20082,-0.57947 -6.27737,-0.76278 -1.78786,-0.30442 -2.15503,-0.0381 -4.23965,3.07494 -3.98668,5.95346 -15.50848,19.24845 -22.0472,25.44023 -17.35578,16.43489 -36.05333,29.27444 -58.795778,40.37489 -11.86436,5.79092 -17.80698,8.09124 -25.56441,9.89568 -10.28401,2.39213 -11.53219,2.50938 -12.83583,1.20575 -0.99627,-0.99628 -1.08372,-1.91278 -0.71675,-7.51241 0.57363,-8.75316 2.42651,-17.32994 5.92017,-27.40387 8.33089,-24.02199 15.38655,-38.41729 28.0123,-57.15205 7.51747,-11.15482 13.77074,-18.67887 23.995468,-28.87181 l 9.04976,-9.02159 -1.37044,-6.0133 c -0.75374,-3.30732 -1.48163,-6.13652 -1.61751,-6.28712 -0.13589,-0.15061 -1.32385,0.31541 -2.63992,1.03561 -1.31606,0.72018 -5.63232,2.10025 -9.591678,3.0668 -8.48292,2.0708 -12.70447,4.3677 -18.72132,10.18599 -3.67237,3.55116 -9.2334,6.78541 -11.66699,6.78541 -0.33896,0 -2.38856,1.53221 -4.55465,3.40493 -5.1817,4.47985 -15.84468,11.89588 -21.81766,15.17404 -4.40208,2.416 -4.96069,2.56807 -7.18126,1.95495 -2.09717,-0.57906 -2.59038,-0.4934 -3.8222,0.66384 -0.77788,0.73077 -1.76042,2.16423 -2.18343,3.18547 -0.9626,2.32392 -2.06535,2.4431 -1.49266,0.16132 0.56862,-2.26556 -0.43565,-1.59693 -3.03235,2.0189 -2.1132,2.94258 -3.262,3.28612 -2.66159,0.79592 0.29649,-1.22965 -0.0192,-1.08969 -2.16706,0.96064 -2.88104,2.75027 -4.04429,3.12789 -2.53376,0.82252 1.5653,-2.38894 1.3062,-2.8292 -1.31686,-2.2376 -3.04966,0.6878 -5.2151502,2.33038 -7.4776899,5.67201 -2.06443,3.04903 -2.82869,3.04914 -1.76584,2.3e-4 1.35428,-3.88486 0.99363,-4.92682 -2.006,-5.7957 -2.25451002,-0.65305 -2.44618002,-0.82012 -1.12000002,-0.97624 13.48157992,-1.58713 14.06048992,-1.69758 13.35481992,-2.54786 -0.57534,-0.69323 -0.19926,-0.85736 1.96459,-0.85736 1.62111,0 2.5202,-0.25231 2.28059,-0.64 -0.23837,-0.38569 0.61591,-0.64 2.14989,-0.64 1.39998,0 3.00098,-0.17481 3.55777,-0.38847 1.81406,-0.69613 1.06747,-1.53106 -1.38766,-1.55188 -2.2883,-0.0194 -2.34043,-0.0661 -1.12,-1.00309 0.704,-0.5405 5.096,-3.28507 9.76,-6.09905 4.664,-2.81398 8.48,-5.35122 8.48,-5.63832 0,-0.2871 2.952,-2.61365 6.56,-5.17011 3.608,-2.55646 7.20757,-5.23363 7.99904,-5.94926 1.31858,-1.19222 1.35475,-1.3943 0.43203,-2.41389 -0.56533,-0.62468 -0.9158,-1.9095 -0.79904,-2.92933 0.24936,-2.17816 3.62993,-4.11632 19.32961,-11.08218 5.72187,-2.53876 11.80567,-5.74451 13.92446,-7.33723 3.19842,-2.40429 5.61773,-3.5786 12.073527,-5.86036 0.672221,-0.23759 -0.57373,-1.7001 -4.159997,-4.88309 -2.8158,-2.49916 -7.27963,-6.74072 -9.91963,-9.4257 l -4.8,-4.88176 -5.44,1.83935 c -5.6544,1.91184 -16.65078,3.26317 -18.63293,2.28978 -0.72441,-0.35574 -1.7984,0.14796 -3.59566,1.68634 -2.58967,2.21667 -3.54181,2.34987 -2.97133,0.41568 0.22858,-0.77502 0.0533,-0.71557 -0.65623,0.22257 -0.53246,0.704 -1.40349,1.856 -1.93562,2.56 l -0.96752,1.28 -0.0376,-1.28 c -0.0316,-1.07625 -0.33772,-0.92344 -1.92314,0.96 l -1.88557,2.24 -0.0172,-1.76 c -0.01,-0.968 -0.11613,-1.76 -0.23702,-1.76 -1.34588,0 -8.1149,2.92581 -9.35906,4.04531 -3.43213,3.08825 -3.68667,3.18947 -5.25605,2.09024 -0.79744,-0.55855 -1.31381,-1.03955 -1.14749,-1.06888 0.16632,-0.0293 0.96507,-0.12629 1.77499,-0.21545 0.80993,-0.0892 1.96192,-0.66011 2.56,-1.26878 1.02696,-1.04514 0.98956,-1.08268 -0.67259,-0.67518 -1.35179,0.33142 -1.76,0.20013 -1.76,-0.56608 0,-0.54867 0.504,-1.28052 1.12,-1.62634 1.03378,-0.58036 1.03763,-0.6605 0.05,-1.04108 -0.58849,-0.22678 -1.69316,-0.0788 -2.45481,0.32881 -2.03337,1.08823 -2.49192,0.0954 -0.64678,-1.40043 1.29457,-1.04947 2.14674,-1.2136 4.60663,-0.88729 1.66002,0.22022 4.33716,0.0683 5.94919,-0.33765 2.42188,-0.60983 2.86528,-0.94501 2.55274,-1.92974 -0.33087,-1.0425 -0.11271,-1.14569 1.7424,-0.8242 1.16634,0.20212 2.52136,0.49318 3.01115,0.64678 0.72754,0.22815 0.74248,0.10088 0.0816,-0.69539 -0.69559,-0.83813 -0.52369,-0.97465 1.22725,-0.97465 1.19445,0 1.87262,-0.26456 1.64059,-0.64 -0.2393,-0.38719 0.64825,-0.64 2.24692,-0.64 1.9028,0 3.44203,-0.55012 5.49898,-1.96534 4.90078,-3.37182 11.05805,-5.07466 18.34942,-5.07466 6.23158,0 6.38489,-0.0362 8.14468,-1.92001 2.51061,-2.68762 4.3666,-2.46099 10.57961,1.29185 5.19963,3.14073 6.463007,4.37178 19.804608,19.2978 1.04732,1.1717 2.91932,3.75074 4.16,5.73121 4.11585,6.57005 10.82125,13.53563 15.5139,16.11585 2.36397,1.29982 4.48965,2.3633 4.72374,2.3633 0.23409,0 0.25638,-1.04285 0.0495,-2.31745 -0.55797,-3.43845 0.7041,-12.07945 2.54331,-17.41314 0.8896,-2.57982 1.51384,-4.79419 1.38722,-4.92082 -0.12663,-0.12663 -3.48176,-1.37555 -7.45584,-2.77539 -8.33872,-2.93724 -13.94835,-6.05771 -15.40644,-8.57014 -0.66468,-1.14531 -2.06025,-2.10424 -4.00878,-2.75454 -5.07242,-1.69287 -12.81865,-9.72744 -13.719111,-14.22976 -0.28713,-1.43565 -0.82172,-2.01276 -2.10154,-2.26873 -2.349567,-0.46983 -11.218377,-9.55476 -14.261267,-14.60839 -6.17418,-10.254057 -10.10302,-22.740347 -10.12094,-32.165427 -0.0105,-5.51312 2.10794,-9.7915 5.14942,-10.3998 l 1.87546,-0.37509 -1.90739,-2.17241 c -1.04907,-1.19482 -2.09597,-2.92372 -2.32644,-3.84199 -0.76615,-3.05259 0.28371,-33.495016 1.33158,-38.611169 1.79127,-8.7458027 5.39147,-13.9695283 10.35148,-15.0195183 2.62672,-0.55606 7.58556,1.13705 13.882708,4.7400036 9.1335,5.2257857 13.71909,10.3833247 21.35965,24.0237437 6.89397,12.30758 11.99839,23.36059 14.92576,32.32 3.49154,10.6861 5.345,15.2525 13.79864,33.996036 6.90556,15.311151 9.9127,21.447751 12.21478,24.926431 l 1.57893,2.38592 3.74525,-1.616 c 2.47685,-1.06871 3.86871,-2.07597 4.10977,-2.97418 0.63093,-2.35088 0.41642,-8.4824 -0.60498,-17.29273 -0.9718,-8.382467 -0.96566,-8.571357 0.3989,-12.289397 0.76222,-2.07684 2.11949,-4.56312 3.01614,-5.52506 1.50655,-1.61624 1.55257,-1.83483 0.60634,-2.8804 -0.76284,-0.84293 -0.85719,-1.42937 -0.37,-2.29992 0.6042,-1.07966 0.51936,-2.15648 -1.03392,-13.12188 -0.0663,-0.46815 -0.50227,-1.08708 -0.96879,-1.37541 -0.46652,-0.28833 -0.68168,-0.95824 -0.47812,-1.48869 0.20461,-0.5332 -0.19305,-1.4741 -0.88932,-2.10421 -0.69267,-0.62686 -1.1145,-1.51735 -0.93741,-1.97886 0.1771,-0.46151 -0.38874,-1.3048 -1.25743,-1.87399 -1.79534,-1.17635 -2.01625,-1.97881 -0.62786,-2.28074 0.72546,-0.15775 0.34528,-1.16349 -1.6,-4.23265 -1.40335,-2.21415 -2.55155,-4.1712 -2.55155,-4.349 0,-0.1778 0.94373,-0.14623 2.09719,0.0702 1.57063,0.29465 2.51996,0.0609 3.78095,-0.931 2.42148,-1.90473 3.40693,-1.65855 1.88977,0.4721 -0.98845,1.38815 -1.19638,2.41432 -0.9147,4.51436 0.25612,1.90945 0.61861,2.62034 1.21873,2.39005 1.07903,-0.41406 2.09943,1.34323 1.68973,2.90996 -0.20119,0.76931 0.0286,1.1891 0.65101,1.1891 0.64661,0 1.10077,0.92557 1.38536,2.82331 0.23286,1.55282 0.79619,2.96637 1.25184,3.14122 1.18653,0.45532 2.95011,7.26361 2.95011,11.38889 0,3.43465 0.0481,3.52683 2.25624,4.3253 4.05643,1.46683 4.48278,2.86496 4.30952,14.13217 -0.11379,7.399116 -0.54312,11.917527 -1.67512,17.629117 -0.83716,4.224 -1.39903,7.896 -1.24861,8.16 0.15044,0.264 0.65534,0.48 1.122,0.48 0.55071,0 1.00623,-1.26255 1.29797,-3.59751 0.61654,-4.93465 1.84771,-8.15206 4.50424,-11.771 2.03049,-2.766071 7.5257,-7.048121 9.0098,-7.020721 0.32118,0.006 -0.34216,0.60396 -1.4741,1.32895 -2.30189,1.47436 -4.66194,4.893191 -4.66194,6.753421 0,6.77112 13.26845,5.44554 16.96068,-1.69444 1.30255,-2.518871 1.21216,-3.473401 -0.51954,-5.486621 -1.23651,-1.43753 -1.99693,-1.71774 -4.64,-1.70985 -2.45271,0.007 -2.80256,-0.10306 -1.56114,-0.4926 3.29912,-1.035206 10.14891,-0.585726 15.44514,1.01351 0.78371,0.23664 1.15127,-0.25009 1.46939,-1.945846 0.31125,-1.65911 -0.10828,-3.92287 -1.57516,-8.49937 -1.09967,-3.43086 -2.86319,-9.68453 -3.91892,-13.89703 -2.35118,-9.38154 -2.93534,-10.80247 -5.88765,-14.32146 -2.54341,-3.03159 -2.95883,-4.59231 -1.2128,-4.55643 1.38536,0.0285 3.96268,2.19454 5.82151,4.8926 1.75614,2.54899 4.57849,9.96018 4.57849,12.02258 0,0.85194 0.88437,4.18865 1.96527,7.41491 2.54195,7.58722 3.69637,13.7551 3.3158,17.71579 l -0.30418,3.165606 2.85546,1.67341 c 1.5705,0.92038 4.49531,3.444661 6.49958,5.609511 3.48386,3.76299 3.74844,3.91842 6.0161,3.53447 4.17455,-0.70682 10.52196,-0.3126 16.77197,1.04168 3.34397,0.7246 8.23997,1.53779 10.87997,1.80711 6.6378,0.67713 11.533,2.65013 14.372,5.79262 2.1932,2.42754 2.4773,3.78856 0.7903,3.78519 -0.4193,-6.4e-4 -2.4014,-1.11501 -4.4048,-2.47593 -3.0275,-2.05666 -4.5402,-2.60378 -8.96,-3.24069 -14.33456,-2.06571 -18.38003,-2.73065 -21.4633,-3.52786 -4.1596,-1.07549 -8.84839,-0.21451 -8.12938,1.49278 1.76762,4.19722 2.82156,9.0079 2.72763,12.45024 -0.0813,2.97782 -0.17057,3.31634 -0.3649,1.38298 -0.46661,-4.6423 -4.29413,-6.83286 -7.73179,-4.42502 -5.2054,3.646 -6.87956,14.01521 -2.63002,16.28949 2.82041,1.50944 7.57932,-0.66656 8.61852,-3.9408 0.22695,-0.71506 0.56534,-1.14743 0.75197,-0.9608 0.65147,0.65147 -2.94929,5.93244 -5.89855,8.65098 -3.30844,3.04962 -7.01416,4.91143 -11.06483,5.55916 -2.05154,0.32805 -2.69282,0.71594 -2.69282,1.6288 0,1.69074 1.35978,1.54178 9.64833,-1.05695 7.63224,-2.39297 18.04934,-4.14485 24.64619,-4.14485 3.67165,0 4.12455,0.15788 5.64855,1.96911 0.9113,1.083 1.6569,2.307 1.6569,2.72 0,0.52589 1.9741,0.75089 6.5882,0.75089 5.2803,0 6.9392,0.23 8.3565,1.15868 0.9726,0.63726 2.7765,1.22317 4.0088,1.302 1.2322,0.0788 2.4785,0.52852 2.7695,0.99933 0.2909,0.4708 0.9223,0.71582 1.403,0.54448 1.105,-0.39386 3.2616,0.67904 2.8155,1.40074 -0.1839,0.29755 0.888,0.66795 2.3821,0.82311 1.9462,0.20212 3.1981,-0.0511 4.4152,-0.89311 2.266,-1.56759 2.6912,-1.48115 1.5184,0.30871 -1.0857,1.65696 -1.3179,3.86652 -0.6356,6.04839 0.4366,1.39618 0.2718,1.36475 -4.2637,-0.81312 -3.8171,-1.83291 -4.7574,-2.07964 -4.9248,-1.29232 -0.2804,1.31874 -0.9683,1.22326 -2.3735,-0.32946 -0.6483,-0.71641 -1.5299,-1.16784 -1.9591,-1.00316 -0.4291,0.16467 -1.2465,-0.21585 -1.8164,-0.8456 -0.6621,-0.73157 -1.6082,-1.03568 -2.6202,-0.84223 -0.9203,0.17592 -1.5839,0.003 -1.5839,-0.41183 0,-0.87443 -13.2995,-0.98649 -14.6627,-0.12354 -0.5555,0.35167 -1.3487,0.29297 -2.0622,-0.15263 -0.9612,-0.60026 -1.5181,-0.3836 -3.25724,1.26709 -4.2142,3.99995 -5.51135,4.3401 -18.09783,4.74573 -6.336,0.2042 -12.98884,0.72281 -14.78409,1.15246 l -3.2641,0.78121 -1.0559,3.79787 c -0.58075,2.08883 -1.05591,3.96496 -1.05591,4.16918 0,2.10261 44.91377,17.13364 62.07997,20.77595 10.8055,2.29271 15.1765,3.64822 27.10335,8.4052 22.9657,9.15977 28.5564,13.08073 36.8256,25.82687 2.4746,3.81444 2.9436,5.05958 3.157,8.38129 0.2442,3.79996 0.1855,3.96973 -2.2567,6.53702 -3.0433,3.19919 -9.1295,6.14243 -15.4285,7.46106 -8.6986,1.82098 -21.5245,3.62342 -28.28075,3.97434 -6.4746,0.33629 -6.8087,0.288 -9.1484,-1.32234 -1.3356,-0.91925 -2.5405,-1.67137 -2.6775,-1.67137 -0.137,0 -0.3402,0.76301 -0.4516,1.69559 -0.1245,1.04241 -1.149,2.46003 -2.6596,3.68 -2.4115,1.94765 -2.6051,1.98836 -10.4494,2.19766 -5.7986,0.15471 -9.3402,-0.0827 -12.9029,-0.86497 -6.35664,-1.39574 -16.20508,-5.03896 -20.27057,-7.49867 -4.887,-2.95675 -11.05735,-8.05064 -12.29991,-10.15412 -0.71093,-1.20352 -1.93958,-2.10761 -3.39787,-2.50028 -3.98821,-1.07391 -11.24841,-6.19415 -13.40976,-9.45719 -1.09003,-1.64564 -2.14597,-3.64591 -2.34654,-4.44505 -0.2115,-0.84264 -0.85236,-1.45297 -1.52567,-1.45297 -2.06163,0 -6.93253,-6.43866 -10.65162,-14.08 -1.97018,-4.048 -3.68168,-7.47457 -3.80331,-7.61459 -0.12164,-0.14001 -2.45859,0.76194 -5.19323,2.00436 -5.40287,2.45467 -12.67015,4.33023 -16.77843,4.33023 -1.42651,0 -2.59365,0.14843 -2.59365,0.32984 0,0.18142 1.06652,1.93614 2.37004,3.8994 2.47669,3.73016 10.3937,9.8246 17.22437,13.25916 3.44029,1.72983 10.51537,6.44253 18.97516,12.63934 6.50077,4.76183 12.58873,12.52747 12.61374,16.08974 0.0125,1.78706 -0.32453,2.5601 -1.35732,3.11283 -1.32031,0.70661 -1.35862,1.02228 -0.98049,8.07809 0.45604,8.50959 -0.54556,14.67977 -3.08688,19.01621 -1.02154,1.74311 -1.59863,3.70308 -1.59863,5.42939 0,1.63259 -0.25246,2.54551 -0.63806,2.3072 -0.42409,-0.2621 -0.42409,0.16846 0,1.28389 0.84524,2.22317 0.81071,2.4381 -0.32194,2.00347 -1.131,-0.43401 -1.16468,-0.15381 -0.33094,2.75328 0.71212,2.48303 0.4494,3.11878 -0.84492,2.04459 -1.28349,-1.06521 -2.02576,5.65326 -0.95249,8.62132 0.85642,2.3684 0.20358,5.3767 -1.27325,5.86716 -0.64163,0.21308 -0.73877,-0.26872 -0.40878,-2.02771 0.45764,-2.43942 -0.43639,-3.18211 -1.51354,-1.25734 -0.80763,1.44315 -2.23386,0.43011 -1.805,-1.28209 0.33864,-1.35196 0.32887,-1.35115 -0.84493,0.0699 -0.68062,0.82398 -1.04439,1.98505 -0.85219,2.72 0.4408,1.68564 -0.56062,1.64333 -1.6299,-0.0689 -0.74968,-1.20043 -0.62575,-1.62258 1.11063,-3.78327 1.07496,-1.33765 2.25998,-3.8256 2.63337,-5.5288 0.37339,-1.7032 0.83173,-3.60072 1.01855,-4.21672 0.26203,-0.86404 -0.0358,-1.12 -1.30348,-1.12 -2.1506,0 -2.07307,-0.48319 0.43687,-2.72258 1.1546,-1.03015 1.58171,-1.70049 0.96,-1.50669 -1.62946,0.5079 -1.37072,-0.60061 0.48,-2.05639 1.79046,-1.40837 2.09598,-2.18449 0.64,-1.62578 -1.39925,0.53694 -1.18234,-0.42421 0.73127,-3.24036 1.37784,-2.02767 1.55575,-2.70593 0.96,-3.65988 -1.12334,-1.79877 -0.85383,-12.33131 0.48079,-18.78832 0.65479,-3.168 1.15395,-5.78115 1.10924,-5.80699 -1.70253,-0.98399 -9.96396,-7.74513 -14.62255,-11.96708 -6.21158,-5.62938 -6.22187,-5.63537 -6.61586,-3.85204 -1.22361,5.53838 -2.55974,9.22262 -4.51754,12.45657 -1.21527,2.00742 -3.87296,8.73124 -5.94481,15.04 -5.58162,16.99602 -6.32028,18.7479 -8.20744,19.46539 -1.20917,0.45973 -2.01065,0.36604 -3.12721,-0.36557 -1.71755,-1.12537 -1.70487,-1.14081 -7.60735,9.26972 -1.69638,2.992 -3.59532,6.016 -4.21986,6.72 -0.62454,0.704 -3.11427,5.58134 -5.53274,10.83854 -2.41845,5.2572 -4.74116,9.6732 -5.16156,9.81334 -0.49923,0.1664 -0.76437,-0.55383 -0.76437,-2.07632 0,-1.39109 -0.25808,-2.1716 -0.64,-1.93556 -0.352,0.21755 -0.64,1.81855 -0.64,3.55777 0,1.77287 -0.29394,3.16223 -0.669,3.16223 -0.42357,0 -0.50773,0.85967 -0.22941,2.34324 0.38223,2.03746 0.29745,2.28869 -0.64966,1.92525 -0.9935,-0.38125 -1.07179,0.22864 -0.89059,6.93802 0.10926,4.0458 0.0108,7.35544 -0.21873,7.35474 -0.22957,-6.4e-4 -0.71991,-0.86905 -1.08965,-1.92969 z m -65.483148,-41.77505 8.52981,-3.86854 -2.85426,-1.08345 c -9.11632,-3.46049 -26.00435,-19.2067 -28.3742,-26.45579 -0.54461,-1.66588 -0.87831,-0.99254 -3.69492,7.45539 -1.70293,5.10767 -3.09624,9.98835 -3.09624,10.84597 0,5.33986 8.18451,14.14311 15.52345,16.69699 3.46391,1.20541 3.29691,1.24835 13.96636,-3.59057 z m 18.84734,-9.51439 c 3.919898,-2.16584 8.323118,-4.69639 9.784948,-5.62345 l 2.65786,-1.68557 -2.94999,-1.65105 c -6.084351,-3.40532 -36.303478,-30.5384 -39.823958,-35.75705 l -1.67398,-2.48147 -2.27608,4.92824 c -6.93712,15.02046 -7.5459,17.92127 -4.75357,22.65032 4.11269,6.96517 15.04614,17.02583 23.47464,21.60072 5.33097,2.89358 7.15959,2.66081 15.56013,-1.98069 z M 114.9429,279.93569 c 5.49414,-3.73006 12.87824,-9.46603 13.15399,-10.21801 0.62169,-1.69536 -9.63802,-12.78592 -22.3091,-24.11572 C 91.609852,232.92481 86.686022,229.0369 79.432082,224.79119 l -2.99571,-1.75339 -4.14067,6.97565 c -6.78603,11.43219 -6.84358,11.57554 -5.83935,14.54475 1.02578,3.03296 9.35765,11.21018 26.85144,26.35303 11.044208,9.56002 13.977028,11.63619 16.515108,11.69124 0.63532,0.0138 2.93932,-1.18627 5.12,-2.66678 z m 19.78845,-15.34944 c 6.01511,-5.1171 18.29761,-17.69613 18.78818,-19.24176 0.47604,-1.49989 -2.29597,-10.03177 -5.49733,-16.92 -2.63426,-5.66804 -4.45297,-7.70917 -16.61407,-18.64594 -9.6692,-8.69575 -13.66115,-10.68673 -27.22034,-13.57612 l -5.760001,-1.22742 -3.078007,3.34626 c -3.96784,4.31362 -10.16383,12.20945 -14.71486,18.7518 l -3.59329,5.16555 2.69308,1.30882 c 9.30643,4.52288 41.392258,33.1269 47.813078,42.6246 0.88,1.30171 1.8086,2.3687 2.06356,2.37111 0.25496,0.003 2.55896,-1.7782 5.12,-3.9569 z m 147.63245,-9.51918 c 4.0431,-0.932 6.464,-2.83239 6.464,-5.07411 0,-3.22366 -8.07,-12.96764 -15.5795,-18.81129 -5.3551,-4.16715 -18.16872,-13.06925 -20.73919,-14.4083 -0.91456,-0.47643 0.89238,2.49707 4.96,8.16225 3.51929,4.90144 6.39869,9.30775 6.39869,9.79181 0,0.48405 3.456,4.32709 7.68,8.54009 4.224,4.213 7.68,7.94799 7.68,8.29999 0,0.352 -3.3883,-2.7395 -7.5296,-6.86999 -4.1413,-4.1305 -7.9185,-7.51 -8.3939,-7.51 -0.4753,0 -3.7478,-2.304 -7.27231,-5.12 -3.52447,-2.816 -6.98951,-5.12 -7.70008,-5.12 -1.21633,0 -1.26837,0.27894 -0.88911,4.76562 0.23579,2.78934 1.09584,6.49667 2.07394,8.93993 0.9191,2.29587 1.55991,4.50786 1.42402,4.91553 -0.53223,1.59667 -3.88761,-8.7319 -4.45068,-13.70008 l -0.59398,-5.241 -4.29416,-4.03888 c -3.91731,-3.68443 -12.27376,-9.73239 -13.4207,-9.7132 -0.2604,0.004 -1.08281,0.94937 -1.82757,2.10001 l -1.35412,2.09209 3.69381,6.24181 c 2.96379,5.00822 3.78217,7.00314 4.14091,10.09405 0.38284,3.29856 0.78245,4.17969 2.7803,6.13049 9.88505,9.6522 24.07343,15.01006 42.65323,16.10678 0.704,0.0415 2.5472,-0.21656 4.096,-0.5736 z m 33.78765,-6.06665 c 17.8599,-2.62189 24.3878,-4.68703 28.8172,-9.11643 2.1093,-2.10928 2.2255,-2.44409 1.96,-5.64625 -0.2254,-2.71805 -0.8857,-4.31146 -3.2767,-7.90712 -1.6469,-2.4767 -3.153,-4.5031 -3.347,-4.5031 -0.194,0 -0.1812,0.2775 0.028,0.61666 0.523,0.84614 -1.9625,3.22334 -3.3701,3.22334 -0.6295,0 -3.9965,-1.73886 -7.4822,-3.86413 -5.2554,-3.20421 -11.3362,-6.37587 -12.224,-6.37587 -0.1144,0 0.2071,1.368 0.7145,3.04 1.225,4.03729 1.1753,7.21395 -0.1425,9.0953 -1.0753,1.53521 -1.0595,1.55792 4.9563,7.13281 3.3192,3.07598 5.8765,5.75122 5.6827,5.94497 -0.1937,0.19376 -3.2187,-2.33449 -6.7221,-5.61833 -5.8921,-5.52287 -9.2381,-7.78965 -9.2381,-6.2584 0,0.34243 -1.8908,1.72866 -4.2017,3.0805 -4.13695,2.41995 -4.19535,2.49217 -3.78525,4.67841 0.4833,2.57614 1.548,4.63239 3.90655,7.54474 0.9264,1.144 1.384,2.08 1.0169,2.08 -1.178,0 -5.12585,-6.0121 -5.59695,-8.52357 -0.2662,-1.41909 -1.0221,-2.79006 -1.8177,-3.29702 -1.9563,-1.24654 -21.37,-9.93941 -22.1975,-9.93941 -0.3816,0 -1.992,0.89318 -3.5787,1.98485 l -2.8849,1.98485 4.723,4.35191 c 2.5976,2.39356 5.9983,6.00499 7.557,8.02542 1.5588,2.02043 4.5636,5.07289 6.6774,6.78324 3.773,3.05288 3.9246,3.10973 8.2925,3.10973 2.4472,0 9.43695,-0.73219 15.53295,-1.6271 z M 160.8067,236.70752 c 2.84459,-3.784 5.77904,-8.12944 6.52099,-9.65653 1.24615,-2.56482 1.29131,-3.12592 0.59225,-7.35889 -0.41622,-2.5203 -1.44627,-5.75892 -2.28899,-7.19691 -2.02793,-3.46041 -8.84491,-9.77695 -13.21052,-12.24075 -1.94962,-1.1003 -5.04242,-3.74782 -6.98561,-5.97987 -10.50491,-12.06651 -15.2111,-15.34756 -22.70355,-15.82839 -6.14707,-0.3945 -7.6378,0.39794 -16.35887,8.69595 l -7.132221,6.78627 6.633801,1.40395 c 12.3819,2.62046 17.79246,5.40745 26.43,13.61418 2.84009,2.69844 6.39406,5.86572 7.89769,7.0384 1.50365,1.17268 4.02773,3.9453 5.60909,6.16137 3.43966,4.82025 5.50454,9.57363 8.96661,20.64122 0.13763,0.44 0.38684,0.8 0.5538,0.8 0.16695,0 2.63095,-3.096 5.47553,-6.88 z m 97.9916,-8.25114 c -2.47329,-3.46988 -5.58444,-7.96704 -6.91369,-9.9937 -2.23646,-3.40983 -3.91549,-4.68947 -22.4975,-17.14599 -11.04438,-7.40363 -20.22121,-13.32064 -20.39296,-13.14887 -0.37949,0.37949 -0.079,0.75833 10.56297,13.31871 6.5979,7.78727 9.36104,10.54919 12.40185,12.39638 2.15189,1.3072 6.47994,4.63751 9.61791,7.40067 3.77829,3.32702 6.23044,5.02394 7.25988,5.02394 0.98622,0 3.84235,1.84699 7.81276,5.05233 3.69338,2.98169 6.33768,4.71484 6.45188,4.22885 0.1066,-0.4529 -1.8299,-3.66245 -4.3031,-7.13232 z m -26.93052,3.47056 c 0,-1.25978 -4.39653,-9.09245 -9.40028,-16.74711 -5.30794,-8.12003 -16.56722,-22.79231 -17.49045,-22.79231 -0.2599,0 -0.82481,0.42446 -1.25536,0.94324 -0.636,0.76634 -0.36388,1.69657 1.45094,4.96 2.67264,4.80597 7.17849,15.35491 7.79156,18.24132 0.80606,3.79502 4.00969,9.46939 6.73766,11.93394 1.48495,1.34157 4.46977,3.27796 6.63293,4.30308 3.63783,1.72398 3.99304,1.78243 4.733,0.77882 0.44,-0.59678 0.8,-1.32621 0.8,-1.62098 z m 76.03077,-0.90449 c 2.0071,-1.27879 3.8551,-2.64679 4.1066,-3.04 0.5427,-0.84833 -4.0912,-5.75992 -9.09735,-9.64245 -1.984,-1.53871 -5.0538,-3.17793 -7.035,-3.75656 l -3.515,-1.0266 -1.925,1.81307 c -1.563,1.47207 -2.3517,1.75808 -4.1936,1.52067 -2.1701,-0.27972 -2.3464,-0.14932 -4.0634,3.00548 -0.9872,1.81383 -1.6944,3.36699 -1.5715,3.45145 1.3697,0.9414 21.6381,9.90045 22.4942,9.94292 0.6329,0.0314 2.7929,-0.98919 4.80005,-2.26798 z m 9.6262,-6.31493 c 0.1193,-1.408 -0.1016,-4.00164 -0.4909,-5.76364 -0.6095,-2.75847 -1.0843,-3.43634 -3.4169,-4.87818 -2.8481,-1.76043 -8.64495,-4.12116 -9.06235,-3.69058 -0.1346,0.13882 0.7358,2.26645 1.9342,4.72806 1.19845,2.46161 2.17905,5.04271 2.17905,5.73578 0,2.02 5.1281,6.83916 7.0398,6.61564 1.3653,-0.15961 1.632,-0.56291 1.8171,-2.74708 z m -55.94495,-7.22788 c -7.85465,-7.66269 -13.06884,-11.9409 -28.05283,-23.01722 -10.1227,-7.48281 -18.66912,-13.44181 -18.99205,-13.24223 -0.32292,0.19958 -0.58714,0.62592 -0.58714,0.94741 0,0.3215 5.832,5.79244 12.96,12.15767 10.94617,9.7748 15.27512,13.12332 27.85889,21.54937 8.19443,5.48693 15.05133,10.22298 15.23773,10.52456 0.1864,0.30157 0.5379,0.53578 0.7812,0.52044 0.2432,-0.0154 -3.8994,-4.26333 -9.2058,-9.44 z m 14.8566,7.70788 c 1.9127,-1.20966 3.384,-2.88746 4.705,-5.36564 l 1.9222,-3.60564 -2.0779,-1.57846 c -4.553,-3.4586 -18.2669,-9.81871 -22.3843,-10.38115 -2.55533,-0.34907 -2.8171,-0.23935 -4.01362,1.68237 l -1.28,2.05579 9.60002,9.45978 c 5.28,5.20289 9.8578,9.46725 10.1729,9.47637 0.3151,0.009 1.8252,-0.77542 3.3557,-1.74342 z m 62.69025,-2.40649 c 0.8935,-3.5599 -6.0902,-9.71642 -16.6988,-14.72095 -6.6743,-3.14856 -19.16535,-8.23906 -22.79435,-9.28944 -2.4544,-0.71039 -3.3481,0.10726 -2.8076,2.56844 0.5928,2.69905 6.4095,8.29769 8.6419,8.3179 0.88,0.008 3.61605,1.03754 6.08005,2.28793 2.464,1.25039 5.9822,2.80827 7.8183,3.46196 1.836,0.65368 5.861,2.72574 8.9444,4.60458 6.6105,4.02813 7.1169,4.27223 8.9851,4.33108 1.0098,0.0318 1.5458,-0.42533 1.831,-1.5615 z m -34.05935,-8.43065 c -1.4574,-2.87132 -3.4811,-5.71431 -4.9821,-6.99915 -2.3749,-2.03282 -2.8124,-2.16371 -7.2327,-2.16371 -6.0385,0 -6.5634,0.90905 -2.7617,4.78266 2.0003,2.03822 3.6679,3.03602 6.3266,3.78549 2.2162,0.62473 4.9697,2.09461 7.1304,3.8064 1.936,1.53376 3.62215,2.52655 3.74695,2.20619 0.1249,-0.32035 -0.87755,-2.7584 -2.22745,-5.41788 z m -93.03952,2.96091 c 0,-2.53322 -8.95913,-22.38349 -10.08714,-22.34954 -0.26007,0.008 -1.15105,0.53584 -1.97995,1.17337 l -1.50709,1.15913 3.52244,7.32738 c 3.35498,6.97902 8.0844,14.00589 9.42662,14.00589 0.34382,0 0.62512,-0.5923 0.62512,-1.31623 z m 14.06051,-3.7567 c 0.77473,-1.87036 0.65714,-2.05378 -7.43667,-11.6008 -4.52311,-5.33522 -8.71574,-10.31823 -9.31696,-11.07335 -0.88142,-1.10703 -1.31525,-1.23547 -2.24,-0.66318 -0.63078,0.39037 -1.14688,0.86072 -1.14688,1.04524 0,0.18452 2.62157,3.60914 5.82569,7.61026 3.20413,4.00112 7.32242,9.51493 9.15175,12.25291 1.82933,2.73798 3.56228,4.83216 3.85098,4.65373 0.2887,-0.17843 0.87914,-1.1796 1.31209,-2.22481 z m 63.99311,0.94106 1.4767,-1.57188 -3.1252,-3.499 c -4.1027,-4.59354 -10.3825,-7.62009 -15.7512,-7.59128 -3.8248,0.0205 -10.0939,1.25329 -10.0939,1.98488 0,0.23275 2.8309,1.64892 6.2909,3.14704 3.46,1.49814 8.428,4.14747 11.04,5.8874 5.4993,3.66326 7.9,4.05134 10.1627,1.64284 z m -35.17362,-10.96591 c 0,-1.16617 -4.18635,-4.29194 -14.17818,-10.58626 -4.87912,-3.0736 -12.21551,-7.94528 -16.30309,-10.82596 -5.74052,-4.04559 -7.55795,-5.03874 -7.98554,-4.3638 -1.34279,2.11951 -2.80762,0.88676 28.54681,24.02385 l 7.04,5.19496 1.44,-1.32406 c 0.792,-0.72824 1.44,-1.68167 1.44,-2.11873 z m 36.89022,1.01778 c 2.1968,0 4.1321,-0.22312 4.3007,-0.49581 0.1685,-0.2727 0.1081,-1.46541 -0.1343,-2.65047 -0.5743,-2.80805 -3.481,-4.45675 -7.2883,-4.13396 -3.0588,0.25933 -12.0121,2.77602 -12.0014,3.37347 0.014,0.78948 9.9284,4.98573 10.5211,4.45313 0.3344,-0.3005 2.4054,-0.54636 4.6022,-0.54636 z m -108.32909,-1.89983 c 16.90518,-4.32361 31.71834,-19.12775 36.33881,-36.31667 1.76175,-6.55398 1.89229,-16.81777 0.28275,-22.23004 -4.04623,-13.6059 -14.09938,-22.62132 -27.91464,-25.03314 -9.91169,-1.73035 -21.91251,1.06421 -31.29664,7.28788 -13.21661,8.76543 -21.93367,23.06917 -23.45251,38.48303 -0.68901,6.99238 -0.21571,8.29531 4.37058,12.03152 2.19479,1.78798 4.85453,4.09554 5.91053,5.12792 1.056,1.03237 2.99323,2.3819 4.30496,2.99896 2.47568,1.16461 6.85364,5.51844 6.9505,6.9122 0.0305,0.439 2.83851,3.30582 6.24,6.37072 l 6.18454,5.57254 3.57762,0.0275 c 1.96769,0.0151 5.79427,-0.53947 8.5035,-1.23238 z m 79.92509,-1.30017 c 2.0036,-0.70422 5.3044,-1.28385 7.3378,-1.28857 2.1084,-0.005 5.7522,-0.66455 8.483,-1.53574 l 4.787,-1.52717 -2.867,-0.75921 c -12.5237,-3.31634 -38.66176,-11.87657 -51.4792,-16.85942 -5.96871,-2.32037 -10.94512,-4.12592 -11.05869,-4.01235 -0.30628,0.30629 16.19721,11.61147 25.75087,17.63982 4.576,2.88744 9.04,5.92925 9.92,6.75957 1.35591,1.27936 3.89871,2.67508 5.14222,2.8225 0.1882,0.0223 1.981,-0.53543 3.984,-1.23943 z m 20.9538,-7.04 c -0.88,-0.28182 -2.176,-0.52088 -2.88,-0.53122 l -1.28,-0.0188 1.28,0.55004 c 0.704,0.30252 2,0.54157 2.88,0.53122 l 1.6,-0.0188 z m -4.6534,-1.02667 c -0.2126,-0.21266 -0.7646,-0.2354 -1.2266,-0.0505 -0.5106,0.2043 -0.3589,0.35595 0.3866,0.38666 0.6747,0.0278 1.0527,-0.12348 0.84,-0.33614 z m -63.18662,-5.61738 c 0,-0.13422 -1.008,-1.01288 -2.24,-1.95257 -1.232,-0.93969 -2.24,-1.43415 -2.24,-1.09881 0,0.33535 0.936,1.20915 2.08,1.94179 2.19411,1.40514 2.4,1.50033 2.4,1.10959 z m -73.67876,-43.67866 c 0.42168,-0.92548 0.68391,-1.76445 0.58273,-1.86437 -1.17881,-1.16417 -17.27303,-6.54578 -21.78396,-7.28415 -4.50514,-0.73743 -3.74519,0.91399 1.96526,4.27067 2.99798,1.76225 15.53703,6.44783 17.452,6.52145 0.5595,0.0215 1.36229,-0.71811 1.78397,-1.6436 z m 2.59928,-4.00352 c 0.67567,-1.26248 -0.56362,-2.24605 -11.72136,-9.30276 -5.04393,-3.19004 -24.36506,-12.83089 -27.71638,-13.82992 -2.33362,-0.69565 -2.81422,-0.66108 -3.74463,0.26933 -1.49833,1.49833 -0.87777,3.2575 2.72666,7.72951 4.18255,5.18929 7.58132,7.15525 14.941,8.64237 6.33903,1.28089 15.56946,4.13373 20.4342,6.31559 3.65054,1.63729 4.28661,1.65931 5.08051,0.17588 z m 2.36058,-4.42256 c -0.2147,-0.34739 -5.62493,-4.16549 -12.02273,-8.48469 -11.17045,-7.54121 -11.69597,-7.81719 -13.23406,-6.94979 -0.88092,0.49679 -1.70145,1.2053 -1.82339,1.57445 -0.12194,0.36916 2.15897,1.93792 5.06869,3.48613 5.48485,2.91841 16.29098,9.53801 19.00516,11.64214 1.35272,1.04868 1.67444,1.08563 2.47573,0.28435 0.50652,-0.50653 0.7453,-1.2052 0.5306,-1.55259 z m -4.66015,-9.26569 c -3.46552,-4.29485 -10.36607,-12.56459 -15.33455,-18.37718 l -9.03361,-10.568361 -9.20639,-5.233006 c -15.354778,-8.72781 -16.216918,-8.71909 -7.70665,0.0779 3.34109,3.453646 5.86026,6.597946 5.86026,7.314506 0,0.759261 2.02998,3.089791 5.12763,5.886801 2.82019,2.5465 6.69692,6.54816 8.61497,8.89257 2.79443,3.41563 5.78256,5.82645 15.03867,12.13322 6.35322,4.32886 11.74521,8.18438 11.98219,8.56783 0.29823,0.48252 0.51209,0.45354 0.69465,-0.0941 0.14507,-0.43522 -2.57166,-4.30528 -6.03717,-8.60014 z m 9.87731,4.54925 c -0.13662,-0.40987 -0.94441,-1.20187 -1.79509,-1.76001 l -1.54668,-1.01477 1.26176,1.7399 c 1.28281,1.76892 2.53184,2.39036 2.08001,1.03488 z m 2.58863,-3.6597 c -0.42289,-0.56929 -2.68253,-3.05108 -5.02143,-5.51508 -2.33889,-2.464 -8.97546,-9.664 -14.74795,-16 -7.49532,-8.227031 -13.3342,-13.881317 -20.42646,-19.780717 -12.92489,-10.751 -12.99487,-10.80292 -9.54096,-7.07954 1.62254,1.74914 7.111,8.22025 12.19657,14.38025 8.64025,10.465687 14.52947,16.415077 30.60216,30.914827 4.57812,4.13008 6.27001,5.30793 6.8879,4.79513 0.64201,-0.53284 0.65286,-0.90353 0.0502,-1.71487 z m 3.53996,-1.01487 c 1.11034,-0.84112 0.73766,-1.40705 -5.78164,-8.77964 -3.83267,-4.33432 -9.5991,-11.19257 -12.81431,-15.24057 -3.21521,-4.048011 -6.97099,-8.449167 -8.34618,-9.780357 l -2.50036,-2.42035 -1.71217,1.3468 c -0.94171,0.74074 -1.71218,1.58622 -1.71218,1.87884 0,0.29263 6.264,7.351027 13.92,15.685367 7.656,8.33431 14.496,15.83203 15.2,16.66158 1.49521,1.76187 2.13155,1.87197 3.74684,0.64833 z m -3.05011,-13.30021 c -8.32013,-15.932241 -22.75478,-48.752937 -22.7962,-51.832717 -0.0151,-1.1226 -0.14081,-1.23192 -0.56037,-0.48729 -0.90429,1.6049 -1.50287,6.94812 -1.72072,15.36 -0.11395,4.4 -0.25921,8.81323 -0.32278,9.80718 -0.0869,1.35846 0.59913,2.55032 2.76282,4.8 1.58313,1.64605 5.14354,5.872816 7.91202,9.392816 5.46493,6.948411 19.43138,23.360011 19.87962,23.360011 0.15218,0 -2.1673,-4.68 -5.15439,-10.4 z m 64.10345,8.64034 c 0.34993,-1.05096 -1.65535,-1.80118 -2.51544,-0.94108 -0.36807,0.36806 -0.46586,0.99825 -0.21731,1.40041 0.56547,0.91495 2.37653,0.61054 2.73275,-0.45933 z m -98.76706,-1.7376 1.87314,-1.53123 -2.62918,-3.40576 c -1.44604,-1.87316 -5.00055,-5.5565 -7.89893,-8.18518 l -5.26976,-4.77944 -4.59193,0.19164 c -2.52557,0.1054 -5.861958,-0.13924 -7.414198,-0.54365 -1.55225,-0.40441 -3.90226,-1.01501 -5.22226,-1.35688 -1.32,-0.341881 -2.4,-0.859811 -2.4,-1.150981 0,-0.29117 1.93776,0.008 4.30615,0.66467 4.11829,1.141971 13.573468,1.661121 14.441648,0.792921 0.78618,-0.786181 -1.44574,-3.829121 -6.27771,-8.558857 -2.697061,-2.64 -5.094178,-5.27289 -5.326918,-5.85085 -0.23275,-0.57797 -3.97228,-3.98885 -8.31008,-7.57975 -4.3378,-3.59091 -7.73923,-6.6766 -7.55872,-6.8571 0.1805,-0.18051 4.01761,2.71912 8.52691,6.4436 4.50929,3.72448 8.71093,6.77905 9.33697,6.78794 1.182297,0.0168 7.384918,2.9815 11.318068,5.40979 6.38279,3.940676 8.66622,5.075346 7.72604,3.839186 -3.92386,-5.159196 -13.51722,-16.112586 -17.396131,-19.862356 -4.637337,-4.48295 -12.507267,-10.09747 -16.433047,-11.72358 -5.09605,-2.11085 -7.58718,1.71915 -6.94041,10.67051 0.56009,7.75147 2.38256,13.86901 6.8752,23.078176 3.40071,6.970891 4.48248,8.533211 9.41705,13.600381 l 5.57498,5.72478 4.479998,0.0362 c 3.89064,0.0314 5.27984,0.40348 10.56,2.82805 3.344,1.53552 6.368,2.80472 6.72,2.82043 0.352,0.0157 1.4829,-0.6605 2.51312,-1.50267 z m 94.12687,-2.26274 c 0,-0.51836 -0.504,-1.03953 -1.12,-1.15816 -0.78582,-0.15134 -1.12,0.19422 -1.12,1.15816 0,0.96394 0.33418,1.3095 1.12,1.15816 0.616,-0.11863 1.12,-0.6398 1.12,-1.15816 z m 5.36298,-2.33281 c -0.55772,-0.672 -0.94378,-0.70788 -1.61578,-0.15017 -0.67201,0.55772 -0.70789,0.94378 -0.15017,1.61579 0.55771,0.672 0.94377,0.70788 1.61578,0.15017 0.67201,-0.55772 0.70788,-0.94378 0.15017,-1.61579 z M 127.15975,90.773083 c 1.87773,-1.64867 1.97444,-1.93214 1.3645,-4 -1.2733,-4.31681 -9.47442,-17.3511 -13.03138,-20.71112 l -1.9537,-1.84555 -3.07569,2.19696 c -1.88242,1.3446 -3.74731,3.43794 -4.8068,5.39563 l -1.7311,3.19866 10.3711,8.72415 c 5.70411,4.79829 10.47708,8.74475 10.60661,8.76992 0.12954,0.0251 1.14494,-0.75272 2.25646,-1.72865 z m 2.18973,-15.50558 c -0.20144,-5.07836 -0.39492,-5.73782 -2.91046,-9.92 -2.48648,-4.13388 -8.50565,-9.92 -10.31953,-9.92 -0.3545,0 -1.19559,0.792 -1.8691,1.76 -1.64899,2.37 -0.8383,5.3988 2.35539,8.8 3.04494,3.24278 6.18604,7.74507 9.33316,13.37771 2.30856,4.13182 2.50577,4.3182 3.04732,2.88 0.31845,-0.84574 0.4819,-3.98571 0.36322,-6.97771 z m -29.505971,-18.02884 -6.564247,-11.06902 -3.20717,-0.65107 c -3.29319,-0.66854 -9.2443,-3.76549 -9.2443,-4.81073 0,-0.32213 1.656,0.37853 3.68,1.55703 2.024,1.17849 4.86742,2.31575 6.3187,2.52724 l 2.6387,0.38451 1.73023,-3.99456 c 0.95162,-2.19701 2.18318,-4.49673 2.736797,-5.11049 0.93055,-1.03163 0.76974,-1.34654 -2.128927,-4.16917 -1.72453,-1.67929 -5.0075,-4.675459 -7.2955,-6.658149 -2.288,-1.982686 -4.016,-3.751861 -3.84,-3.931496 0.176,-0.179635 3.14479,2.12677 6.59732,5.125346 5.82282,5.057209 6.339247,5.367269 7.132497,4.282439 0.7266,-0.99369 1.732151,-1.16002 6.688451,-1.10638 l 5.83329,0.0631 -1.38614,-2.324899 c -0.76238,-1.27869 -3.50098,-5.16076 -6.08578,-8.62682 -2.69261,-3.610619 -4.699641,-6.938941 -4.699641,-7.793548 0,-0.820392 0.69456,-2.0379597 1.543461,-2.7057067 l 1.54346,-1.214087 -4.666118,-2.308856 c -2.56636,-1.2698696 -5.63692,-2.4837906 -6.82346,-2.6975906 -4.93555,-0.88936 -9.33851,4.3112836 -11.16034,13.1822543 -0.6329,3.081782 -1.10225,10.417204 -1.35256,21.139193 -0.37614,16.11155 -0.35703,16.46229 1.01796,18.68706 1.62931,2.63629 5.47248,5.93478 12.2176,10.48603 2.64,1.78133 6.384,4.67858 8.319997,6.43831 l 3.520001,3.1995 1.74999,-3.41522 1.74998,-3.41523 z m 30.775391,7.62884 c 1.34091,-6.30316 1.54939,-9.31504 0.80162,-11.58082 -0.91597,-2.77539 -1.62063,-3.34122 -4.76342,-3.82485 l -2.49068,-0.38329 0.36642,4.37074 c 0.20833,2.48487 0.10027,4.63689 -0.25043,4.98759 -0.39581,0.39581 0.3654,2.25241 2.12426,5.18107 1.50761,2.51031 2.91129,4.5744 3.11927,4.58688 0.20799,0.0125 0.69982,-1.48932 1.09296,-3.33732 z m -18.07646,-3.99196 c -0.3486,-2.32468 -0.16999,-3.00929 1.21433,-4.65446 l 1.62305,-1.92889 -1.37619,-3.11109 c -0.7569,-1.71111 -2.69907,-4.64339 -4.31593,-6.5162 -2.98492,-3.45742 -9.05109,-8.4374 -10.277691,-8.4374 -0.36999,0 -1.72339,2.1234 -3.007557,4.71867 l -2.33486,4.71867 5.613987,9.52133 c 3.087691,5.23673 6.023561,10.17571 6.524151,10.97552 l 0.91017,1.4542 2.91763,-2.00739 c 2.86256,-1.96949 2.90992,-2.05885 2.50891,-4.73296 z m 23.69299,1.85608 c -0.5046,-1.37727 -0.93774,-2.1871 -0.96255,-1.79963 -0.0627,0.97912 1.32699,4.85676 1.63145,4.5523 0.1367,-0.1367 -0.16431,-1.3754 -0.6689,-2.75267 z m -12.9671,-9.48696 -0.11945,-4.93129 -2.76055,-2.49669 c -1.5183,-1.37318 -3.12922,-2.5085 -3.57983,-2.52293 -0.45061,-0.0144 -2.52993,-0.74625 -4.62071,-1.62625 -2.09079,-0.88 -4.10547,-1.6 -4.47707,-1.6 -0.37159,0 0.85001,1.8 2.71467,4 1.86466,2.2 3.90376,5.296 4.53132,6.88 1.12515,2.83991 6.35358,7.81126 7.79108,7.40799 0.36938,-0.10363 0.58949,-2.26469 0.52054,-5.11083 z m 6.58114,-5.10713 c 0.57846,-1.50742 -9.28982,-20.272159 -15.20888,-28.920026 -5.95628,-8.702223 -14.6128,-13.6238907 -14.6128,-8.308106 0,0.992261 1.63502,3.740505 4.29546,7.220086 2.36251,3.089908 5.1831,7.346017 6.268,9.458017 1.08489,2.111999 3.07405,5.535509 4.42036,7.607799 1.34631,2.07229 2.70969,4.71615 3.02973,5.87524 1.22553,4.43849 10.65191,10.08005 11.80813,7.06699 z m -14.47393,-10.55613 c -3.02206,-5.66996 -4.3684,-6.68616 -9.27198,-6.9984 -8.297011,-0.52831 -9.444878,1.20074 -3.92677,5.91501 2.35203,2.00941 4.01035,2.93042 5.28,2.93245 1.01805,0.002 3.579,0.70838 5.691,1.57054 2.112,0.86217 3.93326,1.30105 4.04725,0.97528 0.11399,-0.32576 -0.70478,-2.30346 -1.8195,-4.39488 z m 117.21441,98.905117 c -2.26271,-2.72639 -1.16073,-9.06844 2.15118,-12.38035 2.38315,-2.38315 4.10777,-2.67171 5.66746,-0.94827 2.295,2.53595 0.502,10.79422 -2.85395,13.14482 -1.81082,1.26835 -3.99742,1.3493 -4.96469,0.1838 z m -33.78588,-30.47731 c -5.29322,-2.21416 1.15375,-10.261711 8.22075,-10.261711 5.27735,0 6.45459,3.88623 2.24918,7.424851 -3.14135,2.64328 -7.86985,3.92448 -10.46993,2.83686 z"
     style="fill:#000000;fill-opacity:1;stroke-width:0.63999999"
     sodipodi:nodetypes="ccccccccccsscccscsscsccsssccsssccsccccscscccscccccsccccscscccssscscsscsccsccccccccccsscccccsscccccccccscscscscscsccccscsccccccsccssssccscssccccsccccccsccccccsccsccccsccccscscccccscccsccccsscccccccsccccssscscscsscccccccccscccccscccccccsssccccssscccscccscsccssscssccscscccscccsccccccscscccsccccscssccssccscsssccccccccccsscscccccsccsccsccscsccsccssccsccccscscccssscscscccccscscsscccccccscscscccccscccsccssccccsccccscsscccsscccscccsccscssccscscsscccsccccccccccccccccscccscsscccccccccccccccscccsccccccscscccscccssscsccscsscccccscccscccsccssccsccscssssssccccccccccsccsccccccsccccccccccssscscccsccccccssccsccccccscscsssccccccccccccccsccssccccsscccsccccccscscscccccccsccsccsccscccccscsscssccscccscscscccccsccccccscsscscsccscccscccccsssscccccsccsccscsccccccccccsscccccccsccsccccccsccccccsscccccsccsscccccccccsssccscc" />
</svg>
