<?xml version="1.0" encoding="UTF-8" standalone="no"?>
<!-- Created with Inkscape (http://www.inkscape.org/) -->

<svg
   xmlns:dc="http://purl.org/dc/elements/1.1/"
   xmlns:cc="http://creativecommons.org/ns#"
   xmlns:rdf="http://www.w3.org/1999/02/22-rdf-syntax-ns#"
   xmlns:svg="http://www.w3.org/2000/svg"
   xmlns="http://www.w3.org/2000/svg"
   xmlns:sodipodi="http://sodipodi.sourceforge.net/DTD/sodipodi-0.dtd"
   xmlns:inkscape="http://www.inkscape.org/namespaces/inkscape"
   version="1.1"
   id="svg4551"
   width="376.32944"
   height="376.77103"
   viewBox="0 0 376.32943 376.77102"
   sodipodi:docname="cropped-crc-hbp-logo.svg"
   inkscape:version="0.92.2 (unknown)">
  <metadata
     id="metadata4557">
    <rdf:RDF>
      <cc:Work
         rdf:about="">
        <dc:format>image/svg+xml</dc:format>
        <dc:type
           rdf:resource="http://purl.org/dc/dcmitype/StillImage" />
        <dc:title></dc:title>
      </cc:Work>
    </rdf:RDF>
  </metadata>
  <defs
     id="defs4555">
    <filter
       style="color-interpolation-filters:sRGB"
       inkscape:label="Drop Shadow"
       id="dropshadow">
      <feFlood
         flood-opacity="0.498039"
         flood-color="rgb(0,0,0)"
         result="flood"
         id="feFlood4878" />
      <feComposite
         in="flood"
         in2="SourceGraphic"
         operator="in"
         result="composite1"
         id="feComposite4880" />
      <feGaussianBlur
         in="composite1"
         stdDeviation="2.2"
         result="blur"
         id="feGaussianBlur4882" />
      <feOffset
         dx="-10.4"
         dy="6"
         result="offset"
         id="feOffset4884" />
      <feComposite
         in="SourceGraphic"
         in2="offset"
         operator="over"
         result="composite2"
         id="feComposite4886" />
    </filter>
  </defs>
  <sodipodi:namedview
     pagecolor="#ffffff"
     bordercolor="#666666"
     borderopacity="1"
     objecttolerance="10"
     gridtolerance="10"
     guidetolerance="10"
     inkscape:pageopacity="0"
     inkscape:pageshadow="2"
     inkscape:window-width="640"
     inkscape:window-height="480"
     id="namedview4553"
     showgrid="false"
     inkscape:zoom="3.3299999"
     inkscape:cx="200.98066"
     inkscape:cy="189.15947"
     inkscape:current-layer="svg4551"
     fit-margin-top="0"
     fit-margin-left="0"
     fit-margin-right="0"
     fit-margin-bottom="0" />
  <path
     style="fill:#f2e400;fill-opacity:1;stroke-width:1.33333337;filter:url(#dropshadow)"
     d="m 177.64198,343.22023 c -16.47665,-5.81376 -32.3174,-32.5478 -39.29141,-66.31116 -9.06611,-43.89182 -4.78409,-88.72794 11.58039,-121.25584 6.47957,-12.87956 19.96141,-31.45075 22.8164,-31.42952 1.75678,0.0131 11.55462,8.93407 11.55462,10.52057 0,0.56697 -2.91917,4.6682 -6.48704,9.11385 -11.1563,13.90103 -18.95998,31.28351 -23.80308,53.0207 -3.64774,16.37221 -3.24549,55.0551 0.77647,74.66666 4.88872,23.83805 14.66527,45.34141 23.77292,52.28815 8.89093,6.78146 17.69639,4.73492 26.11851,-6.07036 6.11637,-7.8471 5.55409,-8.21778 -12.46543,-8.21778 -8.84821,0 -17.20263,-0.59672 -18.56537,-1.32603 -2.79896,-1.49796 -6.99562,-9.08511 -5.95582,-10.76755 0.37494,-0.60664 8.61531,-1.0313 18.31194,-0.94368 28.41217,0.25676 31.77976,-1.05668 33.70949,-13.14744 l 0.88069,-5.51802 -27.20236,0.18469 c -24.20566,0.16435 -27.6088,-0.0813 -30.89166,-2.23072 -2.9638,-1.94041 -3.60835,-3.25143 -3.27762,-6.66667 0.38256,-3.95045 0.74188,-4.23273 5.07836,-3.98951 27.23356,1.52754 52.95162,-0.0629 58.7262,-3.63188 0.97802,-0.60444 2.15382,-4.51146 2.61291,-8.68228 1.07997,-9.81161 -0.24524,-11.26636 -9.00208,-9.88208 -14.58703,2.3059 -30.92673,2.78552 -44.33703,1.30146 -7.7,-0.85214 -14.5044,-2.0427 -15.12088,-2.6457 -0.61648,-0.603 -1.21648,-3.11196 -1.33333,-5.57548 l -0.21245,-4.47912 23.33333,0.4922 c 22.25713,0.4695 41.00656,-1.15146 45.50965,-3.93449 1.23974,-0.76619 1.83084,-3.93773 1.84604,-9.90484 0.0152,-5.97765 0.60555,-9.1382 1.85054,-9.90764 3.25617,-2.01243 12.47717,-2.92868 14.01009,-1.39213 2.60168,2.60786 1.48151,45.13269 -1.65021,62.6469 -6.66631,37.2815 -20.21638,63.11977 -37.67676,71.84482 -9.388,4.69124 -15.79011,5.15584 -25.21602,1.82992 z m -13.1302,-136.26247 c -6.59177,-1.66537 -7.13717,-2.73201 -5.441,-10.64103 l 1.50647,-7.02442 10.86237,1.07973 c 15.04731,1.49572 33.22996,0.80215 43.52903,-1.66041 28.35852,-6.78064 54.307,-20.61507 80.42922,-42.88081 25.8356,-22.02145 38.77105,-47.133785 30.01358,-58.267095 -4.39965,-5.593248 -10.16692,-7.352721 -24.06664,-7.342231 -24.12221,0.0182 -61.49883,12.770684 -85.78769,29.269796 -4.35699,2.95964 -8.65092,5.3826 -9.54207,5.38435 -2.36479,0.005 -11.0464,-7.95407 -11.0464,-10.12658 0,-2.08647 7.92037,-8.204726 18.21359,-14.069483 3.78414,-2.156085 7.22448,-4.817181 7.6452,-5.913544 0.46498,-1.211759 -1.44862,-4.40446 -4.88027,-8.142332 -11.84924,-12.906622 -28.01368,-16.012222 -43.3788,-8.334178 -13.95169,6.971743 -18.92316,16.122703 -11.26639,20.737978 34.82148,20.989339 53.33343,40.284929 68.22599,71.114129 6.52164,13.50049 6.84257,16.92078 1.77401,18.906 -5.54534,2.17196 -11.15652,2.09545 -12.38144,-0.1688 -0.59506,-1.1 -3.81772,-7.80202 -7.16144,-14.89338 C 197.95189,134.70319 172.91389,112.35192 134.57128,95.080382 112.08056,84.949372 98.545242,81.334552 80.181915,80.55484 66.761864,79.985021 63.942213,80.246508 58.752561,82.542137 46.702718,87.872356 45.838447,98.773613 56.070073,116.37702 c 10.303047,17.72629 41.538949,44.76731 66.388917,57.47309 6.12646,3.13246 11.45269,6.50818 11.83605,7.50161 0.75937,1.9678 -1.77594,12.09693 -3.53094,14.10688 -2.19377,2.51247 -29.42482,-12.75397 -48.146047,-26.99195 C 49.596298,143.35278 28.417817,111.46203 31.693827,91.784489 34.732377,73.533274 47.786517,64.149574 71.569069,63.121 90.259135,62.312671 109.22342,66.241445 135.46949,76.359062 l 7.83417,3.020001 2.83059,-3.916788 c 9.46627,-13.098832 17.49245,-19.217077 28.72915,-21.899831 10.21076,-2.437812 19.36188,-2.261373 29.72892,0.573188 7.32042,2.001558 10.25556,3.693998 16.06406,9.262775 3.90888,3.74756 8.57823,8.812931 10.37632,11.25638 l 3.26928,4.442635 6,-2.187592 c 30.41579,-11.089555 43.15104,-14.031011 60.74834,-14.031011 20.45797,0 32.76417,4.95018 40.18559,16.164686 3.36556,5.085717 3.73274,6.774876 3.73274,17.171797 0,10.878158 -0.31762,12.167398 -5.60841,22.764038 -6.53351,13.08566 -19.92015,29.32184 -33.98519,41.21946 -21.15009,17.89084 -53.34376,36.61601 -71.73973,41.7268 -4.03334,1.12055 -9.73334,2.76472 -12.66667,3.65372 -6.36327,1.92851 -50.057,2.99533 -56.45687,1.37844 z M 214.96865,49.202348 c 0,-2.019806 7.0466,-13.205757 9.71301,-15.418684 5.62022,-4.664369 12.95366,-2.129915 12.95366,4.476815 0,4.439306 -4.32444,6.564244 -9.60944,4.72188 -3.77511,-1.316007 -4.42948,-1.061746 -8.57216,3.330781 -2.46792,2.616755 -4.48507,3.916168 -4.48507,2.889208 z m -57.63748,-4.567071 c -3.18871,-3.188705 -3.84588,-3.351169 -7.47499,-1.847942 -2.98012,1.234404 -4.67869,1.273621 -6.76656,0.156225 -3.86664,-2.069357 -3.79404,-8.765644 0.11774,-10.859155 4.16105,-2.226927 10.16646,1.348741 14.94133,8.896176 4.46171,7.052433 4.11777,8.589978 -0.81751,3.654696 z"
     id="bee"
     inkscape:connector-curvature="0" />
</svg>
