<?xml version="1.0" encoding="UTF-8" standalone="no"?>
<!-- Created with Inkscape (http://www.inkscape.org/) -->

<svg
   xmlns:dc="http://purl.org/dc/elements/1.1/"
   xmlns:cc="http://creativecommons.org/ns#"
   xmlns:rdf="http://www.w3.org/1999/02/22-rdf-syntax-ns#"
   xmlns:svg="http://www.w3.org/2000/svg"
   xmlns="http://www.w3.org/2000/svg"
   xmlns:sodipodi="http://sodipodi.sourceforge.net/DTD/sodipodi-0.dtd"
   xmlns:inkscape="http://www.inkscape.org/namespaces/inkscape"
   width="57.571781mm"
   height="67.054932mm"
   viewBox="0 0 57.571781 67.054932"
   version="1.1"
   id="svg1815"
   inkscape:version="0.92.3 (unknown)"
   sodipodi:docname="honeybeelogo-white.svg">
  <defs
     id="defs1809" />
  <sodipodi:namedview
     id="base"
     pagecolor="#ffdaff"
     bordercolor="#666666"
     borderopacity="1.0"
     inkscape:pageopacity="0"
     inkscape:pageshadow="2"
     inkscape:zoom="3.959798"
     inkscape:cx="92.810768"
     inkscape:cy="112.25703"
     inkscape:document-units="mm"
     inkscape:current-layer="layer1"
     showgrid="false"
     fit-margin-top="0"
     fit-margin-left="0"
     fit-margin-right="0"
     fit-margin-bottom="0"
     inkscape:window-width="2879"
     inkscape:window-height="1619"
     inkscape:window-x="78"
     inkscape:window-y="258"
     inkscape:window-maximized="0" />
  <metadata
     id="metadata1812">
    <rdf:RDF>
      <cc:Work
         rdf:about="">
        <dc:format>image/svg+xml</dc:format>
        <dc:type
           rdf:resource="http://purl.org/dc/dcmitype/StillImage" />
        <dc:title></dc:title>
      </cc:Work>
    </rdf:RDF>
  </metadata>
  <g
     inkscape:label="Layer 1"
     inkscape:groupmode="layer"
     id="layer1"
     transform="translate(-54.473824,-131.53994)">
    <path
       id="path266"
       style="fill:#ffffff;fill-opacity:1;fill-rule:nonzero;stroke:none;stroke-width:0.35277775"
       d="m 109.44214,196.27924 c 0,0 0.272,0.48789 0.83997,0.48789 0.58032,0 0.94509,-0.4572 0.94509,-1.01918 0,-0.56232 -0.36477,-1.01917 -0.94509,-1.01917 -0.56797,0 -0.83997,0.48825 -0.83997,0.48825 z m -0.0434,-1.95792 v 0.41346 c 0,0 0.28434,-0.48789 0.96344,-0.48789 0.77223,0 1.38359,0.6611 1.38359,1.50106 0,0.83997 -0.61136,1.50072 -1.38359,1.50072 -0.52458,0 -0.82127,-0.29633 -0.92004,-0.42615 v 1.77235 h -0.51894 v -4.27355 z m -4.93439,1.83423 v -1.83409 h 0.51893 v 1.74766 c 0,0.4879 0.30233,0.6978 0.68545,0.6978 0.48154,0 0.71049,-0.4692 0.71049,-0.4692 v -1.97626 h 0.51823 v 2.85362 h -0.48154 v -0.43885 c 0,0 -0.25929,0.51258 -0.877,0.51258 -0.56798,0 -1.07456,-0.38911 -1.07456,-1.09326 m -2.34682,-0.40752 c 0,-0.56233 -0.37677,-1.01918 -0.95109,-1.01918 -0.57433,0 -0.95145,0.45685 -0.95145,1.01918 0,0.56197 0.37712,1.01917 0.95145,1.01917 0.57432,0 0.95109,-0.4572 0.95109,-1.01917 m 0.51858,0 c 0,0.83996 -0.62971,1.50071 -1.46967,1.50071 -0.83997,0 -1.47003,-0.66075 -1.47003,-1.50071 0,-0.83997 0.63006,-1.50107 1.47003,-1.50107 0.83996,0 1.46967,0.6611 1.46967,1.50107 m -4.286146,-1.42664 -0.191558,0.4692 c 0,0 -0.110774,-0.0617 -0.32738,-0.0617 -0.45085,0 -0.654754,0.48189 -0.654754,0.48189 v 1.96427 h -0.518583 v -2.85362 h 0.481542 v 0.43815 c 0,0 0.253293,-0.51258 0.79657,-0.51258 0.23495,0 0.414163,0.0744 0.414163,0.0744 m -5.262033,0.48164 h 1.593495 v 1.87748 c 0,0 -0.57432,0.56833 -1.698625,0.56833 -1.24742,0 -2.14912,-0.98813 -2.14912,-2.23555 0,-1.24778 0.9017,-2.23626 2.14912,-2.23626 1.117955,0 1.581505,0.61136 1.581505,0.61136 l -0.370772,0.36442 c 0,0 -0.413808,-0.48189 -1.210733,-0.48189 -0.938742,0 -1.593144,0.82162 -1.593144,1.74237 0,0.92004 0.654402,1.74131 1.593144,1.74131 0.790575,0 1.185688,-0.31468 1.185688,-0.31468 v -1.143 h -1.080558 z m -5.848385,0.53742 v 1.83445 h -0.51929 v -1.74837 c 0,-0.48789 -0.302331,-0.69744 -0.685093,-0.69744 -0.46355,0 -0.710496,0.48154 -0.710496,0.48154 v 1.96427 h -0.518584 v -4.66937 h 0.518584 v 2.16182 c 0.08608,-0.12382 0.346075,-0.42051 0.839964,-0.42051 0.567974,0 1.074915,0.38912 1.074915,1.09361 m -4.286393,1.35876 c 0,0 -0.413808,0.54963 -1.167341,0.54963 -0.839613,0 -1.470026,-0.66076 -1.470026,-1.50072 0,-0.83397 0.630413,-1.50107 1.470026,-1.50107 0.728837,0 1.13665,0.51259 1.13665,0.51259 l -0.352073,0.31538 c 0,0 -0.27799,-0.34607 -0.784577,-0.34607 -0.574323,0 -0.95109,0.45684 -0.95109,1.01917 0,0.56162 0.376767,1.01882 0.95109,1.01882 0.555977,0 0.833966,-0.40746 0.833966,-0.40746 z m -3.983564,-2.37783 -0.191559,0.4692 c 0,0 -0.110772,-0.0617 -0.327378,-0.0617 -0.45085,0 -0.654402,0.48189 -0.654402,0.48189 v 1.96427 h -0.518936 v -2.85362 h 0.481541 v 0.43815 c 0,0 0.253295,-0.51258 0.796925,-0.51258 0.234597,0 0.413809,0.0744 0.413809,0.0744 m -4.712547,1.46381 c -0.308681,0 -0.553861,0.043 -0.734836,0.12947 -0.181328,0.0864 -0.271992,0.22895 -0.271992,0.42651 0,0.18097 0.06068,0.30938 0.182386,0.38593 0.121356,0.0762 0.27305,0.11395 0.453672,0.11395 0.140053,0 0.26282,-0.0233 0.367595,-0.0709 0.105128,-0.0473 0.192617,-0.11042 0.262467,-0.18803 0.0702,-0.0787 0.123472,-0.17004 0.160513,-0.27517 0.03739,-0.10477 0.05786,-0.21731 0.06174,-0.33655 v -0.1852 z m -1.395942,-1.1303 c 0.148167,-0.1524 0.324556,-0.26459 0.528109,-0.33655 0.203905,-0.072 0.410633,-0.1083 0.620888,-0.1083 0.428273,0 0.736953,0.10089 0.926395,0.30268 0.189089,0.20179 0.283986,0.50871 0.283986,0.9204 v 1.24142 c 0,0.0822 0.0039,0.16757 0.0127,0.25612 0.0078,0.0885 0.01799,0.17004 0.03069,0.24412 h -0.46355 c -0.01623,-0.066 -0.0254,-0.13899 -0.02752,-0.21943 -0.0021,-0.0801 -0.0032,-0.15099 -0.0032,-0.21307 h -0.01235 c -0.0949,0.14851 -0.221192,0.26987 -0.379589,0.36441 -0.15875,0.0945 -0.348897,0.14182 -0.5715,0.14182 -0.148166,0 -0.287161,-0.018 -0.416983,-0.0554 -0.12947,-0.0367 -0.242711,-0.0917 -0.339725,-0.16369 -0.09666,-0.072 -0.17392,-0.16157 -0.231422,-0.26846 -0.05786,-0.10725 -0.08643,-0.23072 -0.08643,-0.37077 0,-0.23883 0.06209,-0.42616 0.185208,-0.56198 0.123825,-0.13582 0.276931,-0.23671 0.460375,-0.30233 0.182739,-0.066 0.380648,-0.10724 0.592667,-0.12382 0.21202,-0.0162 0.406753,-0.0247 0.583495,-0.0247 h 0.185208 v -0.0864 c 0,-0.20991 -0.0628,-0.3683 -0.188031,-0.47555 -0.125589,-0.10689 -0.301625,-0.16051 -0.528108,-0.16051 -0.156633,0 -0.310092,0.0257 -0.460375,0.0773 -0.150283,0.0515 -0.282575,0.13088 -0.398286,0.23742 z m -2.35885,0.8461 c -0.0187,-0.32103 -0.308681,-0.77188 -0.883356,-0.77188 -0.617714,0 -0.871008,0.4752 -0.907697,0.77188 z m 0.506589,0.26564 c 0,0.0554 0,0.0988 -0.0064,0.16687 H 68.6988 c 0.03069,0.43215 0.444147,0.83361 0.982133,0.83361 0.561622,0 0.857956,-0.42016 0.857956,-0.42016 l 0.32773,0.33973 c 0,0 -0.432152,0.56197 -1.185686,0.56197 -0.865011,0 -1.488722,-0.6544 -1.488722,-1.50071 0,-0.83362 0.568325,-1.50107 1.426633,-1.50107 0.796925,0 1.389945,0.59972 1.389945,1.51976 m -6.491025,0.54945 c 0,0 0.30233,0.4632 0.864658,0.4632 0.289983,0 0.617361,-0.12347 0.617361,-0.35207 0,-0.24695 -0.209903,-0.37042 -0.648405,-0.4565 -0.611364,-0.12382 -1.043869,-0.36477 -1.043869,-0.90205 0,-0.41416 0.413808,-0.82162 1.050219,-0.82162 0.6731,0 1.056216,0.43215 1.056216,0.43215 l -0.339725,0.35207 c 0,0 -0.284339,-0.31467 -0.716491,-0.31467 -0.364067,0 -0.543631,0.17921 -0.543631,0.36442 0,0.2159 0.222603,0.33337 0.691797,0.4325 0.543631,0.11713 1.006475,0.32103 1.006475,0.90135 0,0.54998 -0.579966,0.83397 -1.129947,0.83397 -0.802922,0 -1.22308,-0.59937 -1.22308,-0.59937 z m -2.507332,-0.81509 c -0.0187,-0.32103 -0.309033,-0.77188 -0.883355,-0.77188 -0.617714,0 -0.871009,0.4752 -0.90805,0.77188 z m 0.506589,0.26564 c 0,0.0554 0,0.0988 -0.0063,0.16687 h -2.303639 c 0.03069,0.43215 0.4445,0.83361 0.982134,0.83361 0.561975,0 0.858308,-0.42016 0.858308,-0.42016 l 0.327378,0.33973 c 0,0 -0.432153,0.56197 -1.185686,0.56197 -0.865012,0 -1.488723,-0.6544 -1.488723,-1.50071 0,-0.83362 0.568325,-1.50107 1.426634,-1.50107 0.796925,0 1.389944,0.59972 1.389944,1.51976 m -5.10792,-1.63678 c 0,-0.4759 -0.315031,-0.78458 -0.895703,-0.78458 H 55.87739 v 1.56916 h 0.636058 c 0.580672,0 0.895703,-0.30868 0.895703,-0.78458 m -2.050345,-1.27847 h 1.12395 c 0.858662,0 1.445331,0.50659 1.445331,1.27847 0,1.02517 -0.932744,1.21638 -1.056217,1.23507 l 1.198386,1.81011 H 57.44584 l -1.166989,-1.76672 H 55.87739 v 1.76672 h -0.518584 z m 56.686804,-6.03204 v 2.26519 h -0.88547 v -2.04364 c 0,-0.50165 -0.30974,-0.71544 -0.69356,-0.71544 -0.4572,0 -0.69321,0.4572 -0.69321,0.4572 v 2.30188 h -0.88547 v -5.57777 h 0.88547 v 2.50119 c 0,0 0.30974,-0.50906 0.98813,-0.50906 0.6791,0 1.28411,0.47943 1.28411,1.32045 m -6.61046,-1.23197 h 0.6858 l 0.005,-2.08033 h 0.85937 l 0.0212,2.08033 h 1.05445 v 0.79693 h -1.05445 v 1.40899 c 0,0.42792 0.22119,0.55351 0.4572,0.55351 0.19932,0 0.369,-0.12559 0.369,-0.12559 l 0.32456,0.72319 c 0,0 -0.33232,0.2286 -0.84102,0.2286 -0.67875,0 -1.19556,-0.49424 -1.19556,-1.23966 v -1.54904 h -0.6858 z m -1.59381,-2.08054 h 0.88547 v 5.57777 h -0.88547 z m -2.13963,4.006 c -0.0833,0 -0.18768,0.004 -0.31327,0.0109 -0.12524,0.008 -0.24624,0.0286 -0.3616,0.0628 -0.11571,0.0346 -0.21413,0.0864 -0.29492,0.15487 -0.0811,0.0691 -0.12206,0.1651 -0.12206,0.28787 0,0.13299 0.0564,0.23142 0.16968,0.29527 0.11324,0.0639 0.23143,0.096 0.35454,0.096 0.1076,0 0.21238,-0.0148 0.31327,-0.0444 0.10054,-0.0296 0.1905,-0.0713 0.26952,-0.12524 0.0787,-0.0543 0.14111,-0.12312 0.18804,-0.20672 0.0469,-0.0832 0.0699,-0.18204 0.0699,-0.29493 v -0.23636 z m 0.27305,1.12183 h -0.0145 c -0.12312,0.19156 -0.28681,0.32915 -0.49072,0.41311 -0.2039,0.0836 -0.4198,0.12523 -0.64558,0.12523 -0.16757,0 -0.32844,-0.0233 -0.48295,-0.0699 -0.15558,-0.0469 -0.2921,-0.11676 -0.409931,-0.2106 -0.118181,-0.0935 -0.211315,-0.20885 -0.280106,-0.34643 -0.06914,-0.13794 -0.103365,-0.29775 -0.103365,-0.47978 0,-0.20673 0.0381,-0.38135 0.1143,-0.52388 0.07655,-0.14252 0.179565,-0.2607 0.310091,-0.35418 0.130171,-0.0935 0.279051,-0.16616 0.445911,-0.21767 0.16722,-0.0519 0.34079,-0.0896 0.52035,-0.1143 0.17956,-0.0247 0.35913,-0.0395 0.53834,-0.0441 0.17991,-0.005 0.34572,-0.008 0.49812,-0.008 0,-0.19614 -0.0699,-0.35278 -0.21026,-0.46849 -0.14005,-0.11536 -0.30585,-0.17321 -0.49776,-0.17321 -0.18204,0 -0.3482,0.0381 -0.49848,0.1143 -0.14958,0.0765 -0.28363,0.18097 -0.40181,0.31362 l -0.590202,-0.60502 c 0.206729,-0.19191 0.447672,-0.33584 0.723192,-0.43144 0.27517,-0.0963 0.56092,-0.14394 0.8562,-0.14394 0.3242,0 0.5909,0.0406 0.8001,0.12171 0.20919,0.0811 0.37641,0.20038 0.50165,0.35772 0.12523,0.15769 0.21272,0.35066 0.26176,0.57926 0.0494,0.2286 0.0737,0.49283 0.0737,0.79304 v 1.82245 h -1.01812 z m -3.73331,-1.62341 c -0.01482,-0.30233 -0.294923,-0.70837 -0.877713,-0.70837 -0.568325,0 -0.826558,0.39863 -0.855837,0.70837 z m 0.885471,0.31009 c 0,0.066 0,0.19897 -0.0074,0.33162 h -2.611612 c 0.06597,0.31009 0.427567,0.70837 0.981075,0.70837 0.612421,0 0.959202,-0.35419 0.959202,-0.35419 l 0.442735,0.66429 c 0,0 -0.553508,0.50165 -1.401937,0.50165 -1.062566,0 -1.881364,-0.81175 -1.881364,-1.83692 0,-1.02552 0.745066,-1.83727 1.756126,-1.83727 0.95885,0 1.763184,0.74507 1.763184,1.82245 m -5.157373,-3.40137 h 0.88547 v 5.16466 h -0.88547 v -2.22073 h -2.205922 v 2.22073 h -0.88547 v -5.16466 h 0.88547 v 2.1029 h 2.205922 z M 88.034,187.01127 c -0.01482,-0.30233 -0.295275,-0.70837 -0.878065,-0.70837 -0.568325,0 -0.826206,0.39863 -0.85584,0.70837 z m 0.88547,0.31009 c 0,0.066 0,0.19897 -0.0078,0.33162 h -2.611615 c 0.06632,0.31009 0.427922,0.70837 0.98143,0.70837 0.61242,0 0.95885,-0.35419 0.95885,-0.35419 l 0.442735,0.66429 c 0,0 -0.553508,0.50165 -1.401585,0.50165 -1.062567,0 -1.881717,-0.81175 -1.881717,-1.83692 0,-1.02552 0.745419,-1.83727 1.756127,-1.83727 0.959202,0 1.763535,0.74507 1.763535,1.82245 m -4.818019,-0.31009 c -0.01482,-0.30233 -0.294924,-0.70837 -0.877713,-0.70837 -0.568325,0 -0.826559,0.39863 -0.855837,0.70837 z m 0.88547,0.31009 c 0,0.066 0,0.19897 -0.0074,0.33162 h -2.611612 c 0.06597,0.31009 0.427566,0.70837 0.981075,0.70837 0.61242,0 0.959201,-0.35419 0.959201,-0.35419 l 0.442736,0.66429 c 0,0 -0.553509,0.50165 -1.401937,0.50165 -1.062567,0 -1.881365,-0.81175 -1.881365,-1.83692 0,-1.02552 0.745066,-1.83727 1.756127,-1.83727 0.958498,0 1.763183,0.74507 1.763183,1.82245 m -4.847702,0.23594 c 0,-0.48683 -0.368653,-0.68615 -0.855486,-0.68615 h -0.944739 v 1.37231 h 0.944739 c 0.486833,0 0.855486,-0.19897 0.855486,-0.68616 m -1.039989,-1.52717 c 0.494242,0 0.774348,-0.18451 0.774348,-0.6343 0,-0.45014 -0.339373,-0.63465 -0.774348,-0.63465 h -0.760236 v 1.26895 z m -1.645355,-2.11032 h 1.674989 c 0.841022,0 1.645002,0.39123 1.645002,1.47602 0,0.62689 -0.464961,0.92957 -0.538691,0.95144 0.07373,0.0148 0.804332,0.28046 0.804332,1.21003 0,0.90735 -0.752474,1.52718 -1.726493,1.52718 h -1.859139 z m -5.448865,5.89506 c 0,0 0.236008,0.2286 0.464608,0.2286 0.302683,0 0.427919,-0.0886 0.597958,-0.51612 l 0.140053,-0.36159 -1.704622,-3.57823 h 0.981428 l 1.180394,2.55976 0.922161,-2.55976 h 0.952147 l -1.697214,4.27884 c -0.30233,0.76729 -0.796572,1.00365 -1.313391,1.00365 -0.530931,0 -0.936978,-0.369 -0.936978,-0.369 z m -1.65294,-2.8036 c -0.01446,-0.30233 -0.294922,-0.70837 -0.877711,-0.70837 -0.568325,0 -0.826558,0.39863 -0.855839,0.70837 z m 0.885472,0.31009 c 0,0.066 0,0.19897 -0.0074,0.33162 h -2.611614 c 0.06632,0.31009 0.42792,0.70837 0.981075,0.70837 0.612422,0 0.959203,-0.35419 0.959203,-0.35419 l 0.442736,0.66429 c 0,0 -0.553508,0.50165 -1.401939,0.50165 -1.062567,0 -1.881364,-0.81175 -1.881364,-1.83692 0,-1.02552 0.745067,-1.83727 1.756128,-1.83727 0.95885,0 1.763183,0.74507 1.763183,1.82245 m -4.168676,-0.502 v 2.26519 h -0.88512 v -2.04364 c 0,-0.50165 -0.310091,-0.71544 -0.693913,-0.71544 -0.456848,0 -0.692856,0.44979 -0.692856,0.44979 v 2.30929 h -0.885825 v -3.49709 h 0.826558 v 0.50906 c 0,0 0.309739,-0.59761 1.047398,-0.59761 0.678744,0 1.283758,0.47943 1.283758,1.32045 m -4.707008,0.51675 c 0,-0.5461 -0.369006,-1.01071 -0.966259,-1.01071 -0.598311,0 -0.966611,0.46461 -0.966611,1.01071 0,0.54575 0.3683,1.01071 0.966611,1.01071 0.597253,0 0.966259,-0.46496 0.966259,-1.01071 m 0.900288,0 c 0,1.02517 -0.826558,1.83691 -1.866547,1.83691 -1.040341,0 -1.8669,-0.81174 -1.8669,-1.83691 0,-1.03329 0.826559,-1.83727 1.8669,-1.83727 1.039989,0 1.866547,0.80398 1.866547,1.83727 m -5.371358,-3.41612 h 0.885119 v 5.16466 h -0.885119 v -2.22073 h -2.206272 v 2.22073 H 54.79902 v -5.16466 h 0.885472 v 2.1029 h 2.206272 z" />
    <path
       d="M 69.339848,179.50854 55.83234,156.11267 69.339848,132.71645 h 27.015369 l 13.507863,23.39622 -13.507863,23.39587 z"
       style="fill:none;stroke:#ffffff;stroke-width:2.35302782;stroke-linecap:butt;stroke-linejoin:miter;stroke-miterlimit:10;stroke-dasharray:none;stroke-opacity:1"
       id="path270"
       inkscape:connector-curvature="0" />
    <path
       d="m 74.853058,151.56003 c -1.919816,1.84821 -2.473678,4.38715 -1.237544,5.67126 1.236133,1.2834 3.794125,0.82585 5.713588,-1.02235 1.919817,-1.8482 2.473325,-4.38679 1.237192,-5.6709 -1.236133,-1.28341 -3.794125,-0.82586 -5.713236,1.02199"
       style="fill:#ffffff;fill-opacity:1;fill-rule:nonzero;stroke:none;stroke-width:0.35277775"
       id="path274"
       inkscape:connector-curvature="0" />
    <path
       d="m 80.016561,156.13098 c -1.354667,2.29482 -1.207911,4.8895 0.327025,5.79508 1.534936,0.90593 3.876675,-0.22049 5.230988,-2.51531 1.353962,-2.29482 1.207912,-4.88915 -0.327025,-5.79473 -1.534584,-0.90628 -3.877027,0.22014 -5.230988,2.51496"
       style="fill:#f9b61d;fill-opacity:1;fill-rule:nonzero;stroke:none;stroke-width:0.35277775"
       id="path278"
       inkscape:connector-curvature="0" />
    <path
       d="m 86.384836,161.81246 c 0.683684,2.6924 3.929944,5.38022 7.249584,6.00322 3.319991,0.62265 5.457118,-1.05551 4.773083,-3.74756 -0.683683,-2.69275 -3.929946,-5.38021 -7.249583,-6.00357 -3.319992,-0.62265 -5.456767,1.05551 -4.773084,3.74791"
       style="fill:#f9e007;fill-opacity:1;fill-rule:nonzero;stroke:none;stroke-width:0.35277775"
       id="path282"
       inkscape:connector-curvature="0" />
    <path
       d="m 64.935983,151.1609 c 1.367366,-0.12665 2.768247,-0.13582 4.125383,0.12524 1.355725,0.25576 2.363258,0.89535 3.435703,1.70039 -1.180747,-0.641 -2.204861,-1.06539 -3.5052,-1.11831 -1.303514,-0.0572 -2.597503,0.14146 -3.864681,0.44873 -0.316088,0.0765 -0.633236,-0.11747 -0.709788,-0.4325 -0.07655,-0.31539 0.117122,-0.63324 0.432858,-0.70909 0.02681,-0.007 0.05856,-0.0116 0.08573,-0.0145"
       style="fill:#ffffff;fill-opacity:1;fill-rule:nonzero;stroke:none;stroke-width:0.35277775"
       id="path286"
       inkscape:connector-curvature="0" />
    <path
       d="m 66.408794,147.45656 c 1.406525,0.11994 2.544586,0.45261 3.87103,0.96308 1.325739,0.50412 2.529417,1.29575 3.469217,2.30505 -1.078795,-0.86289 -2.338917,-1.43968 -3.645253,-1.72896 -1.308453,-0.29457 -2.373136,-0.41593 -3.711222,-0.33444 -0.332669,0.0198 -0.619478,-0.23389 -0.63888,-0.56656 -0.02046,-0.33302 0.233186,-0.61912 0.565855,-0.63923 0.02858,-0.002 0.06174,-7.1e-4 0.08925,0.001"
       style="fill:#ffffff;fill-opacity:1;fill-rule:nonzero;stroke:none;stroke-width:0.35277775"
       id="path290"
       inkscape:connector-curvature="0" />
    <path
       d="m 85.9814,152.54255 c -0.08432,-0.85478 2.729087,-2.02741 6.284028,-2.61831 3.555648,-0.59126 6.506282,-0.37712 6.590242,0.47801 0.04127,0.42087 0.315031,1.52118 -6.284029,2.61832 -3.555296,0.5909 -6.505929,0.37712 -6.590241,-0.47802"
       style="fill:#fbd230;fill-opacity:1;fill-rule:nonzero;stroke:none;stroke-width:0.35277775"
       id="path294"
       inkscape:connector-curvature="0" />
  </g>
</svg>
