<?xml version="1.0" encoding="UTF-8" standalone="no"?>
<svg
   xmlns:dc="http://purl.org/dc/elements/1.1/"
   xmlns:cc="http://creativecommons.org/ns#"
   xmlns:rdf="http://www.w3.org/1999/02/22-rdf-syntax-ns#"
   xmlns:svg="http://www.w3.org/2000/svg"
   xmlns="http://www.w3.org/2000/svg"
   xmlns:sodipodi="http://sodipodi.sourceforge.net/DTD/sodipodi-0.dtd"
   xmlns:inkscape="http://www.inkscape.org/namespaces/inkscape"
   width="56.74778mm"
   height="49.145119mm"
   viewBox="0 0 56.74778 49.145119"
   version="1.1"
   id="svg1815"
   inkscape:version="1.0.1 (0767f8302a, 2020-10-17)"
   sodipodi:docname="honeybeelogo-nt.svg">
  <defs
     id="defs1809" />
  <sodipodi:namedview
     id="base"
     pagecolor="#ffffff"
     bordercolor="#666666"
     borderopacity="1.0"
     inkscape:pageopacity="0.0"
     inkscape:pageshadow="2"
     inkscape:zoom="1.4"
     inkscape:cx="125.9845"
     inkscape:cy="112.25704"
     inkscape:document-units="mm"
     inkscape:current-layer="layer1"
     showgrid="false"
     fit-margin-top="0"
     fit-margin-left="0"
     fit-margin-right="0"
     fit-margin-bottom="0"
     inkscape:window-width="1523"
     inkscape:window-height="774"
     inkscape:window-x="240"
     inkscape:window-y="114"
     inkscape:window-maximized="0"
     inkscape:document-rotation="0" />
  <metadata
     id="metadata1812">
    <rdf:RDF>
      <cc:Work
         rdf:about="">
        <dc:format>image/svg+xml</dc:format>
        <dc:type
           rdf:resource="http://purl.org/dc/dcmitype/StillImage" />
        <dc:title></dc:title>
      </cc:Work>
    </rdf:RDF>
  </metadata>
  <g
     inkscape:label="Layer 1"
     inkscape:groupmode="layer"
     id="layer1"
     transform="translate(-54.473824,-131.53994)">
    <g
       id="g905"
       transform="matrix(1.1083769,0,0,1.1083769,-8.8633997,-18.563867)">
      <path
         d="m 74.853058,151.56003 c -1.919816,1.84821 -2.473678,4.38715 -1.237544,5.67126 1.236133,1.2834 3.794125,0.82585 5.713588,-1.02235 1.919817,-1.8482 2.473325,-4.38679 1.237192,-5.6709 -1.236133,-1.28341 -3.794125,-0.82586 -5.713236,1.02199"
         style="fill:#211d1d;fill-opacity:1;fill-rule:nonzero;stroke:none;stroke-width:0.352778"
         id="path274"
         inkscape:connector-curvature="0" />
      <path
         d="m 80.016561,156.13098 c -1.354667,2.29482 -1.207911,4.8895 0.327025,5.79508 1.534936,0.90593 3.876675,-0.22049 5.230988,-2.51531 1.353962,-2.29482 1.207912,-4.88915 -0.327025,-5.79473 -1.534584,-0.90628 -3.877027,0.22014 -5.230988,2.51496"
         style="fill:#f9b61d;fill-opacity:1;fill-rule:nonzero;stroke:none;stroke-width:0.352778"
         id="path278"
         inkscape:connector-curvature="0" />
      <path
         d="m 86.384836,161.81246 c 0.683684,2.6924 3.929944,5.38022 7.249584,6.00322 3.319991,0.62265 5.457118,-1.05551 4.773083,-3.74756 -0.683683,-2.69275 -3.929946,-5.38021 -7.249583,-6.00357 -3.319992,-0.62265 -5.456767,1.05551 -4.773084,3.74791"
         style="fill:#f9e007;fill-opacity:1;fill-rule:nonzero;stroke:none;stroke-width:0.352778"
         id="path282"
         inkscape:connector-curvature="0" />
      <path
         d="m 64.935983,151.1609 c 1.367366,-0.12665 2.768247,-0.13582 4.125383,0.12524 1.355725,0.25576 2.363258,0.89535 3.435703,1.70039 -1.180747,-0.641 -2.204861,-1.06539 -3.5052,-1.11831 -1.303514,-0.0572 -2.597503,0.14146 -3.864681,0.44873 -0.316088,0.0765 -0.633236,-0.11747 -0.709788,-0.4325 -0.07655,-0.31539 0.117122,-0.63324 0.432858,-0.70909 0.02681,-0.007 0.05856,-0.0116 0.08573,-0.0145"
         style="fill:#211d1d;fill-opacity:1;fill-rule:nonzero;stroke:none;stroke-width:0.352778"
         id="path286"
         inkscape:connector-curvature="0" />
      <path
         d="m 66.408794,147.45656 c 1.406525,0.11994 2.544586,0.45261 3.87103,0.96308 1.325739,0.50412 2.529417,1.29575 3.469217,2.30505 -1.078795,-0.86289 -2.338917,-1.43968 -3.645253,-1.72896 -1.308453,-0.29457 -2.373136,-0.41593 -3.711222,-0.33444 -0.332669,0.0198 -0.619478,-0.23389 -0.63888,-0.56656 -0.02046,-0.33302 0.233186,-0.61912 0.565855,-0.63923 0.02858,-0.002 0.06174,-7.1e-4 0.08925,0.001"
         style="fill:#211d1d;fill-opacity:1;fill-rule:nonzero;stroke:none;stroke-width:0.352778"
         id="path290"
         inkscape:connector-curvature="0" />
      <path
         d="m 85.9814,152.54255 c -0.08432,-0.85478 2.729087,-2.02741 6.284028,-2.61831 3.555648,-0.59126 6.506282,-0.37712 6.590242,0.47801 0.04127,0.42087 0.315031,1.52118 -6.284029,2.61832 -3.555296,0.5909 -6.505929,0.37712 -6.590241,-0.47802"
         style="fill:#fbd230;fill-opacity:1;fill-rule:nonzero;stroke:none;stroke-width:0.352778"
         id="path294"
         inkscape:connector-curvature="0" />
    </g>
    <path
       d="M 69.339848,179.50854 55.83234,156.11267 69.339848,132.71645 h 27.015369 l 13.507863,23.39622 -13.507863,23.39587 z"
       style="fill:none;stroke:#201d1c;stroke-width:1.053;stroke-linecap:butt;stroke-linejoin:miter;stroke-miterlimit:10;stroke-dasharray:none;stroke-opacity:1"
       id="path270"
       inkscape:connector-curvature="0"
       inkscape:export-xdpi="93.790321"
       inkscape:export-ydpi="93.790321" />
  </g>
</svg>
