<svg xmlns="http://www.w3.org/2000/svg" width="217.594" height="253.436" viewBox="0 0 57.572 67.055"><path d="M54.968 64.74s.272.487.84.487c.58 0 .945-.457.945-1.019 0-.562-.364-1.02-.945-1.02-.568 0-.84.49-.84.49zm-.043-1.959v.414s.284-.488.963-.488c.773 0 1.384.661 1.384 1.501 0 .84-.611 1.5-1.384 1.5-.524 0-.82-.296-.92-.425v1.772h-.519V62.78zm-4.934 1.835v-1.834h.518v1.747c0 .488.303.698.686.698.481 0 .71-.47.71-.47v-1.975h.519v2.853h-.482v-.439s-.26.513-.877.513c-.568 0-1.074-.39-1.074-1.093m-2.347-.408c0-.562-.377-1.02-.951-1.02-.575 0-.952.458-.952 1.02s.377 1.02.952 1.02c.574 0 .95-.458.95-1.02m.52 0c0 .84-.63 1.5-1.47 1.5s-1.47-.66-1.47-1.5.63-1.501 1.47-1.501 1.47.661 1.47 1.501m-4.287-1.427l-.191.47s-.111-.062-.328-.062c-.45 0-.655.482-.655.482v1.964h-.518v-2.854h.481v.439s.254-.513.797-.513c.235 0 .414.074.414.074m-5.262.482h1.594v1.878s-.575.568-1.699.568c-1.247 0-2.15-.988-2.15-2.236 0-1.247.903-2.236 2.15-2.236 1.118 0 1.581.611 1.581.611l-.37.365s-.414-.482-1.211-.482c-.939 0-1.593.822-1.593 1.742s.654 1.742 1.593 1.742c.79 0 1.186-.315 1.186-.315v-1.143h-1.08zm-5.848.538v1.834h-.52v-1.748c0-.488-.302-.698-.685-.698-.463 0-.71.482-.71.482v1.964h-.519v-4.67h.519v2.162c.086-.123.346-.42.84-.42.568 0 1.075.389 1.075 1.094m-4.287 1.358s-.413.55-1.167.55c-.84 0-1.47-.66-1.47-1.5 0-.835.63-1.502 1.47-1.502a1.53 1.53 0 0 1 1.137.513l-.352.315s-.278-.346-.785-.346c-.574 0-.951.457-.951 1.02 0 .56.377 1.018.951 1.018.556 0 .834-.407.834-.407zm-3.983-2.378l-.192.47s-.11-.062-.327-.062c-.451 0-.655.482-.655.482v1.964h-.519v-2.854h.482v.439s.253-.513.797-.513c.235 0 .414.074.414.074m-4.713 1.464c-.308 0-.554.043-.735.13a.441.441 0 0 0-.272.426c0 .181.061.31.183.386a.84.84 0 0 0 .453.114c.14 0 .263-.023.368-.07a.777.777 0 0 0 .423-.464c.037-.105.058-.217.062-.337v-.185zm-1.396-1.13c.148-.152.325-.265.528-.337.204-.072.411-.108.621-.108.429 0 .737.101.927.303.189.202.284.509.284.92v1.242a3.026 3.026 0 0 0 .043.5h-.464a1.033 1.033 0 0 1-.027-.22 8.242 8.242 0 0 1-.003-.213h-.013c-.094.149-.22.27-.38.365a1.097 1.097 0 0 1-.57.142 1.5 1.5 0 0 1-.418-.056 1.041 1.041 0 0 1-.34-.164.768.768 0 0 1-.318-.64c0-.238.063-.425.186-.56.124-.137.277-.237.46-.303s.381-.107.593-.124c.212-.016.407-.025.584-.025h.185v-.086c0-.21-.063-.368-.188-.476-.126-.106-.302-.16-.528-.16-.157 0-.31.026-.46.077-.151.052-.283.131-.4.238zm-2.359.846a.86.86 0 0 0-.883-.772.884.884 0 0 0-.908.772zm.507.266c0 .055 0 .099-.006.167h-2.304c.03.432.444.833.982.833.562 0 .858-.42.858-.42l.328.34s-.432.562-1.186.562c-.865 0-1.489-.655-1.489-1.501 0-.834.569-1.501 1.427-1.501.797 0 1.39.6 1.39 1.52m-6.491.55s.302.462.865.462c.29 0 .617-.123.617-.352 0-.247-.21-.37-.648-.456-.612-.124-1.044-.365-1.044-.902 0-.414.413-.822 1.05-.822.673 0 1.056.432 1.056.432l-.34.352s-.284-.314-.716-.314c-.364 0-.544.179-.544.364 0 .216.223.333.692.433.544.117 1.007.32 1.007.9 0 .55-.58.835-1.13.835-.803 0-1.223-.6-1.223-.6zm-2.507-.816a.86.86 0 0 0-.884-.772.885.885 0 0 0-.908.772zm.506.266c0 .055 0 .099-.006.167H5.733c.03.432.445.833.982.833.562 0 .859-.42.859-.42l.327.34s-.432.562-1.186.562c-.865 0-1.488-.655-1.488-1.501 0-.834.568-1.501 1.426-1.501.797 0 1.39.6 1.39 1.52M2.935 62.59c0-.476-.315-.785-.895-.785h-.636v1.57h.636c.58 0 .895-.31.895-.785M.885 61.31h1.124c.859 0 1.445.507 1.445 1.279 0 1.025-.932 1.216-1.056 1.235l1.198 1.81h-.624l-1.167-1.767h-.401v1.767H.885zm56.687-6.032v2.266h-.886V55.5c0-.502-.31-.715-.693-.715-.457 0-.693.457-.693.457v2.302h-.886v-5.578h.886v2.501s.31-.509.988-.509c.679 0 1.284.48 1.284 1.32m-6.61-1.232h.685l.005-2.08h.86l.02 2.08h1.055v.797h-1.054v1.41c0 .427.22.553.457.553.2 0 .369-.126.369-.126l.324.723s-.332.23-.84.23c-.68 0-1.196-.495-1.196-1.24v-1.55h-.686zm-1.594-2.08h.885v5.578h-.885zm-2.14 4.006c-.083 0-.188.004-.313.01a1.637 1.637 0 0 0-.362.064.808.808 0 0 0-.295.154.358.358 0 0 0-.122.288c0 .133.056.232.17.296a.712.712 0 0 0 .354.096c.108 0 .213-.015.314-.045a.95.95 0 0 0 .269-.125.592.592 0 0 0 .258-.502v-.236zm.273 1.122h-.015c-.123.191-.286.329-.49.413-.204.083-.42.125-.646.125-.167 0-.328-.023-.483-.07a1.21 1.21 0 0 1-.41-.21 1.013 1.013 0 0 1-.28-.347 1.057 1.057 0 0 1-.103-.48 1.1 1.1 0 0 1 .114-.524c.077-.142.18-.26.31-.354.13-.093.28-.166.446-.217.167-.052.34-.09.52-.115.18-.024.36-.04.539-.044.18-.005.345-.008.498-.008a.576.576 0 0 0-.21-.468.758.758 0 0 0-.498-.173c-.182 0-.348.038-.499.114-.15.076-.283.18-.401.313l-.59-.605c.206-.191.447-.335.723-.431.275-.096.56-.144.856-.144.324 0 .59.04.8.122.21.08.376.2.502.357.125.158.212.351.261.58.05.228.074.493.074.793v1.822h-1.018zm-3.733-1.624c-.015-.302-.295-.708-.878-.708-.568 0-.827.399-.856.708zm.885.31c0 .066 0 .2-.007.332h-2.612c.066.31.428.708.981.708.613 0 .96-.354.96-.354l.442.665s-.553.501-1.402.501c-1.062 0-1.881-.812-1.881-1.837s.745-1.837 1.756-1.837c.959 0 1.763.745 1.763 1.822m-5.157-3.4h.885v5.164h-.885v-2.221H37.29v2.22h-.886V52.38h.886v2.103h2.206zm-5.936 3.09c-.015-.302-.295-.708-.878-.708-.568 0-.826.399-.856.708zm.886.31c0 .066 0 .2-.008.332h-2.612c.067.31.428.708.982.708.612 0 .959-.354.959-.354l.442.665s-.553.501-1.401.501c-1.063 0-1.882-.812-1.882-1.837s.745-1.837 1.756-1.837c.96 0 1.764.745 1.764 1.822m-4.818-.31c-.015-.302-.295-.708-.878-.708-.568 0-.827.399-.856.708zm.885.31c0 .066 0 .2-.007.332h-2.612c.066.31.428.708.981.708.613 0 .96-.354.96-.354l.442.665s-.553.501-1.402.501c-1.062 0-1.881-.812-1.881-1.837s.745-1.837 1.756-1.837c.958 0 1.763.745 1.763 1.822m-4.848.236c0-.486-.368-.686-.855-.686h-.945v1.373h.945c.487 0 .855-.2.855-.687m-1.04-1.527c.495 0 .775-.184.775-.634s-.34-.635-.775-.635h-.76v1.27zm-1.645-2.11h1.675c.841 0 1.645.391 1.645 1.476 0 .627-.465.93-.539.951.074.015.805.28.805 1.21 0 .908-.753 1.528-1.727 1.528H22.98zm-5.449 5.895s.236.229.465.229c.302 0 .428-.09.598-.517l.14-.361-1.705-3.578h.982l1.18 2.56.922-2.56h.952l-1.697 4.278c-.302.768-.797 1.004-1.313 1.004-.531 0-.937-.369-.937-.369zm-1.653-2.804c-.014-.302-.295-.708-.877-.708-.569 0-.827.399-.856.708zm.886.31c0 .066 0 .2-.008.332h-2.611c.066.31.428.708.98.708.613 0 .96-.354.96-.354l.443.665s-.554.501-1.402.501c-1.063 0-1.882-.812-1.882-1.837s.745-1.837 1.757-1.837c.958 0 1.763.745 1.763 1.822m-4.169-.502v2.266h-.885V55.5c0-.502-.31-.715-.694-.715-.457 0-.693.45-.693.45v2.309h-.886v-3.497h.827v.509s.31-.598 1.047-.598c.679 0 1.284.48 1.284 1.32m-4.707.517c0-.546-.369-1.01-.966-1.01-.599 0-.967.464-.967 1.01s.368 1.01.967 1.01c.597 0 .966-.464.966-1.01m.9 0c0 1.025-.826 1.837-1.866 1.837s-1.867-.812-1.867-1.837c0-1.033.826-1.837 1.867-1.837 1.04 0 1.866.804 1.866 1.837M3.417 52.38h.885v5.165h-.885v-2.221H1.21v2.22H.325V52.38h.886v2.103h2.206z" fill="#fff"/><path d="M14.866 47.969L1.359 24.573 14.866 1.177h27.015L55.39 24.573 41.881 47.969z" fill="none" stroke="#fff" stroke-width="2.353" stroke-miterlimit="10"/><path d="M20.38 20.02c-1.92 1.848-2.474 4.387-1.238 5.671 1.236 1.284 3.794.826 5.713-1.022 1.92-1.848 2.474-4.387 1.237-5.67-1.236-1.284-3.794-.827-5.713 1.021" fill="#fff"/><path d="M25.543 24.591c-1.355 2.295-1.208 4.89.327 5.795 1.535.906 3.876-.22 5.23-2.515 1.355-2.295 1.209-4.89-.326-5.795-1.535-.906-3.877.22-5.231 2.515" fill="#f9b61d"/><path d="M31.911 30.273c.684 2.692 3.93 5.38 7.25 6.003 3.32.622 5.457-1.056 4.773-3.748-.684-2.693-3.93-5.38-7.25-6.003-3.32-.623-5.457 1.055-4.773 3.748" fill="#f9e007"/><path d="M10.462 19.621c1.368-.127 2.768-.136 4.126.125 1.355.256 2.363.896 3.435 1.7-1.18-.64-2.205-1.065-3.505-1.118-1.303-.057-2.597.142-3.865.449a.588.588 0 1 1-.19-1.156M11.935 15.917c1.406.12 2.545.452 3.871.963 1.326.504 2.53 1.295 3.47 2.305a8.926 8.926 0 0 0-3.646-1.73c-1.308-.294-2.373-.415-3.711-.334a.604.604 0 1 1 .016-1.204" fill="#fff"/><path d="M31.508 21.003c-.085-.855 2.729-2.028 6.284-2.619 3.555-.591 6.506-.377 6.59.478.041.421.315 1.521-6.284 2.619-3.555.59-6.506.377-6.59-.478" fill="#fbd230"/></svg>