<svg xmlns="http://www.w3.org/2000/svg" width="214.48" height="185.745" viewBox="0 0 56.748 49.145"><path d="M19.628 17.882c-2.128 2.048-2.742 4.862-1.371 6.286 1.37 1.422 4.205.915 6.332-1.133 2.128-2.049 2.742-4.863 1.372-6.286-1.37-1.422-4.206-.915-6.333 1.133" fill="#211d1d"/><path d="M25.351 22.948c-1.501 2.544-1.339 5.42.363 6.423 1.701 1.004 4.297-.244 5.798-2.788 1.5-2.543 1.338-5.419-.363-6.422-1.7-1.005-4.297.244-5.798 2.787" fill="#f9b61d"/><path d="M32.41 29.245c.758 2.985 4.356 5.964 8.035 6.654 3.68.69 6.049-1.17 5.29-4.153-.757-2.985-4.355-5.964-8.035-6.655-3.68-.69-6.048 1.17-5.29 4.154" fill="#f9e007"/><path d="M8.636 17.44c1.516-.14 3.069-.151 4.573.138 1.502.284 2.62.993 3.808 1.885-1.309-.71-2.444-1.18-3.885-1.24-1.445-.063-2.88.157-4.284.498a.651.651 0 1 1-.212-1.282M10.269 13.334c1.559.133 2.82.501 4.29 1.067 1.47.559 2.804 1.436 3.846 2.555a9.894 9.894 0 0 0-4.04-1.916c-1.451-.327-2.631-.461-4.114-.371a.67.67 0 1 1 .018-1.335" fill="#211d1d"/><path d="M31.963 18.97c-.094-.947 3.024-2.246 6.965-2.901 3.94-.656 7.211-.418 7.304.53.046.466.35 1.686-6.965 2.902-3.94.655-7.211.418-7.304-.53" fill="#fbd230"/><path d="M14.866 47.969L1.359 24.573 14.866 1.177h27.015L55.39 24.573 41.881 47.969z" fill="none" stroke="#201d1c" stroke-width="1.053" stroke-miterlimit="10"/></svg>