<svg xmlns:rdf="http://www.w3.org/1999/02/22-rdf-syntax-ns#" xmlns="http://www.w3.org/2000/svg" xml:space="preserve" height="210.9" width="699" version="1.1" xmlns:cc="http://creativecommons.org/ns#" xmlns:dc="http://purl.org/dc/elements/1.1/"><defs><clipPath id="clipPath18" clipPathUnits="userSpaceOnUse"><path d="m17 336h561v170h-561v-170z"/></clipPath></defs><g transform="matrix(1.25 0 0 -1.25 -23.24 632.5)"><g clip-path="url(#clipPath18)"><g fill="#2e2a2b"><path d="m195.1 406.6h2.379v13.29c1.809-3.256 4.706-6.101 9.256-6.101 5.428 0 10.81 4.964 10.81 13.75v0.3623c0 8.79-5.378 13.65-10.81 13.65-4.498 0-7.343-2.894-9.256-6.256v5.689h-2.379v-34.38zm11.38 9.461c-4.654 0-9.152 4.395-9.152 11.38v0.4658c0 6.927 4.498 11.38 9.152 11.38 4.602 0 8.531-4.242 8.531-11.48v-0.3623c0-7.343-3.826-11.38-8.531-11.38zm13.23-1.706h2.43v37.33h-2.43v-37.33zm13.07-0.5693c4.188 0 6.981 2.223 8.531 4.809v-4.24h2.379v17.53c0 2.998-0.8798 5.378-2.482 6.877-1.706 1.758-4.136 2.584-7.188 2.584-3.101 0-5.687-0.8778-8.169-2.066l0.9316-2.122c1.913 1.087 4.343 1.915 7.082 1.915 4.654 0 7.446-2.534 7.446-7.343v-1.913c-2.12 0.621-4.292 1.085-7.341 1.085-6.051 0-10.08-3.308-10.08-8.581v-0.2091c0-5.273 4.395-8.324 8.894-8.324zm0.207 2.223c-3.67 0-6.567 2.43-6.567 6.204v0.207c0 3.722 2.637 6.308 7.496 6.308 3.051 0 5.482-0.5155 7.446-1.136v-3.826c0-4.395-3.774-7.757-8.376-7.757zm13.59-1.654h2.381v16.29c0 5.12 3.412 8.738 7.858 8.738 4.498 0 7.03-3.101 7.03-8.48v-16.54h2.43v17.22c0 6.101-3.464 9.978-9.047 9.978-4.24 0-6.774-2.325-8.272-5.169v4.602h-2.381v-26.63zm30.24-0.3623c1.292 0 2.43 0.207 3.517 0.7245v2.223c-1.139-0.4657-2.12-0.6728-3.155-0.6728-2.638 0-4.447 1.087-4.447 4.395v18.1h7.602v2.223h-7.602v8.169h-2.43v-8.169h-3.412v-2.223h3.412v-18.41c0-4.445 2.844-6.36 6.515-6.36"/><path d="m299.5 413.8c4.033 0 6.825 1.553 9.254 4.033l-2.12 2.379c-1.861-1.861-4.033-3.101-6.979-3.101-4.24 0-7.912 3.308-8.326 9.254h18.1c0.0518 0.4658 0.0518 1.19 0.0518 1.553 0 8.117-4.033 13.91-10.81 13.91-6.308 0-11.12-5.739-11.12-13.96v-0.2587c0-8.531 5.378-13.81 11.94-13.81zm-8.171 15.46c0.3623 5.635 3.362 9.308 7.343 9.308 4.395 0 6.825-4.188 7.084-9.308h-14.43zm20.8-14.89h3.724v16.39c0 4.602 2.894 7.705 6.824 7.705 3.931 0 6.204-2.689 6.204-7.498v-16.6h3.724v17.63c0 6.049-3.31 9.823-8.79 9.823-4.033 0-6.463-2.221-7.962-4.911v4.393h-3.724v-26.94zm34.91-0.5693c4.035 0 6.825 1.553 9.256 4.033l-2.12 2.379c-1.861-1.861-4.033-3.101-6.981-3.101-4.24 0-7.91 3.308-8.324 9.254h18.1c0.0518 0.4658 0.0518 1.19 0.0518 1.553 0 8.117-4.033 13.91-10.81 13.91-6.308 0-11.12-5.739-11.12-13.96v-0.2587c0-8.531 5.376-13.81 11.94-13.81zm-8.169 15.46c0.3623 5.635 3.36 9.308 7.343 9.308 4.395 0 6.823-4.188 7.082-9.308h-14.43zm20.8-14.89h3.722v12.82c0 6.929 4.033 10.44 9.049 10.44h0.2071v4.033c-4.395 0.207-7.654-2.532-9.256-6.308v5.946h-3.722v-26.94zm23.74-7.858c3.826 0 6.877 1.033 8.945 3.101 1.913 1.913 2.946 4.654 2.946 8.326v23.37h-3.722v-4.807c-1.809 2.842-4.55 5.325-8.842 5.325-5.48 0-10.65-4.602-10.65-12.72v-0.207c0-8.117 5.12-12.67 10.6-12.67 4.292 0 7.03 2.534 8.892 5.534v-3.931c0-5.376-3.153-8.066-8.221-8.066-3.101 0-6.153 0.9834-8.686 2.638l-1.499-2.998c3.153-1.967 6.618-2.896 10.24-2.896zm0.1553 13.08c-4.188 0-7.652 3.567-7.652 9.409v0.1035c0 5.894 3.412 9.359 7.652 9.359 4.136 0 8.117-3.569 8.117-9.359v-0.1552c0-5.739-3.981-9.357-8.117-9.357zm25.86-0.4657-8.066 22.18h-4.033l10.34-26.94c-1.344-3.464-2.635-4.602-4.654-4.602-1.344 0-2.48 0.4141-3.515 0.9834l-1.137-3.103c1.551-0.8261 3.153-1.24 4.859-1.24 3.621 0 5.946 1.913 7.86 7.496l9.564 27.4h-3.981l-7.239-22.18"/><path d="m443.6 413.8c5.532 0 10.65 4.654 10.65 13.86v0.7245c0 9.254-5.171 13.86-10.65 13.86-3.929 0-6.308-2.275-8.014-4.913v14.32h-5.842v-37.33h5.842v4.136c1.654-2.43 4.033-4.654 8.014-4.654zm-1.602 5.171c-3.517 0-6.515 3.412-6.515 8.79v0.5155c0 5.378 2.998 8.792 6.515 8.792 3.515 0 6.36-3.362 6.36-8.842v-0.4658c0-5.48-2.793-8.79-6.36-8.79zm14.64 26.73h6.204v5.739h-6.204v-5.739zm0.2071-31.38h5.842v27.4h-5.842v-27.4zm20.89-0.5693c7.291 0 12.67 5.946 12.67 14.01v0.4658c0 8.117-5.325 14.01-12.56 14.01-7.289 0-12.67-5.997-12.67-14.06v-0.4658c0-8.117 5.327-13.96 12.56-13.96zm0.1035 5.12c-3.981 0-6.825 3.877-6.825 8.997v0.3105c0 5.118 2.637 8.894 6.722 8.894 3.981 0 6.825-3.828 6.825-8.945v-0.3106c0-5.12-2.637-8.945-6.722-8.945zm15.05-4.55h5.842v37.33h-5.842v-37.33zm20.89-0.5693c7.291 0 12.67 5.946 12.67 14.01v0.4658c0 8.117-5.327 14.01-12.57 14.01-7.289 0-12.67-5.997-12.67-14.06v-0.4658c0-8.117 5.325-13.96 12.56-13.96zm0.1035 5.12c-3.979 0-6.823 3.877-6.823 8.997v0.3105c0 5.118 2.635 8.894 6.72 8.894 3.983 0 6.825-3.828 6.825-8.945v-0.3106c0-5.12-2.637-8.945-6.722-8.945zm25.13-12.46c4.343 0 7.703 1.033 9.875 3.256 2.016 2.016 3.103 5.016 3.103 9.1v22.96h-5.844v-4.084c-1.758 2.43-4.186 4.602-8.221 4.602-5.428 0-10.44-4.395-10.44-12.87v-0.207c0-8.428 4.964-12.82 10.44-12.82 3.981 0 6.36 2.12 8.272 4.809v-2.637c0-4.861-2.635-7.238-7.444-7.238-2.948 0-5.842 0.8778-8.221 2.325l-1.913-4.6c3.153-1.708 6.618-2.586 10.39-2.586zm0.6708 14.99c-3.515 0-6.308 2.998-6.308 7.858v0.0518c0 4.861 2.741 7.807 6.308 7.807 3.517 0 6.567-2.998 6.567-7.807v-0.1035c0-4.755-3.049-7.807-6.567-7.807zm26.12 0.414-6.36 19.9h-6.204l9.773-27.45c-0.828-2.223-1.758-2.896-3.31-2.896-1.085 0-2.223 0.414-3.153 0.9315l-1.706-4.498c1.706-0.9296 3.515-1.447 5.532-1.447 4.033 0 6.256 2.016 8.117 7.548l9.308 27.82h-6.049l-5.948-19.9"/></g><g fill-rule="evenodd"><path d="m148.2 480.4 10.35-5.978 0.008-0.0318c8.633-5.171 14.28-14.6 14.14-25.39v-0.004l-0.0119-54.92c0.0736-10.54-5.118-17.26-9.138-21l-1.919-0.2548c-6.398-0.9275-12.99-0.7225-19.57 0.1832 6.039 5.737 11.02 12.58 14.6 20.2 0.209 0.4459 0.412 0.8977 0.6131 1.35-5.426-2.767-10.43-5.132-12.47-5.828-7.124-2.444-10.22 2.076-11.5 5.922-0.9853 2.938-0.6329 7.287 0.4877 12.39 1.121 5.102 3.014 10.96 5.106 16.9 2.926 8.322 6.051 17.3 8.079 26.47 1.957 8.848 2.892 17.88 1.648 26.68-0.0339 0.2349-0.2767 2.192-0.422 3.316" fill="#becf5a"/><path d="m110.9 501.9 34.57-19.96 0.3046-2.395c0.619-4.377 0.6986-8.812 0.3801-13.26-2.858 3.242-6.025 6.206-9.453 8.848-3.786 2.914-7.892 5.436-12.25 7.504-0.4539 0.215-0.9117 0.428-1.372 0.633 2.769-5.43 5.136-10.44 5.836-12.48 2.442-7.124-2.08-10.22-5.922-11.51-2.94-0.9833-7.289-0.629-12.39 0.4917-5.102 1.121-10.96 3.012-16.9 5.102-8.422 2.964-17.52 6.041-26.8 7.98-7.805 1.626-15.75 2.448-23.54 1.72-0.8718-0.0796-3.241-0.3901-5.337-0.6807-0.828-0.1135-2.87-0.6191-4.6-0.9017-0.6549-0.1075-2.397-0.6131-4.017-1.099 2.542 2.034 4.847 3.386 7.647 5l43.18 24.91c9.351 5.866 21.29 5.904 30.67 0.0936" fill="#a6bd28"/><path d="m43.62 362.8-8.915 5.148c-10.51 5.639-16.43 15.03-16.08 27.63v26.13l-0.03782 27.67c0 9.71 4.202 16.06 8.064 19.96 1.288 0.3782 2.496 0.7146 3.018 0.8001 1.728 0.2827 3.772 0.7883 4.598 0.9017 2.098 0.2926 4.467 0.6012 5.339 0.6828 3.692 0.3443 7.417 0.3404 11.14 0.0696-6.676-5.999-12.15-13.32-16-21.54-0.215-0.4558-0.422-0.9136-0.625-1.375 5.571 2.9 10.65 5.372 12.6 6.041 7.124 2.444 10.22-2.078 11.51-5.922 0.9813-2.938 0.631-7.289-0.4897-12.39-1.123-5.102-3.012-10.96-5.104-16.9-2.922-8.304-5.999-17.36-7.986-26.62-1.943-9.053-2.844-18.3-1.539-27.21 0.02588-0.1732 0.3921-2.365 0.5116-3.073" fill="#768d28"/><path d="m160.5 370.5c-0.8519-0.6369-1.431-1.029-1.566-1.196l-24.8-14.32-23.5-13.55c-4.391-2.669-9.55-4.208-15.07-4.208-5.834 0-11.27 1.724-15.82 4.686l-33.81 19.52c-0.1572 0.9276-0.3742 2.239-0.3941 2.373-0.6529 4.453-0.7524 8.987-0.4498 13.54 6.077-6.921 13.55-12.58 21.98-16.55 0.4439-0.209 0.8937-0.4121 1.344-0.6111-2.825 5.436-5.257 10.48-5.966 12.55-2.442 7.124 2.078 10.22 5.922 11.51 2.938 0.9833 7.287 0.6309 12.39-0.4897 5.102-1.121 10.96-3.012 16.9-5.104 8.267-2.906 17.34-5.97 26.62-7.954 9.134-1.953 18.46-2.864 27.4-1.57 0.0976 0.014 2.817 0.3762 4.538 0.6032 0.2707 0.0378 2.201 0.3961 4.278 0.7782" fill="#dee5a2"/><path d="m46.25 361.3-0.2747 0.1572c-0.1553 0.9256-0.3742 2.239-0.3921 2.373-0.6529 4.453-0.7524 8.987-0.4498 13.54 3.605-4.104 7.699-7.769 12.19-10.9l-11.08-5.175" fill="#becf5a"/><path d="m150.3 382.5 13.27-9.359-0.0697-0.0657-1.919-0.2548c-6.398-0.9275-12.99-0.7225-19.57 0.1832 3.05 2.896 5.83 6.077 8.296 9.497" fill="#a6bd28"/><path d="m134.3 476.9 11.03 5.116 0.199-0.1154 0.3046-2.395c0.619-4.377 0.6986-8.812 0.3801-13.26-2.858 3.242-6.025 6.206-9.453 8.848-0.8062 0.619-1.624 1.22-2.458 1.803" fill="#768d28"/><path d="m26.49 469.2 15.05-7.526c2.721 3.686 5.808 7.084 9.21 10.14-3.728 0.2708-7.452 0.2747-11.14-0.0696-0.8718-0.0816-3.241-0.3902-5.339-0.6828-0.826-0.1134-2.868-0.619-4.598-0.9017-0.5215-0.0855-1.73-0.4219-3.018-0.8001l-0.1572-0.1613" fill="#596222"/></g><path d="m221.3 389.6 3.356 8.472h1.19l3.304-8.472h-1.294l-0.9236 2.343h-3.577l-0.9355-2.343h-1.121zm2.402 3.246h2.88l-1.439 3.637-1.441-3.637zm14.22-3.246v8.472h2.566c0.8121 0 1.435-0.1791 1.869-0.5374 0.4339-0.3583 0.6509-0.8798 0.6509-1.563 0-0.5374-0.1473-1.017-0.4379-1.437-0.2926-0.418-0.7027-0.7405-1.23-0.9654l2.781-3.969h-1.475l-2.371 3.585h-1.146v-3.585h-1.206zm1.206 4.489h0.3901c0.7385 0 1.298 0.1493 1.682 0.4499 0.3862 0.3005 0.5773 0.7404 0.5773 1.318 0 0.8758-0.631 1.312-1.895 1.312h-0.7544v-3.079zm20.11-4.055c-0.834-0.43-1.746-0.6449-2.733-0.6449-1.316 0-2.331 0.3841-3.048 1.156-0.7166 0.7704-1.075 1.865-1.075 3.284 0 1.415 0.3663 2.512 1.097 3.288 0.7265 0.7762 1.76 1.164 3.087 1.164 0.7544 0 1.642-0.1254 2.659-0.3742v-1.125c-1.158 0.3962-2.05 0.5972-2.679 0.5972-0.9177 0-1.628-0.3105-2.134-0.9335-0.5016-0.6211-0.7524-1.499-0.7524-2.632 0-1.083 0.2687-1.935 0.8062-2.556 0.5374-0.623 1.272-0.9335 2.206-0.9335 0.7962 0 1.652 0.2468 2.566 0.7385v-1.031zm22.31 0c-0.834-0.43-1.748-0.6449-2.733-0.6449-1.316 0-2.331 0.3841-3.047 1.156-0.7166 0.7704-1.075 1.865-1.075 3.284 0 1.415 0.3663 2.512 1.095 3.288 0.7285 0.7762 1.762 1.164 3.089 1.164 0.7544 0 1.64-0.1254 2.659-0.3742v-1.125c-1.158 0.3962-2.05 0.5972-2.679 0.5972-0.9176 0-1.628-0.3105-2.134-0.9335-0.5016-0.6211-0.7524-1.499-0.7524-2.632 0-1.083 0.2687-1.935 0.8062-2.556 0.5374-0.623 1.27-0.9335 2.203-0.9335 0.7982 0 1.652 0.2468 2.568 0.7385v-1.031zm9.284-0.434v8.472h4.733v-0.9037h-3.527v-2.717h2.954v-0.9017h-2.954v-3.048h3.772v-0.9017h-4.978zm13.89 0v8.472h1.178l4.26-6.551v6.551h1.029v-8.472h-1.17l-4.266 6.551v-6.551h-1.031zm18.21 0v7.568h-3v0.9037h7.206v-0.9037h-3v-7.568h-1.206zm12.93 0v8.472h2.566c0.8121 0 1.435-0.1791 1.869-0.5374 0.432-0.3583 0.6509-0.8798 0.6509-1.563 0-0.5374-0.1473-1.017-0.4379-1.437-0.2946-0.418-0.7046-0.7405-1.23-0.9654l2.781-3.969h-1.475l-2.371 3.585h-1.146v-3.585h-1.206zm1.206 4.489h0.3881c0.7385 0 1.3 0.1493 1.684 0.4499 0.3841 0.3005 0.5752 0.7404 0.5752 1.318 0 0.8758-0.631 1.312-1.893 1.312h-0.7544v-3.079zm13.74-4.489v8.472h4.733v-0.9037h-3.527v-2.717h2.956v-0.9017h-2.956v-3.048h3.774v-0.9017h-4.98zm24.02-0.2109c-1.2 0-2.162 0.404-2.882 1.21-0.7185 0.8061-1.077 1.885-1.077 3.236 0 1.352 0.3583 2.43 1.077 3.237 0.7206 0.8061 1.682 1.21 2.882 1.21 1.202 0 2.162-0.4041 2.882-1.21 0.7186-0.8062 1.079-1.885 1.079-3.237s-0.3602-2.43-1.079-3.236c-0.7206-0.8062-1.68-1.21-2.882-1.21zm0 0.9016c0.8439 0 1.503 0.3145 1.974 0.9416 0.4738 0.627 0.7086 1.499 0.7086 2.616 0 1.109-0.2348 1.974-0.7086 2.598-0.4717 0.623-1.131 0.9355-1.974 0.9355-0.842 0-1.501-0.3125-1.975-0.9355-0.4718-0.6231-0.7086-1.489-0.7086-2.598 0-1.117 0.2368-1.988 0.7086-2.616 0.4737-0.6271 1.133-0.9416 1.975-0.9416zm13.18-0.6907v8.472h4.733v-0.9037h-3.527v-2.834h2.96v-0.9016h-2.96v-3.832h-1.206zm20.48 0v8.472h4.733v-0.9037h-3.527v-2.717h2.956v-0.9017h-2.956v-3.048h3.774v-0.9017h-4.98zm12.89 0 2.809 4.25-2.667 4.222h1.429l2.032-3.183 2.134 3.183h1.131l-2.703-4.082 2.773-4.389h-1.429l-2.146 3.356-2.223-3.356h-1.138zm22.23 0.434c-0.834-0.43-1.746-0.6449-2.731-0.6449-1.318 0-2.333 0.3841-3.05 1.156-0.7166 0.7704-1.073 1.865-1.073 3.284 0 1.415 0.3643 2.512 1.095 3.288 0.7285 0.7762 1.76 1.164 3.089 1.164 0.7544 0 1.64-0.1254 2.657-0.3742v-1.125c-1.158 0.3962-2.05 0.5972-2.679 0.5972-0.9176 0-1.628-0.3105-2.132-0.9335-0.5017-0.6211-0.7544-1.499-0.7544-2.632 0-1.083 0.2707-1.935 0.8061-2.556 0.5374-0.623 1.272-0.9335 2.206-0.9335 0.7962 0 1.652 0.2468 2.566 0.7385v-1.031zm9.284-0.434v8.472h4.733v-0.9037h-3.527v-2.717h2.956v-0.9017h-2.956v-3.048h3.774v-0.9017h-4.98zm13.89 0v8.472h1.206v-7.57h3.808v-0.9017h-5.014zm13.79 0v8.472h1.208v-7.57h3.808v-0.9017h-5.016zm13.79 0v8.472h4.733v-0.9037h-3.527v-2.717h2.956v-0.9017h-2.956v-3.048h3.774v-0.9017h-4.98zm13.89 0v8.472h1.178l4.26-6.551v6.551h1.029v-8.472h-1.17l-4.264 6.551v-6.551h-1.033zm22.56 0.434c-0.834-0.43-1.746-0.6449-2.733-0.6449-1.316 0-2.331 0.3841-3.047 1.156-0.7166 0.7704-1.075 1.865-1.075 3.284 0 1.415 0.3663 2.512 1.097 3.288 0.7285 0.7762 1.76 1.164 3.089 1.164 0.7524 0 1.64-0.1254 2.657-0.3742v-1.125c-1.158 0.3962-2.05 0.5972-2.679 0.5972-0.9176 0-1.628-0.3105-2.132-0.9335-0.5016-0.6211-0.7544-1.499-0.7544-2.632 0-1.083 0.2707-1.935 0.8062-2.556 0.5374-0.623 1.272-0.9335 2.205-0.9335 0.7962 0 1.652 0.2468 2.566 0.7385v-1.031zm9.284-0.434v8.472h4.733v-0.9037h-3.527v-2.717h2.956v-0.9017h-2.956v-3.048h3.774v-0.9017h-4.98" fill="#4f4c4d"/></g></g></svg>
