<svg xmlns:rdf="http://www.w3.org/1999/02/22-rdf-syntax-ns#" xmlns="http://www.w3.org/2000/svg" xml:space="preserve" height="303.6" viewBox="0 0 923.86249 303.63751" width="923.9" version="1.1" xmlns:cc="http://creativecommons.org/ns#" xmlns:dc="http://purl.org/dc/elements/1.1/"><g transform="matrix(1.25 0 0 -1.25 0 303.6)"><g transform="scale(.1)"><g><path d="m1918 732.1c-182-298.2-498-476.2-848-476.2-349.3 0-665.7 178-847.8 476.2l-190.4-176.4c106.5-159.3 249-293.2 415.2-389.1 188.7-109 404.3-166.6 623-166.6 219 0 434.6 57.6 623.3 166.6 161.4 93.15 305.3 239.9 410.8 393.2l-186.3 172.3" fill="#293d9b"/><path d="m243.9 2366h1653v62.78h-1653v-62.78z" fill="#daac06"/><path d="m1897 1768c-3-185 40-916.2-827-1428-866.3 511.8-822.9 1243-826.1 1428v598.7h1653v-598.7" fill="#293d9b"/><path d="m353.1 1125c104.9-257.2 311.2-545.1 716.9-784.9 406 239.8 612.3 527.8 717.2 785.1l-717 663-716.9-663" fill="#daac06"/></g><g fill="#fff"><path d="m935.7 2203v-318.7c-85.57 31.41-188.7 6.39-243.5-33.92v315.7c48.08 46.84 161.4 67.76 243.5 36.89" fill-rule="evenodd"/><path d="m425.2 2202v-318.7c85.51 31.41 188.7 6.38 243.5-33.92v315.7c-48.07 46.84-161.4 67.77-243.5 36.89" fill-rule="evenodd"/><g><path d="m1009 1949-0.7 0.11c-12.23 1.31-21.57 2.01-27.93 2.38v104c6.211-0.37 15.28-1.05 27.23-2.33l1.4-0.04c24.44-1.1 27.8 11.36 27.8 11.36-5.55 12.89-17.87 18.71-27.8 19.52l-0.7 0.08c-12.23 1.32-21.57 2.03-27.93 2.41v87.8h-21.62v-320.4c-117.8 25.13-206.8 12.18-278.4-40.39-71.62 52.57-160.6 65.5-278.4 40.39v320.4h-21.62v-87.8c-4.539-0.27-10.54-0.69-18.14-1.39v3.26c0 2.44-1.992 4.43-4.824 4.41l-29.38-3.17c-2.363-0.16-4.199-2.06-4.199-4.47v-37.57c0-2.45 2.011-4.43 5.039-4.35l29.26 2.86c2.266 0.23 4.102 2.18 4.102 4.47v3.58c7.606 0.72 13.61 1.14 18.14 1.4v-104c-4.539-0.27-10.54-0.69-18.14-1.41v3.33c0 2.44-1.992 4.38-4.824 4.38l-29.38-3.18c-2.363-0.12-4.199-2.06-4.199-4.51v-37.5c0-2.44 2.011-4.44 5.039-4.38l29.26 2.96c2.266 0.15 4.102 2.07 4.102 4.41v3.56c7.606 0.71 13.61 1.13 18.14 1.39v-93.84l13.28 3.08c121.2 28.27 210.2 16.05 280.1-38.41l6.661-5.27 6.699 5.27c69.8 54.46 158.8 66.66 280.1 38.41l13.26-3.08v93.81c6.211-0.36 15.28-1.04 27.23-2.32l1.4-0.06c24.44-1.1 27.8 11.37 27.8 11.37-5.55 12.88-17.87 18.7-27.8 19.5"/><path d="m397.7 314.6c-11.56-14.96-31.05-17.36-51.82-1.301-11.17 8.621-18.24 17.88-22.54 25.56l11.11 14.37c0.828 1.07 2.113 1.019 3.445-0.2l6.762-5.98c0.469-0.36 0.887-1.059 0.363-1.981l-4.719-6.597c4.567-5.621 9.606-10.65 13.4-13.58 10.81-8.348 22.09-11.18 29.7-1.321 8.164 10.57 5.781 15.82-7.465 36.49-9.449 15.26-13.36 29.09-3.18 42.27 11.46 14.84 30.36 15.99 50.43 0.481 7.359-5.68 13.82-11.81 19.18-18.61l-12.1-15.5c-0.82-1.071-2.113-1.02-3.453 0.199l-6.75 5.98c-0.481 0.371-0.891 1.071-0.359 1.981l4.71 6.601c-2.925 2.84-5.949 5.547-8.917 7.84-11.05 8.528-22.24 9.028-28.57 0.828-6.601-8.55-4-15.49 7.77-33.88 12.39-19.05 12.1-31.72 2.922-43.59"/><path d="m512.8 227.4c0.648-0.367 0.808-1 0.433-1.64l-9.301-15.77-62.68 36.94c-1.028 0.609-1.094 1.691-0.207 2.91l4.199 6.23c0.23 0.379 0.797 0.75 1.648 0.418l3.899-1.949 47.52 80.66-3.851 2.621c-0.906 0.528-0.77 1.668 0.051 2.75l4.203 6.239c0.375 0.64 0.988 0.812 1.636 0.421l60.49-35.64-9.293-15.77c-0.614-1.043-1.688-1.09-2.899-0.211l-6.25 4.2c-0.379 0.23-0.746 0.789-0.414 1.64l1.949 3.91-32.19 18.96-18.05-30.63 36.46-21.48-7.02-11.89-36.44 21.48-19.87-33.74 34.38-20.26 2.617 3.847c0.535 0.911 1.66 0.77 2.754-0.05l6.231-4.2"/><path d="m644.1 166c0.688-0.301 0.93-0.89 0.637-1.582l-7.258-16.81-66.83 28.82c-1.102 0.48-1.289 1.551-0.563 2.859l3.387 6.711c0.176 0.41 0.692 0.848 1.574 0.629l4.114-1.449 37.09 85.98-4.156 2.118c-0.965 0.421-0.961 1.562-0.281 2.742l3.379 6.719c0.297 0.679 0.887 0.921 1.574 0.621l64.49-27.81-7.25-16.81c-0.472-1.11-1.543-1.301-2.855-0.571l-6.711 3.383c-0.414 0.188-0.844 0.699-0.629 1.59l1.445 4.109-34.3 14.8-14.09-32.66 38.85-16.76-5.461-12.68-38.86 16.77-15.51-35.97 36.65-15.81 2.129 4.152c0.414 0.969 1.55 0.969 2.73 0.289l6.711-3.379"/><path d="m821.9 211.4c1.152-0.32 1.484-1.347 0.937-2.75l-2.469-7.097c-0.125-0.43-0.57-0.93-1.476-0.832l-4.262 0.89-46.98-27.92 20.6-61.89 4.25-1.512c1.012-0.289 1.156-1.418 0.645-2.668l-2.461-7.102c-0.204-0.73-0.754-1.039-1.481-0.8316l-15.44 4.34-20.34 61.2-13.08-7.703-8.411-29.88 4.391-1.55c1.012-0.289 1.168-1.418 0.656-2.68l-2.472-7.098c-0.203-0.722-0.754-1.031-1.473-0.832l-24.69 6.949c-1.157 0.321-1.489 1.364-0.942 2.762l2.461 7.102c0.133 0.429 0.578 0.929 1.485 0.82l4.265-0.891 25.36 90.1-4.387 1.563c-1.02 0.277-1.168 1.41-0.656 2.668l2.468 7.101c0.207 0.719 0.758 1.027 1.473 0.828l24.69-6.949c1.153-0.32 1.496-1.352 0.942-2.762l-2.465-7.097c-0.121-0.43-0.574-0.922-1.481-0.832l-4.265 0.89-11.34-40.28 49.16 29.64-4.39 1.55c-1.004 0.282-1.157 1.411-0.641 2.672l2.461 7.098c0.203 0.723 0.754 1.031 1.48 0.832l27.87-7.852"/><path d="m1086 180.8c1.21-0.063 1.75-0.992 1.53-2.492l-0.85-7.461c-0.02-0.457-0.34-1.039-1.26-1.137l-4.21-0.082-30.52-98.34c-1.07-3.25-3.87-5.059-7.16-4.891l-11.68 1.062c-1.64 0.0898-2.18 1.168-2.55 2.84l-15.8 88.74-0.17 0.012-24.44-82.73c-0.911-2.961-3.078-7.051-8.317-6.633l-11.22 1.043c-1.347 0.0586-2.203 0.8594-2.55 2.828l-19.27 103-4.468 0.543c-1.063 0.058-1.458 1.128-1.239 2.468l0.84 7.461c0.039 0.758 0.52 1.18 1.27 1.141l24.73-1.293c1.203-0.059 1.754-0.988 1.524-2.481l-0.84-7.468c-0.024-0.45-0.36-1.032-1.266-1.141l-4.211-0.078 14.63-88.37 0.141-0.0078 26.23 90.75c1.47 5.18 4.11 6.848 7.7 6.508l8.52-0.899c1.49-0.23 2.05-1.011 2.4-2.972l16.75-96.6 0.14-0.0117 24.65 86.32-4.47 0.531c-1.06 0.059-1.46 1.141-1.24 2.48l0.84 7.469c0.04 0.75 0.52 1.172 1.27 1.129l24.57-1.277"/><path d="m1180 82.88c1.04 0.082 1.58-0.918 1.54-2.277l0.19-7.52c0.06-0.7422-0.35-1.23-1.1-1.301l-25.56-2.141c-1.2-0.1015-1.86 0.7383-1.85 2.25l-0.18 7.508c-0.03 0.4532 0.21 1.082 1.09 1.301l4.31 0.6602-7.84 93.27-4.67-0.09c-1.05-0.09-1.57 0.922-1.54 2.27l-0.18 7.523c-0.07 0.75 0.34 1.227 1.09 1.289l25.56 2.16c1.2 0.09 1.87-0.75 1.84-2.25l0.19-7.519c0.03-0.442-0.21-1.071-1.1-1.293l-4.31-0.668 7.85-93.26 4.67 0.0898"/><path d="m1322 126.1c3.58-18.55-7.51-34.74-33.29-39.71-13.85-2.66-25.45-1.84-34.06 0.0078l-3.43 17.83c-0.25 1.32 0.63 2.25 2.43 2.449l8.95 1.11c0.59 0.109 1.38-0.04 1.72-1.04l1.84-7.898c7.22-0.2929 14.32 0.1563 19.03 1.066 13.41 2.582 22.98 9.161 20.62 21.39-2.52 13.1-8.04 14.79-32.28 18.52-17.68 3.011-30.64 9.222-33.79 25.57-3.54 18.41 8.1 33.33 32.99 38.12 9.13 1.762 17.99 2.551 26.63 2.07l3.72-19.29c0.25-1.32-0.64-2.261-2.44-2.449l-8.94-1.121c-0.59-0.109-1.39 0.039-1.74 1.051l-1.82 7.886c-4.06-0.316-8.09-0.789-11.78-1.5-13.69-2.636-21.45-10.7-19.5-20.86 2.05-10.61 8.96-13.25 30.54-16.58 22.48-3.301 31.76-11.9 34.6-26.63"/><path d="m1432 138.1c30.14 10.13 30.14 33.23 22.54 55.84-8.41 25.02-19.96 39.65-52.68 28.67l-12.36-4.16 28.57-85.03 13.93 4.68zm-34.2 97.06c44.08 14.81 62.72-2.5 73.9-35.78 13.89-41.37-1.13-62.57-39.38-75.41l-30.14-10.13c-1.14-0.391-2 0.281-2.33 1.742l-1.96 7.258c-0.15 0.43-0.06 1.09 0.75 1.519l4.03 1.672-29.81 88.72-4.51-1.191c-0.99-0.329-1.75 0.511-2.04 1.839l-1.96 7.262c-0.24 0.711 0.04 1.281 0.75 1.52l32.7 10.98"/><path d="m1544 230.5c8.8-17.55 24.27-38.32 46.26-27.28 18.22 9.148 18.32 28.67 5.87 53.46-9.01 17.97-24.55 37.85-46.13 27.02-21.97-11.04-14.75-35.77-6-53.2zm68.08 33.85c17.83-35.51 10.76-60.54-15.51-73.73-25.99-13.05-50.83-3.371-68.39 31.61-12.66 25.2-17 57.58 15.7 74 28.02 14.06 52.45-0.52 68.2-31.88"/><path d="m1793 327.7c0.86 0.61 1.83 0.008 2.5-1.171l3.97-6.379c0.44-0.61 0.33-1.239-0.29-1.68l-20.54-14.59c-0.97-0.691-1.99-0.301-2.73 1.012l-3.98 6.367c-0.27 0.371-0.36 1.031 0.29 1.672l3.25 2.68-42.87 57.5 15.54-72.13c0.56-2.352 0.56-4.93-1.27-6.231-1.35-0.961-3.43-2.429-4.74-3.179-1.43-0.84-2.42-0.993-3.69-0.243l-65.4 39.48 39.93-59.58 3.97 2.437c0.86 0.61 1.83 0.02 2.48-1.168l3.99-6.383c0.43-0.609 0.32-1.226-0.28-1.668l-20.06-14.24c-0.98-0.687-2-0.308-2.74 1l-3.98 6.371c-0.26 0.371-0.35 1.039 0.3 1.672l3.35 2.77-51.49 78.22-3.85-2.36c-0.85-0.609-1.83-0.012-2.49 1.172l-3.98 6.379c-0.43 0.609-0.32 1.238 0.29 1.68l14.67 10.42c0.62 0.429 1.24 0.32 1.83 0.011l76.95-46.17-19.03 86.38c-0.29 1.449 0.06 2.25 1.15 3.028l15.29 10.86c0.98 0.687 1.99 0.308 2.73-1.012l3.98-6.371c0.26-0.367 0.37-1.027-0.27-1.68l-3.38-2.757 56.76-74.49 3.84 2.371"/></g></g><path d="m78.75 642.1 121.5 112.3 27.58 25.95 15.39-25.46c26.5-43.95 56.06-85.18 88.14-123.6l41.23 37.5c-55.9 67.44-101.5 143.2-135 225.4-12.62 30.96-23.32 62.5-32.17 94.46l-65.9-169.9-139.4-19.5c0.2148-0.59 0.4297-1.172 0.6445-1.719l78.11-155.5" fill="#293d9b"/><g fill="#fff"><path d="m1716 2203v-318.7c-85.56 31.41-188.7 6.39-243.5-33.92v315.7c48.08 46.84 161.4 67.76 243.5 36.89" fill-rule="evenodd"/><path d="m1206 2202v-318.7c85.5 31.41 188.7 6.38 243.4-33.92v315.7c-48.06 46.84-161.4 67.77-243.4 36.89" fill-rule="evenodd"/><path d="m1790 1949-0.7 0.11c-12.24 1.31-21.57 2.01-27.93 2.38v104c6.21-0.37 15.28-1.05 27.23-2.33l1.4-0.04c24.44-1.1 27.8 11.36 27.8 11.36-5.55 12.89-17.87 18.71-27.8 19.52l-0.7 0.08c-12.24 1.32-21.57 2.03-27.93 2.41v87.8h-21.62v-320.4c-117.8 25.13-206.8 12.18-278.4-40.39-71.62 52.57-160.6 65.5-278.4 40.39v320.4h-21.62v-87.8c-4.54-0.27-10.54-0.69-18.14-1.39v3.26c0 2.44-2 4.43-4.83 4.41l-29.37-3.17c-2.37-0.16-4.2-2.06-4.2-4.47v-37.57c0-2.45 2.01-4.43 5.04-4.35l29.26 2.86c2.26 0.23 4.1 2.18 4.1 4.47v3.58c7.6 0.72 13.61 1.14 18.14 1.4v-104c-4.54-0.27-10.54-0.69-18.14-1.41v3.33c0 2.44-2 4.38-4.83 4.38l-29.37-3.18c-2.37-0.12-4.2-2.06-4.2-4.51v-37.5c0-2.44 2.01-4.44 5.04-4.38l29.26 2.96c2.26 0.15 4.1 2.07 4.1 4.41v3.56c7.6 0.71 13.61 1.13 18.14 1.39v-93.84l13.28 3.08c121.2 28.27 210.2 16.05 280.1-38.41l6.66-5.27 6.7 5.27c69.81 54.46 158.8 66.66 280.1 38.41l13.26-3.08v93.81c6.21-0.36 15.28-1.04 27.23-2.32l1.4-0.06c24.44-1.1 27.8 11.37 27.8 11.37-5.55 12.88-17.87 18.7-27.8 19.5"/></g><path d="m2061 642.1-121.5 112.3-27.58 25.95-15.39-25.46c-26.51-43.95-56.06-85.18-88.15-123.6l-41.23 37.5c55.9 67.44 101.5 143.2 135 225.4 12.62 30.96 23.32 62.5 32.17 94.46l66.11-169.8 139.4-19.51c-0.22-0.59-0.43-1.172-0.64-1.719l-78.11-155.5" fill="#293d9b"/><g fill="#fff"><path d="m1112 870.6c48.79-24.4 90.63-36.47 115.9-34.85 0.76 0.043 2.62 0.082 3.4 0.121 8.65 0.629 19.8 3.032 28.12 8.051 7.58 4.551 12.62 9.391 16.94 15.64 5 7.347 7.17 13.58 7.58 21.35-3.17-1.207-6.31-2.168-9.24-2.91-0.78-0.187-2.7-0.566-3.48-0.738-28.34-4.43-63.81-0.59-112.8 12.67-7.99-8.981-24.47-13.98-41.99-9.801-1.47-3.281-2.95-6.391-4.5-9.531"/><path d="m1182 1138c-1.27-3.08-2.64-6.03-4.34-9.06-7.28-12.62-17.28-22.01-27.36-26.97 0.12-3.23 0.16-6.45 0.2-9.71 20.99 9.14 42.3 19.65 63.51 31.05 78.71 42.19 134.2 89.09 151.5 122.5 0.43 0.8 1.48 2.7 1.87 3.52 4.69 9 8.91 21.66 8.91 33.02 0 19.3-8.21 36.12-20.55 45.12-16.27-37.81-46.07-80.62-86.89-120.7-27.7-27.23-57.37-50.46-86.82-68.74"/><path d="m1171 939.7c-6.91-7.582-18.9-14.55-32.98-15.8-2.86-0.23-5.41-0.391-8.15-0.312-0.82-2.868-1.7-5.668-2.64-8.477 70.77-19.76 129.9-24.02 160.1-14.32 0.74 0.199 2.66 0.75 3.4 0.976 8.71 2.793 19.47 8.153 26.72 15.35 6.56 6.621 10.51 12.81 13.32 20.37 3.22 8.687 2.17 16.12 2.17 16.12-2.97-2.07-17.72-6.844-17.72-6.844-27.73-10.1-75.12-12.17-144.3-7.066"/><path d="m1371 1123c-26.11-28.72-93.42-60.61-182.6-82.06-5.71-9.12-16.29-17.55-29.79-22.46-3.89-1.44-7.79-2.46-11.58-3.14-0.35-3.03-0.72-5.86-1.08-8.85 7.03 0.24 14.05 0.57 21.12 0.96 89.2 5 159.3 24.06 189 47.01 0.74 0.53 2.52 1.82 3.2 2.32 8.01 6.23 17.27 15.92 22.07 26.22 4.36 9.35 6.08 17.34 6.16 26.26 0.05 10.32-1.94 17.86-6.59 25.59-2.32-3.24-4.72-6.25-7.07-8.81-0.62-0.72-2.22-2.32-2.89-3.04"/><path d="m1216 812.7c-28.12 0.64-68.55 13.38-115.8 36.93-2.2-3.668-4.37-7.187-6.68-10.62 36.35-18.97 69.08-31.9 95.84-38.17-1.29-1.441-2.65-2.871-4.26-4.351-5.62-5.16-11.62-8.688-20-11.47-9.23-3.012-20.68-2.871-29.23-1.418-0.78 0.09-2.6 0.469-3.34 0.617-15.84 2.582-36.86 11.99-60.84 27.38-2.82-2.852-5.65-5.523-8.52-8.062 25-16.6 47.35-27.58 64.96-32.03-4.57-3.597-9.18-5.816-15.72-7.617-7.75-2.051-17.11-1.43-24.14 0.078-0.63 0.121-2.07 0.531-2.7 0.641-12.16 2.68-27.87 10.53-45.6 22.87-3.99-2.031-8.05-3.731-12.07-5.191-7.62-2.27-18.34-4.399-26.23-4.399-23.58 0-45.96 10.73-65.9 30-0.801 0.75-6.641-5.25-5.84-6.012 19.78-21.64 45.64-33.85 71.25-33.85 8.3 0 28.46 2.91 35.94 7.558 21.09-14.63 38.28-21.58 52.3-23.91 0.68-0.109 2.33-0.449 3.01-0.539 7.77-1.23 18.12-1.391 26.52 1.34 7.56 2.461 13.01 5.687 18.11 10.37 2.07 1.918 4.16 3.969 5.62 5.918 8.91-0.988 19.61-0.738 28.48 2.109 9.24 3.012 15.84 6.973 22.01 12.64 5.14 4.711 10 9.059 12.4 14.24 13.85-0.566 24.75 1.742 24.75 1.742 5.21 0.84 11.17 2.61 16.15 7.051 3.56 3.219 5.96 6.149 7.5 10.04-10.99-3.23-22.97-4.34-32.79-4.179-1.11 0.07-4 0.211-5.2 0.289"/><path d="m1261 1128c-22.52-13.79-45.46-25.61-68.2-35.26-2.56-4.43-5.78-8.88-9.53-13.04-10.12-11.23-22.27-18.52-33.52-21.04-0.13-3.16-0.33-6.37-0.46-9.51 13.04 2.95 26.3 6.31 39.55 9.88 86.17 23.44 150.8 56.66 175.1 85.33 0.59 0.65 2.07 2.27 2.62 2.97 6.58 7.74 13.57 19.1 16.15 30.18 4.34 18.81 0.94 33.82-9.02 45.34-24.36-33.13-63.97-64.93-112.7-94.85"/><path d="m1364 1041c-0.75-0.61-2.91-2.17-3.64-2.73-28.49-22.02-92.03-39.75-174.2-46.8l-0.07-0.039c-5.49-5.332-12.46-11.58-20.43-15.31-8.62-4.012-17.42-6.41-25.59-7.031-0.58-3.192-1.25-5.039-1.89-8.192 0.54-0.058 0.97-0.078 1.56-0.168 88.73-10.53 161.1-3.992 194.3 13.49 0.83 0.41 2.8 1.332 3.56 1.699 9.02 4.832 19.77 12.7 26.29 22.01 5.9 8.459 9 16.02 10.64 24.77 1.78 10.17 1.27 17.13-1.95 25.58-2.85-2.79-5.84-5.15-8.61-7.28"/><path d="m1184 1209c0.04-10.54-3.3-22.75-9.94-34.23-7.23-12.46-16.97-21.91-26.97-26.88 0.33-3.34 0.66-6.64 0.95-10.03 35.33 19.33 71.84 46.23 105.3 79.09 40 39.34 69.14 80.96 85.07 118 4.4 10.15 6.57 22.45 5.69 35.65-1.86 26.83-15.88 49.11-33.75 56.51 0.35-5.1 0.11-10.46-0.61-15.94-3.92-37.34-38.55-101.5-96.56-169.4-9.57-11.19-19.28-22.21-29.18-32.76"/><path d="m1198 1251c57.22 68.66 91.05 133.2 94.53 170.6 2.85 23.45-3.11 45.2-16.29 52.87-1.06-33.39-46.37-114.7-118.2-205.8 6.73-12.65 3.65-33.93-7.27-52.56-3.65-6.29-5.82-8.47-12.3-14.95 0.84-4.08 1.6-8.41 2.34-12.57 19.39 18.88 38.67 40.14 57.19 62.39"/></g><path d="m745.2 1212c-1.758 0.69-3.516 1.31-5.293 1.8 0.762-7.95 0.801-16.56 0.762-25.49-0.176-22.01-3.047-42.93-7.559-60.13-1.152-4.61 0.879-9.05 4.824-10.65 1.25-0.51 2.656-0.66 3.965-0.49l0.078 0.24c7.031 16.07 16.11 33.75 27.05 51.77 2.012 3.36 4.004 6.64 6.016 9.87-3.672 14.14-14.36 26.79-29.84 33.08" fill="#231f20"/><path d="m1359 1057c-0.68-0.5-2.46-1.79-3.2-2.32-29.71-22.95-99.84-42.01-189-47.01-7.07-0.39-14.09-0.72-21.12-0.96 0.36 2.99 0.73 5.82 1.08 8.85 3.79 0.68 7.69 1.7 11.58 3.14 13.5 4.91 24.08 13.34 29.79 22.46 89.17 21.45 156.5 53.34 182.6 82.06 0.67 0.72 2.27 2.32 2.89 3.04 2.35 2.56 4.75 5.57 7.07 8.81 4.65-7.73 6.64-15.27 6.59-25.59-0.08-8.92-1.8-16.91-6.16-26.26-4.8-10.3-14.06-19.99-22.07-26.22zm8.01 192.6c-0.39-0.82-1.44-2.72-1.87-3.52-17.23-33.37-72.76-80.27-151.5-122.5-21.21-11.4-42.52-21.91-63.51-31.05-0.04 3.26-0.08 6.48-0.2 9.71 10.08 4.96 20.08 14.35 27.36 26.97 1.7 3.03 3.07 5.98 4.34 9.06 29.45 18.28 59.12 41.51 86.82 68.74 40.82 40.07 70.62 82.88 86.89 120.7 12.34-9 20.55-25.82 20.55-45.12 0-11.36-4.22-24.02-8.91-33.02zm15.76-72.38c-2.58-11.08-9.57-22.44-16.15-30.18-0.55-0.7-2.03-2.32-2.62-2.97-24.29-28.67-88.94-61.89-175.1-85.33-13.25-3.57-26.51-6.93-39.55-9.88 0.13 3.14 0.33 6.35 0.46 9.51 11.25 2.52 23.4 9.81 33.52 21.04 3.75 4.16 6.97 8.61 9.53 13.04 22.74 9.65 45.68 21.47 68.2 35.26 48.73 29.92 88.34 61.72 112.7 94.85 9.96-11.52 13.36-26.53 9.02-45.34zm-72.69 250.2c17.87-7.4 31.89-29.68 33.75-56.51 0.88-13.2-1.29-25.5-5.69-35.65-15.93-37.04-45.07-78.66-85.07-118-33.46-32.86-69.97-59.76-105.3-79.09-0.29 3.39-0.62 6.69-0.95 10.03 10 4.97 19.74 14.42 26.97 26.88 6.64 11.48 9.98 23.69 9.94 34.23 9.9 10.55 19.61 21.57 29.18 32.76 58.01 67.94 92.64 132.1 96.56 169.4 0.72 5.48 0.96 10.84 0.61 15.94zm-17.56-5.43c-3.48-37.4-37.31-101.9-94.53-170.6-18.52-22.25-37.8-43.51-57.19-62.39-0.74 4.16-1.5 8.49-2.34 12.57 6.48 6.48 8.65 8.66 12.3 14.95 10.92 18.63 14 39.91 7.27 52.56 71.83 91.03 117.1 172.4 118.2 205.8 13.18-7.67 19.14-29.42 16.29-52.87zm-60.88-586.2c-0.78-0.039-2.64-0.078-3.4-0.121-25.29-1.617-67.13 10.45-115.9 34.85 1.55 3.14 3.03 6.25 4.5 9.531 17.52-4.18 34 0.82 41.99 9.801 48.94-13.26 84.41-17.1 112.8-12.67 0.78 0.172 2.7 0.551 3.48 0.738 2.93 0.742 6.07 1.703 9.24 2.91-0.41-7.769-2.58-14-7.58-21.35-4.32-6.25-9.36-11.09-16.94-15.64-8.32-5.019-19.47-7.422-28.12-8.051zm-1.25-36.38s-10.9-2.308-24.75-1.742c-2.4-5.179-7.26-9.527-12.4-14.24-6.17-5.668-12.77-9.629-22.01-12.64-8.87-2.847-19.57-3.097-28.48-2.109-1.46-1.949-3.55-4-5.62-5.918-5.1-4.684-10.55-7.91-18.11-10.37-8.4-2.731-18.75-2.57-26.52-1.34-0.68 0.09-2.33 0.43-3.01 0.539-14.02 2.328-31.21 9.281-52.3 23.91-7.48-4.648-27.64-7.558-35.94-7.558-25.61 0-51.47 12.21-71.25 33.85-0.801 0.762 5.039 6.762 5.84 6.012 19.94-19.27 42.32-30 65.9-30 7.89 0 18.61 2.129 26.23 4.399 4.02 1.46 8.08 3.16 12.07 5.191 17.73-12.34 33.44-20.19 45.6-22.87 0.63-0.11 2.07-0.52 2.7-0.641 7.03-1.508 16.39-2.129 24.14-0.078 6.54 1.801 11.15 4.02 15.72 7.617-17.61 4.453-39.96 15.43-64.96 32.03 2.87 2.539 5.7 5.21 8.52 8.062 23.98-15.39 45-24.8 60.84-27.38 0.74-0.148 2.56-0.527 3.34-0.617 8.55-1.453 20-1.594 29.23 1.418 8.38 2.781 14.38 6.309 20 11.47 1.61 1.48 2.97 2.91 4.26 4.351-26.76 6.27-59.49 19.2-95.84 38.17 2.31 3.434 4.48 6.953 6.68 10.62 47.23-23.55 87.66-36.29 115.8-36.93 1.2-0.078 4.09-0.219 5.2-0.289 9.82-0.161 21.8 0.949 32.79 4.179-1.54-3.89-3.94-6.82-7.5-10.04-4.98-4.441-10.94-6.211-16.15-7.051zm100.4 138c-2.81-7.563-6.76-13.75-13.32-20.37-7.25-7.199-18.01-12.56-26.72-15.35-0.74-0.226-2.66-0.777-3.4-0.976-30.25-9.703-89.37-5.442-160.1 14.32 0.94 2.809 1.82 5.609 2.64 8.477 2.74-0.079 5.29 0.082 8.15 0.312 14.08 1.25 26.07 8.219 32.98 15.8 69.14-5.102 116.5-3.031 144.3 7.066 0 0 14.75 4.774 17.72 6.844 0 0 1.05-7.434-2.17-16.12zm43.57 85.2c-1.64-8.75-4.74-16.31-10.64-24.77-6.52-9.309-17.27-17.18-26.29-22.01-0.76-0.367-2.73-1.289-3.56-1.699-33.22-17.48-105.6-24.02-194.3-13.49-0.59 0.09-1.02 0.11-1.56 0.168 0.64 3.153 1.31 5 1.89 8.192 8.17 0.621 16.97 3.019 25.59 7.031 7.97 3.727 14.94 9.977 20.43 15.31l0.07 0.039c82.17 7.05 145.7 24.78 174.2 46.8 0.73 0.56 2.89 2.12 3.64 2.73 2.77 2.13 5.76 4.49 8.61 7.28 3.22-8.45 3.73-15.41 1.95-25.58zm36.31 88.44c-0.96 13.9-5.37 26.89-12.09 37.46 8.32 12.24 12.7 27.75 12.11 45.25-0.6 19-7.4 36.44-18.05 49.43 6.84 12.11 10.3 26.38 9.75 42.52-0.98 28.48-14.55 53.24-34.49 66.21 0.68 5.44 0.84 10.72 0.72 16.47-1.29 42.79-19.76 69.75-49.43 81.24-6.31 30.73-26.99 59.09-45.45 72.95-22.44-95.17-93.09-186.7-118.6-222.8-40.97-58.13-50.54-113.4-73.36-180.1-26.93-78.69-45.82-162.3-117.9-211.8 0 7.84 0.43 15.9 1.367 24.26 11.88 107.2 98.52 281.7 67.15 383.5-1.89 6.16-4.08 12.21-6.72 18.07-30.88 69.76-101.1 80.62-173 48.17-44.8-20.18-91.37-37.26-112.8-86.14-8.613-19.68-11.66-39.8-9.688-57.02 0.43-3.85 2.52-6.95 5.801-8.06 4.473-1.53 9.551 1.11 12.21 6.08 1.992 3.41 3.34 8.19 3.692 13.45 0 0.22 0.039 0.42 0.078 0.64 0.078 1.16 0.312 2.45 0.781 3.67 2.266 5.53 8.223 8.33 13.38 6.27 5.137-2.12 7.402-8.31 5.176-13.82-0.391-0.98-0.86-1.82-1.485-2.65-1.308-1.78-2.597-3.83-3.847-6.01-2.696-4.97-4.356-9.89-4.961-13.9-0.84-5.74 2.343-11.61 7.89-13.97 0.371-0.2 0.957-0.47 1.348-0.64 20.33-8.29 44.53 2.29 59.08 23.85 5.332 8.04 10.41 17.2 15 27.08 7.188 15.45 6.816 31.19 18.52 44.89 19.67 22.87 77.07 37.86 102 7.56 48.54-58.91-5.43-135.1-39.08-185.2-42.38-63.1-101.4-135.3-131-206.4-77.5-185.7 54.77-367.8 268.1-367.8 135.5 0 220 59.01 268.1 129.5-92.52 7.2-142.8 67.07-142.8 67.07s18.5 1.867 30.49 21.97c0 0 8.65 1 16.37 1.989 18.67 2.441 35.76 11.99 42.89 32.79 6.05 17.56 6.41 28.58 6.41 28.58s12.46 5.23 19.72 22.05c4.1 9.531 5.2 14.26 5.24 23.89 21.42 7.199 37.79 25.6 46.79 48.94 4.73 12.38 5.67 18.32 4.56 30.27 24.1 12.11 42.24 46.35 41.3 74.11-0.29 9.47-2.67 18.02-6.17 26.09 10.78 12.54 16.39 30.04 15 50.16" fill="#231f20"/><g fill="#293d9b"><path d="m2701 2366v-58.52c0-3.84-2.88-5.76-7.68-5.27l-23.98 1.43c-1.44 0-3.36 0.96-3.83 3.84l-0.98 13.92v0.48h-72.9v-291.6l14.87-0.96c3.36 0 4.79-3.36 4.32-7.67l-1.44-23.98c0-2.41-1.45-3.84-3.84-3.84h-82.02c-3.83 0-5.75 2.88-5.28 7.68l1.45 23.97c0 1.44 0.95 3.37 3.83 3.84l13.91 0.96v291.6h-67.64l-0.95-14.87c0-3.37-3.35-4.8-7.67-4.33l-23.99 1.45c-2.4 0-3.83 1.43-3.83 3.82v58.05h267.6"/><path d="m3058 2029c3.36 0 4.79-3.36 4.31-7.67l-1.44-23.98c0-2.41-1.43-3.84-3.84-3.84h-82.02c-3.83 0-5.75 2.88-5.27 7.68l1.44 23.97c0 1.44 0.96 3.37 3.83 3.84l13.92 0.96v129h-166.9v-129l14.87-0.96c3.37 0 4.8-3.36 4.32-7.67l-1.44-23.98c0-2.41-1.45-3.84-3.84-3.84h-82.02c-3.84 0-5.75 2.88-5.28 7.68l1.44 23.97c0 1.44 0.97 3.37 3.84 3.84l13.92 0.96v299.3l-14.87 0.96c-3.36 0-4.8 3.36-4.33 7.68l1.44 23.98c0 2.4 1.45 3.84 3.84 3.84h82.02c3.84 0 5.76-2.89 5.28-7.67l-1.44-23.99c0-1.44-0.95-3.35-3.84-3.84l-13.91-0.96v-125.7h166.9v125.7l-14.87 0.96c-3.36 0-4.8 3.36-4.32 7.68l1.44 23.98c0 2.4 1.43 3.84 3.83 3.84h82.02c3.84 0 5.76-2.89 5.28-7.67l-1.44-23.99c0-1.44-0.96-3.35-3.84-3.84l-13.9-0.96v-299.3l14.87-0.96"/><path d="m3364 2056c2.4 0 3.83-1.44 3.83-3.84v-58.51h-232.6c-3.84 0-5.75 2.88-5.27 7.68l1.43 23.97c0 1.44 0.97 3.37 3.84 3.84l13.92 0.96v299.3l-14.87 0.96c-3.36 0-4.8 3.36-4.32 7.68l1.43 23.98c0 2.4 1.45 3.84 3.84 3.84h224.5v-58.52c0-3.84-2.89-5.76-7.67-5.27l-23.98 1.43c-1.44 0-3.35 0.96-3.84 3.84l-0.96 13.92h-119.4v-113.7h135.2v-44.14h-135.2v-125.2h127.6l0.97 14.87c0 3.36 3.37 4.8 7.67 4.32l23.98-1.45"/><path d="m3917 2366c3.85 0 5.76-2.89 5.27-7.67l-1.42-23.99c0-1.44-0.96-3.35-3.85-3.84l-13.9-0.96h-1.45v-198.6c0-96.89-37.88-142.9-134.8-142.9-92.58 0-132.9 31.19-132.9 142.9v198.6l-14.88 0.96c-3.36 0-4.81 3.36-4.32 7.68l1.44 23.98c0 2.4 1.43 3.84 3.85 3.84h82c3.85 0 5.77-2.89 5.27-7.67l-1.42-23.99c0-1.44-0.97-3.35-3.85-3.84l-13.88-0.96v-208.2c0-59.48 17.73-91.62 78.17-91.62 67.17 0 82.49 41.25 82.49 91.62v208.2l-14.85 0.96c-3.36 0-4.81 3.36-4.33 7.68l1.45 23.98c0 2.4 1.44 3.84 3.84 3.84h82.01"/><path d="m4319 2366c3.86 0 5.78-2.89 5.29-7.67l-1.43-23.99c0-1.44-0.98-3.35-3.86-3.84l-13.88-0.96h-4.32v-335.8h-35.97c-2.39 0-3.85 0.96-5.29 2.88l-196.2 274.4v-240.8h4.3l14.89-0.96c3.35 0 4.8-3.36 4.31-7.67l-1.42-23.98c0-2.41-1.46-3.84-3.85-3.84h-82.03c-3.83 0-5.75 2.88-5.27 7.68l1.44 23.97c0 1.44 0.96 3.37 3.83 3.84l13.91 0.96v299.3l-14.88 0.96c-3.34 0-4.78 3.36-4.3 7.68l1.44 23.98c0 2.4 1.43 3.84 3.83 3.84h53.22c2.9 0 4.33-1.44 5.79-3.36l192.3-268.6v235.5l-14.87 0.96c-3.35 0-4.78 3.36-4.32 7.68l1.44 23.98c0 2.4 1.45 3.84 3.84 3.84h82"/><path d="m4489 2029c3.37 0 4.8-3.36 4.32-7.67l-1.43-23.98c0-2.41-1.46-3.84-3.86-3.84h-82.01c-3.82 0-5.74 2.88-5.28 7.68l1.46 23.97c0 1.44 0.95 3.37 3.82 3.84l13.91 0.96v299.3l-14.86 0.96c-3.35 0-4.79 3.36-4.33 7.68l1.46 23.98c0 2.4 1.43 3.84 3.82 3.84h82.01c3.86 0 5.77-2.89 5.29-7.67l-1.43-23.99c0-1.44-0.98-3.35-3.86-3.84l-13.89-0.96v-299.3l14.86-0.96"/><path d="m4879 2366c3.85 0 5.76-2.89 5.29-7.67l-1.44-23.99c0-1.44-0.95-3.35-3.85-3.84l-13.91-0.96-119-324.2c-2.38-7.2-7.66-11.51-15.34-11.51l-40.3 1.43c-1.43 0-2.39 0.49-3.35 2.88l-124.2 331.4-14.85 0.96c-3.36 0-4.79 3.36-4.31 7.68l1.44 23.98c0 2.4 1.43 3.84 3.81 3.84h82.98c3.86 0 5.77-2.89 5.28-7.67l-1.42-23.99c0-1.44-0.97-3.35-3.86-3.84l-13.9-0.96 96.4-270.5h1.44l95.96 270.5-14.88 0.96c-3.36 0-4.8 3.36-4.32 7.68l1.43 23.98c0 2.4 1.45 3.84 3.83 3.84h81.07"/><path d="m5169 2056c2.41 0 3.86-1.44 3.86-3.84v-58.51h-232.7c-3.83 0-5.75 2.88-5.27 7.68l1.44 23.97c0 1.44 0.95 3.37 3.83 3.84l13.91 0.96v299.3l-14.87 0.96c-3.35 0-4.79 3.36-4.31 7.68l1.44 23.98c0 2.4 1.44 3.84 3.83 3.84h224.5v-58.52c0-3.84-2.88-5.76-7.66-5.27l-23.99 1.43c-1.47 0-3.38 0.96-3.85 3.84l-0.96 13.92h-119.4v-113.7h135.3v-44.14h-135.3v-125.2h127.6l0.96 14.87c0 3.36 3.36 4.8 7.68 4.32l23.96-1.45"/><path d="m5360 2180c51.82 0 81.56 22.56 81.56 74.35 0 49.42-28.32 69.08-77.23 69.08h-46.04v-143.4h41.71zm148.2-151.1c3.35 0 4.78-3.36 4.32-7.67l-1.44-23.98c0-2.41-1.42-3.84-3.83-3.84h-54.7l-81.52 143.9h-52.76v-107.4l14.88-0.96c3.32 0 4.78-3.36 4.3-7.67l-1.44-23.98c0-2.41-1.43-3.84-3.82-3.84h-82.04c-3.85 0-5.76 2.88-5.28 7.68l1.43 23.97c0 1.44 0.99 3.37 3.85 3.84l13.9 0.96v299.3l-14.86 0.96c-3.37 0-4.8 3.36-4.32 7.68l1.43 23.98c0 2.4 1.46 3.84 3.85 3.84h108.4c93.53 0 137.7-35.5 137.7-111.3 0-48.44-25.41-89.69-70.97-107l68.1-117.5 14.86-0.96"/><path d="m5806 2096c0-60.43-44.61-104.6-128.6-104.6-45.09 0-81.06 9.58-107 20.62v58.04c0 4.31 3.38 6.7 9.13 6.23l28.78-1.92c1.9 0 4.29-0.95 4.8-4.31l0.95-25.91c22.55-5.27 45.08-8.14 60.45-8.14 43.62 0 77.69 14.86 77.69 54.67 0 42.69-16.31 51.33-90.18 77.7-53.71 20.16-90.65 47.5-90.65 100.7 0 59.96 45.55 99.77 126.6 99.77 29.72 0 58.04-2.88 84.93-9.59v-62.84c0-4.32-3.39-6.72-9.14-6.23l-28.78 1.91c-1.95 0-4.31 0.96-4.81 4.32l-0.94 25.91c-12.97 1.43-25.9 2.39-37.91 2.39-44.62 0-73.87-20.62-73.87-53.72 0-34.54 20.15-47.01 85.88-70.5 68.59-24 92.57-56.61 92.57-104.6"/><path d="m5961 2029c3.34 0 4.77-3.36 4.29-7.67l-1.42-23.98c0-2.41-1.44-3.84-3.83-3.84h-82.02c-3.86 0-5.78 2.88-5.31 7.68l1.45 23.97c0 1.44 0.99 3.37 3.86 3.84l13.9 0.96v299.3l-14.87 0.96c-3.37 0-4.81 3.36-4.34 7.68l1.45 23.98c0 2.4 1.44 3.84 3.86 3.84h82.02c3.83 0 5.73-2.89 5.25-7.67l-1.42-23.99c0-1.44-0.97-3.35-3.83-3.84l-13.92-0.96v-299.3l14.88-0.96"/><path d="m6291 2366v-58.52c0-3.84-2.88-5.76-7.67-5.27l-23.99 1.43c-1.45 0-3.34 0.96-3.85 3.84l-0.96 13.92v0.48h-72.89v-291.6l14.88-0.96c3.34 0 4.79-3.36 4.3-7.67l-1.44-23.98c0-2.41-1.42-3.84-3.84-3.84h-82.01c-3.85 0-5.76 2.88-5.28 7.68l1.43 23.97c0 1.44 0.96 3.37 3.85 3.84l13.9 0.96v291.6h-67.62l-0.95-14.87c0-3.37-3.37-4.8-7.69-4.33l-23.98 1.45c-2.4 0-3.85 1.43-3.85 3.82v58.05h267.7"/><path d="m6614 2366c3.81 0 5.75-2.89 5.28-7.67l-1.47-23.99c0-1.44-0.95-3.35-3.81-3.84l-13.92-0.96-104.6-204.8v-94.49l14.86-0.96c3.37 0 4.81-3.36 4.33-7.67l-1.43-23.98c0-2.41-1.43-3.84-3.84-3.84h-82.03c-3.82 0-5.76 2.88-5.28 7.68l1.46 23.97c0 1.44 0.92 3.37 3.82 3.84l13.89 0.96v95.46l-103.1 203.8-14.4 0.96c-3.35 0-4.8 3.36-4.33 7.68l1.46 23.98c0 2.4 1.44 3.84 3.83 3.84h82.03c3.82 0 5.75-2.89 5.28-7.67l-1.46-23.99c0-1.44-0.95-3.35-3.82-3.84l-13.43-0.96 74.83-154.4h1.44l77.23 154.4-14.89 0.96c-3.35 0-4.79 3.36-4.3 7.68l1.42 23.98c0 2.4 1.45 3.84 3.84 3.84h81.07"/><path d="m6856 2180c0-62.83 14.38-144.4 93.05-144.4 65.22 0 93.52 55.63 93.52 144.4 0 64.29-15.83 143.4-93.04 143.4-78.67 0-93.53-81.07-93.53-143.4zm243.2-0.94c0-127.1-56.11-188.5-150.1-188.5-93.05 0-150.1 63.31-150.1 188.5 0 90.18 34.05 189 151.1 189 100.3 0 149.2-76.74 149.2-189"/><path d="m7387 2366v-58.52c0-3.84-2.88-5.76-7.67-5.27l-23.98 1.43c-1.45 0-3.37 0.96-3.84 3.84l-0.97 13.92h-119.9v-113.7h130v-44.14h-130v-133.3l14.88-0.96c3.35 0 4.81-3.36 4.32-7.67l-1.44-23.98c0-2.41-1.45-3.84-3.84-3.84h-82.04c-3.81 0-5.73 2.88-5.26 7.68l1.45 23.97c0 1.44 0.94 3.37 3.81 3.84l13.92 0.96v299.3l-14.85 0.96c-3.37 0-4.8 3.36-4.33 7.68l1.45 23.98c0 2.4 1.42 3.84 3.81 3.84h224.5"/><path d="m3450 1821c8.48 0 12.72-6.36 11.66-16.97l-3.18-53.02c0-3.18-2.13-7.42-8.48-8.48l-29.7-2.12-179.2-705.2c-6.38-23.33-25.46-37.12-48.79-37.12l-82.7 3.179c-11.68 0-15.92 7.43-19.11 19.09l-144.2 620.3h-1.05l-142.1-592.8c-5.31-21.22-19.09-50.91-56.21-49.85l-79.52 3.179c-9.55 0-15.9 5.31-19.09 19.09l-173.9 720-31.81 2.12c-7.42 0-10.6 7.41-9.56 16.96l3.19 53.02c0 5.3 3.2 8.49 8.48 8.49h175c8.48 0 12.72-6.36 11.67-16.97l-3.19-53.02c0-3.18-2.12-7.42-8.48-8.48l-29.7-2.12 135.7-618.2h1.06l151.6 650c8.48 37.11 26.51 49.84 51.97 48.78l60.44-3.19c10.59-1.05 14.83-6.36 18.02-20.14l153.8-675.5h1.07l142.1 618.2-31.81 2.12c-7.42 0-10.61 7.41-9.55 16.96l3.18 53.02c0 5.3 3.19 8.49 8.48 8.49h173.9"/><path d="m4038 1136c5.29 0 8.48-3.18 8.48-8.49v-129.4h-514.3c-8.48 0-12.73 6.369-11.67 16.97l3.19 53.02c0 3.18 2.11 7.43 8.48 8.49l30.74 2.12v661.7l-32.87 2.12c-7.42 0-10.6 7.41-9.54 16.96l3.19 53.02c0 5.3 3.17 8.49 8.48 8.49h496.3v-129.4c0-8.47-6.38-12.71-16.97-11.65l-53.02 3.18c-3.19 0-7.43 2.12-8.5 8.47l-2.1 30.76h-264v-251.3h299v-97.56h-299v-276.8h282.1l2.12 32.88c0 7.41 7.42 10.6 16.96 9.54l53.01-3.18"/><path d="m4646 1224c0-133.6-98.61-231.2-284.2-231.2-99.68 0-179.2 21.22-236.5 45.61v128.3c0 9.55 7.41 14.86 20.15 13.8l63.61-4.25c4.25 0 9.56-2.13 10.62-9.55l2.11-57.25c49.83-11.67 99.69-18.02 133.6-18.02 96.52 0 171.8 32.86 171.8 120.9 0 94.38-36.04 113.5-199.4 171.8-118.8 44.54-200.4 105-200.4 222.7 0 132.5 100.8 220.6 280 220.6 65.75 0 128.3-6.36 187.7-21.21v-138.9c0-9.54-7.41-14.85-20.13-13.78l-63.62 4.24c-4.25 0-9.56 2.11-10.61 9.54l-2.11 57.25c-28.65 3.2-57.28 5.31-83.77 5.31-98.62 0-163.3-45.59-163.3-118.8 0-76.35 44.55-103.9 189.8-155.9 151.6-53.02 204.7-125.1 204.7-231.2"/><path d="m5280 1821v-129.4c0-8.47-6.37-12.71-16.97-11.65l-53.02 3.18c-3.16 0-7.43 2.12-8.48 8.47l-2.11 30.76v1.06h-161.2v-644.7l32.88-2.12c7.43 0 10.6-7.43 9.54-16.98l-3.19-53.01c0-5.31-3.16-8.489-8.48-8.489h-181.3c-8.49 0-12.73 6.369-11.67 16.97l3.18 53.02c0 3.18 2.11 7.43 8.49 8.49l30.74 2.12v644.7h-149.5l-2.11-32.86c0-7.43-7.44-10.61-16.97-9.56l-53.01 3.19c-5.33 0-8.49 3.18-8.49 8.48v128.3h591.7"/><path d="m5875 1136c5.31 0 8.48-3.18 8.48-8.49v-129.4h-514.3c-8.49 0-12.73 6.369-11.66 16.97l3.17 53.02c0 3.18 2.15 7.43 8.49 8.49l30.77 2.12v661.7l-32.88 2.12c-7.43 0-10.62 7.41-9.55 16.96l3.17 53.02c0 5.3 3.18 8.49 8.49 8.49h496.3v-129.4c0-8.47-6.34-12.71-16.97-11.65l-53.01 3.18c-3.19 0-7.42 2.12-8.48 8.47l-2.13 30.76h-264v-251.3h299v-97.56h-299v-276.8h282.1l2.11 32.88c0 7.41 7.44 10.6 16.97 9.54l53.02-3.18"/><path d="m6238 1410c114.5 0 180.3 49.84 180.3 164.4 0 109.2-62.56 152.7-170.7 152.7h-101.8v-317.1h92.25zm327.7-334c7.43 0 10.58-7.43 9.53-16.98l-3.17-53.01c0-5.31-3.19-8.489-8.5-8.489h-120.9l-180.3 318.1h-116.6v-237.5l32.87-2.12c7.41 0 10.59-7.43 9.55-16.98l-3.2-53.01c0-5.31-3.18-8.489-8.46-8.489h-181.3c-8.49 0-12.73 6.369-11.65 16.97l3.16 53.02c0 3.18 2.13 7.43 8.49 8.49l30.76 2.12v661.7l-32.87 2.12c-7.44 0-10.62 7.41-9.54 16.96l3.16 53.02c0 5.3 3.2 8.49 8.49 8.49h239.6c206.8 0 304.3-78.47 304.3-246 0-107.1-56.23-198.3-156.9-236.5l150.6-259.8 32.88-2.12"/><path d="m7379 1821c8.49 0 12.74-6.36 11.67-16.97l-3.18-53.02c0-3.18-2.1-7.42-8.49-8.48l-30.73-2.12h-9.54v-742.3h-79.53c-5.32 0-8.49 2.129-11.67 6.369l-433.7 606.6v-532.3h9.55l32.87-2.12c7.42 0 10.62-7.43 9.54-16.98l-3.18-53.01c0-5.31-3.18-8.489-8.49-8.489h-181.3c-8.48 0-12.74 6.369-11.66 16.97l3.18 53.02c0 3.18 2.1 7.43 8.48 8.49l30.74 2.12v661.7l-32.88 2.12c-7.4 0-10.6 7.41-9.52 16.96l3.18 53.02c0 5.3 3.19 8.49 8.48 8.49h117.7c6.35 0 9.54-3.19 12.73-7.43l425.2-593.8v520.7l-32.87 2.12c-7.42 0-10.58 7.41-9.54 16.96l3.19 53.02c0 5.3 3.17 8.49 8.48 8.49h181.3"/><path d="m2863 378.7-118 334.8h-0.9l-111.6-334.8h230.5zm199-186c6.36 0 9.08-6.359 8.17-14.52l-2.72-45.37c0-4.539-2.73-7.258-6.34-7.258h-158.8c-7.26 0-10.9 5.449-9.98 14.52l2.72 45.37c0 2.722 1.8 6.351 7.26 7.261l25.4 1.809-35.38 100.7h-287.6l-33.57-100.7 28.12-1.809c6.35 0 9.08-6.359 8.17-14.52l-2.72-45.37c0-4.539-2.72-7.258-7.26-7.258h-153.4c-7.26 0-10.9 5.449-9.98 14.52l2.72 45.37c0 2.722 1.81 6.351 7.26 7.261l25.41 1.809 203.2 566.2-27.22 1.808c-6.34 0-9.07 6.352-8.16 14.52l2.72 45.37c0 4.539 2.73 7.25 7.28 7.25h144.3l243.2-635.2 27.21-1.809"/><path d="m3637 829.7c7.23 0 10.88-5.43 9.97-14.51l-2.74-45.36c0-2.731-1.78-6.36-7.23-7.27l-26.33-1.808h-2.72v-375.7c0-183.3-71.68-270.4-255-270.4-175.1 0-251.4 58.99-251.4 270.4v375.7l-28.12 1.808c-6.36 0-9.08 6.352-8.17 14.52l2.71 45.37c0 4.539 2.74 7.25 7.27 7.25h155.2c7.26 0 10.89-5.43 9.99-14.51l-2.73-45.36c0-2.731-1.81-6.36-7.26-7.27l-26.31-1.808v-393.8c0-112.5 33.57-173.3 147.9-173.3 127 0 156.1 78.04 156.1 173.3v393.8l-28.12 1.808c-6.36 0-9.08 6.352-8.17 14.52l2.73 45.37c0 4.539 2.72 7.25 7.25 7.25h155.2"/><path d="m4152 318.9c0-114.3-84.38-197.8-243.2-197.8-85.28 0-153.3 18.15-202.3 39.01v109.8c0 8.168 6.36 12.72 17.25 11.8l54.43-3.628c3.63 0 8.17-1.809 9.08-8.168l1.8-48.99c42.67-9.988 85.31-15.42 114.3-15.42 82.57 0 147 28.12 147 103.4 0 80.77-30.83 97.09-170.6 147-101.6 38.11-171.5 89.83-171.5 190.6 0 113.4 86.2 188.8 239.6 188.8 56.26 0 109.8-5.461 160.6-18.17v-118.9c0-8.161-6.37-12.69-17.24-11.79l-54.45 3.628c-3.64 0-8.19 1.809-9.08 8.161l-1.8 49.01c-24.52 2.723-49.03 4.532-71.69 4.532-84.4 0-139.7-39.01-139.7-101.6 0-65.34 38.11-88.93 162.4-133.4 129.8-45.37 175.1-107.1 175.1-197.8"/><path d="m4707 829.7v-110.7c0-7.25-5.46-10.89-14.53-9.981l-45.37 2.731c-2.71 0-6.35 1.808-7.23 7.25l-1.85 26.32v0.898h-137.9v-551.7l28.13-1.809c6.35 0 9.1-6.359 8.2-14.52l-2.74-45.37c0-4.539-2.72-7.258-7.26-7.258h-155.2c-7.24 0-10.88 5.449-9.96 14.52l2.72 45.37c0 2.722 1.8 6.351 7.24 7.261l26.32 1.809v551.7h-127.9l-1.8-28.12c0-6.347-6.36-9.078-14.52-8.168l-45.4 2.731c-4.51 0-7.22 2.719-7.22 7.25v109.8h506.3"/><path d="m4993 478.6c98.02 0 154.3 42.66 154.3 140.7 0 93.46-53.51 130.7-146.1 130.7h-87.09v-271.3h78.92zm280-285.9c6.36 0 9.08-6.359 8.19-14.52l-2.73-45.37c0-4.539-2.73-7.258-7.28-7.258h-103.4l-154.2 272.2h-99.81v-203.3l28.13-1.809c6.34 0 9.06-6.359 8.16-14.52l-2.71-45.37c0-4.539-2.72-7.258-7.28-7.258h-155.2c-7.25 0-10.87 5.449-10 14.52l2.75 45.37c0 2.722 1.8 6.351 7.25 7.261l26.32 1.809v566.2l-28.12 1.808c-6.34 0-9.07 6.352-8.2 14.52l2.75 45.37c0 4.539 2.72 7.25 7.25 7.25h205.1c177 0 260.4-67.14 260.4-210.5 0-91.64-48.08-169.7-134.3-202.4l129-222.2 28-1.8"/><path d="m5752 378.7-118 334.8h-0.88l-111.7-334.8h230.5zm199-186c6.35 0 9.08-6.359 8.16-14.52l-2.7-45.37c0-4.539-2.73-7.258-6.37-7.258h-158.8c-7.25 0-10.89 5.449-9.98 14.52l2.73 45.37c0 2.722 1.79 6.351 7.25 7.261l25.4 1.809-35.38 100.7h-287.6l-33.58-100.7 28.12-1.809c6.38 0 9.09-6.359 8.16-14.52l-2.7-45.37c0-4.539-2.74-7.258-7.25-7.258h-153.4c-7.24 0-10.89 5.449-9.97 14.52l2.73 45.37c0 2.722 1.79 6.351 7.24 7.261l25.42 1.809 203.2 566.2-27.2 1.808c-6.37 0-9.07 6.352-8.18 14.52l2.75 45.37c0 4.539 2.7 7.25 7.25 7.25h144.3l243.2-635.2 27.24-1.809"/><path d="m6459 243.5c4.55 0 7.23-2.719 7.23-7.258v-110.7h-440.1c-7.26 0-10.87 5.449-10 14.52l2.74 45.37c0 2.722 1.82 6.351 7.26 7.261l26.31 1.809v566.2l-28.12 1.808c-6.33 0-9.06 6.352-8.19 14.52l2.74 45.37c0 4.539 2.71 7.25 7.26 7.25h155.2c7.26 0 10.88-5.43 9.97-14.51l-2.71-45.36c0-2.731-1.8-6.36-7.26-7.27l-26.32-1.808v-550.8h242.3l1.82 28.13c0 6.347 6.34 9.07 14.52 8.168l45.38-2.731"/><path d="m6688 192.7c6.36 0 9.08-6.359 8.17-14.52l-2.72-45.37c0-4.539-2.73-7.258-7.27-7.258h-155.1c-7.29 0-10.9 5.449-10 14.52l2.71 45.37c0 2.722 1.82 6.351 7.29 7.261l26.3 1.809v566.2l-28.13 1.808c-6.34 0-9.07 6.352-8.17 14.52l2.71 45.37c0 4.539 2.75 7.25 7.29 7.25h155.1c7.27 0 10.9-5.43 9.99-14.51l-2.72-45.36c0-2.731-1.81-6.36-7.27-7.27l-26.3-1.808v-566.2l28.12-1.809"/><path d="m7184 378.7-118 334.8h-0.9l-111.6-334.8h230.5zm199-186c6.37 0 9.06-6.359 8.17-14.52l-2.73-45.37c0-4.539-2.73-7.258-6.34-7.258h-158.8c-7.23 0-10.89 5.449-9.98 14.52l2.75 45.37c0 2.722 1.81 6.351 7.23 7.261l25.41 1.809-35.39 100.7h-287.6l-33.55-100.7 28.11-1.809c6.36 0 9.09-6.359 8.19-14.52l-2.75-45.37c0-4.539-2.69-7.258-7.24-7.258h-153.4c-7.28 0-10.91 5.449-9.99 14.52l2.71 45.37c0 2.722 1.83 6.351 7.28 7.261l25.4 1.809 203.2 566.2-27.21 1.808c-6.33 0-9.07 6.352-8.14 14.52l2.68 45.37c0 4.539 2.74 7.25 7.28 7.25h144.3l243.2-635.2 27.21-1.809"/><path d="m1293 2053h-46.54v74.37h45.55c0.43-1.21 0.77-3.52 0.77-6.6 0-2.41-0.23-4.51-0.77-6.82h-29.82v-16.06h25.2c0.44-1.21 0.77-3.41 0.77-6.5 0-2.41-0.23-4.39-0.77-6.7h-25.2v-18.26h30.81c0.44-1.21 0.76-3.52 0.76-6.61 0-2.42-0.21-4.51-0.76-6.82"/><path d="m1328 2115c-2.42 0-5.39-0.12-7.26-0.23v-22h5.5c9.03 0 12.98 3.3 12.98 11.44s-3.95 10.79-11.22 10.79zm31.8-61.95c-2.86-0.44-5.83-0.66-9.24-0.66-3.09 0-6.16 0.11-8.25 0.55l-15.08 26.73h-6.49v-26.73c-2.75-0.44-5.06-0.55-8.03-0.55-2.64 0-4.95 0.11-7.7 0.55v74.37c5.06 0.33 15.62 0.56 22 0.56 18.7 0 28.06-6.61 28.06-23.77 0-9.13-5.51-18.26-13.2-21.56l17.93-29.49"/><path d="m1414 2053h-46.54v74.37h45.55c0.44-1.21 0.77-3.52 0.77-6.6 0-2.41-0.23-4.51-0.77-6.82h-29.82v-16.06h25.2c0.44-1.21 0.77-3.41 0.77-6.5 0-2.41-0.23-4.39-0.77-6.7h-25.2v-18.26h30.81c0.44-1.21 0.76-3.52 0.76-6.61 0-2.42-0.21-4.51-0.76-6.82"/><path d="m1270 2013c-2.21 0-5.07-0.11-7.27-0.22v-21.89h6.83c8.46 0 12.98 2.2 12.98 11.22 0 7.7-3.85 10.89-12.54 10.89zm0.44-35.31h-7.71v-26.63c-2.09-0.33-4.62-0.55-7.92-0.55-2.97 0-5.72 0.22-7.81 0.55v74.27c6.39 0.32 16.06 0.66 22.33 0.66 16.84 0 29.05-5.84 29.05-23.33 0-17.05-10.68-24.97-27.94-24.97"/><path d="m1354 1951h-46.54v74.37h45.55c0.44-1.21 0.77-3.52 0.77-6.6 0-2.41-0.22-4.51-0.77-6.82h-29.82v-16.06h25.19c0.45-1.21 0.77-3.41 0.77-6.5 0-2.41-0.21-4.39-0.77-6.7h-25.19v-18.26h30.81c0.43-1.21 0.77-3.52 0.77-6.61 0-2.42-0.23-4.51-0.77-6.82"/><path d="m1388 2013c-2.42 0-5.39-0.12-7.26-0.23v-22h5.5c9.02 0 12.98 3.3 12.98 11.44s-3.96 10.79-11.22 10.79zm31.79-61.95c-2.85-0.44-5.83-0.66-9.24-0.66-3.07 0-6.16 0.11-8.25 0.55l-15.07 26.73h-6.49v-26.73c-2.75-0.44-5.06-0.55-8.03-0.55-2.65 0-4.95 0.11-7.7 0.55v74.37c5.05 0.33 15.62 0.56 22 0.56 18.7 0 28.05-6.61 28.05-23.77 0-9.13-5.49-18.26-13.2-21.56l17.93-29.49"/><path d="m1572 2081-6.49 21.01c-0.77 2.42-1.54 5.5-2.2 8.91h-0.22c-0.55-3.41-1.43-6.49-2.2-8.91l-6.16-21.01h17.27zm26.29-28.17c-1.43-0.33-4.84-0.55-8.47-0.55-2.86 0-6.16 0.33-7.59 0.55l-5.5 15.07h-26.41l-5.17-15.07c-2.41-0.33-5.28-0.55-8.14-0.55s-6.16 0.22-7.81 0.55l25.97 74.37c1.54 0.33 5.17 0.56 7.59 0.56 2.97 0 6.49-0.23 7.7-0.56l27.83-74.37"/><path d="m1628 2115c-2.42 0-5.39-0.12-7.26-0.23v-22h5.5c9.03 0 12.99 3.3 12.99 11.44s-3.96 10.79-11.23 10.79zm31.8-61.95c-2.86-0.44-5.83-0.66-9.24-0.66-3.08 0-6.16 0.11-8.25 0.55l-15.08 26.73h-6.49v-26.73c-2.74-0.44-5.06-0.55-8.03-0.55-2.64 0-4.95 0.11-7.7 0.55v74.37c5.06 0.33 15.62 0.56 22 0.56 18.7 0 28.06-6.61 28.06-23.77 0-9.13-5.5-18.26-13.2-21.56l17.93-29.49"/><path d="m1565 2012h-19.7v-60.95c-2.09-0.33-5.05-0.55-7.8-0.55-2.76 0-5.73 0.22-7.93 0.55v60.95h-19.69c-0.44 1.43-0.77 4.84-0.77 6.71 0 1.88 0.44 5.28 0.88 6.71h55.01c0.44-1.43 0.77-4.83 0.77-6.71 0-1.87-0.33-5.28-0.77-6.71"/><path d="m1620 1951h-46.54v74.37h45.55c0.44-1.21 0.77-3.52 0.77-6.6 0-2.41-0.22-4.51-0.77-6.82h-29.81v-16.06h25.19c0.44-1.21 0.77-3.41 0.77-6.5 0-2.41-0.22-4.39-0.77-6.7h-25.19v-18.26h30.8c0.44-1.21 0.77-3.52 0.77-6.61 0-2.42-0.22-4.51-0.77-6.82"/><path d="m1653 1950c-8.04 0-16.84 1.54-23.11 4.41-0.33 1.53-0.55 3.51-0.55 5.27 0 2.64 0.33 5.17 1.1 8.15 6.49-2.64 15.07-4.3 21.78-4.3 7.82 0 12 3.64 12 8.59 0 5.5-3.52 7.8-14.2 11.11-11.88 3.63-20.57 9.35-20.57 22.11 0 13.64 11.77 21.23 27.29 21.23 7.14 0 13.53-1.1 17.82-2.53 0.33-1.21 0.55-3.19 0.55-6.05 0-2.08-0.22-5.28-0.66-7.04-5.5 1.43-11.78 2.21-16.83 2.21-8.26 0-12.77-2.76-12.77-7.16 0-5.17 4.07-7.26 13.98-10.34 11.88-3.74 20.68-9.35 20.68-22.56 0-14.4-11.33-23.1-26.51-23.1"/><path d="m498 2086c1.653-4.62 3.301-9.79 4.074-14.19h0.219c0.766 4.4 2.309 9.57 3.961 14.19l8.141 23.54c2.09 6.05 3.301 11.88 3.406 18.26 2.203 0.33 5.281 0.56 7.812 0.56 2.309 0 5.61-0.23 7.594-0.56 0-7.37-1.324-14.4-4.293-22.22l-19.91-52.15c-1.316-0.33-4.398-0.55-7.039-0.55-2.969 0-5.39 0.22-7.375 0.55l-19.6 51c-2.973 7.81-4.293 15.07-4.293 22.44 1.984 0.33 4.621 0.56 7.922 0.56 2.531 0 5.723-0.23 7.703-0.56 0-6.82 1.207-12.21 3.297-18.26l8.363-23.54"/><path d="m558.8 2053c-2.086-0.33-4.617-0.55-7.918-0.55-2.972 0-5.722 0.22-7.812 0.55v74.37c2.09 0.33 5.172 0.56 7.922 0.56 3.078 0 5.828-0.23 7.808-0.56v-74.37"/><path d="m623.8 2114h-19.69v-60.95c-2.09-0.33-5.059-0.55-7.809-0.55-2.754 0-5.723 0.22-7.926 0.55v60.95h-19.69c-0.438 1.43-0.77 4.84-0.77 6.71 0 1.88 0.446 5.28 0.883 6.71h55c0.441-1.43 0.773-4.83 0.773-6.71 0-1.87-0.332-5.28-0.773-6.71"/><path d="m508.1 1979-6.493 21.01c-0.769 2.42-1.543 5.5-2.203 8.91h-0.218c-0.551-3.41-1.43-6.49-2.204-8.91l-6.156-21.01h17.27zm26.29-28.17c-1.43-0.33-4.84-0.55-8.473-0.55-2.859 0-6.16 0.33-7.594 0.55l-5.496 15.07h-26.41l-5.172-15.07c-2.418-0.33-5.277-0.55-8.141-0.55-2.859 0-6.16 0.22-7.812 0.55l25.97 74.37c1.539 0.33 5.168 0.56 7.586 0.56 2.972 0 6.496-0.23 7.707-0.56l27.83-74.37"/><path d="m618.3 1951c-1.316-0.33-4.293-0.55-7.367-0.55-3.301 0-6.383 0.33-7.707 0.55l-1.316 44.67-16.29-37.63c-1.207-0.43-3.847-0.65-5.5-0.65-1.98 0-4.398 0.22-5.609 0.54l-16.28 37.74-1.434-44.67c-1.429-0.33-4.84-0.55-7.804-0.55-1.766 0-4.735 0.22-6.715 0.55l3.191 74.37c2.09 0.22 4.18 0.56 6.379 0.56 2.641 0 5.172-0.23 6.492-0.56l21.78-50.49 21.9 50.49c2.195 0.33 4.398 0.56 6.375 0.56 2.535 0 4.844-0.23 6.492-0.56l3.41-74.37"/><path d="m778.8 2053h-46.54v74.37h45.55c0.442-1.21 0.77-3.52 0.77-6.6 0-2.41-0.223-4.51-0.77-6.82h-29.81v-16.06h25.19c0.446-1.21 0.774-3.41 0.774-6.5 0-2.41-0.219-4.39-0.774-6.7h-25.19v-18.26h30.8c0.437-1.21 0.765-3.52 0.765-6.61 0-2.42-0.219-4.51-0.765-6.82"/><path d="m796.2 2073 14.08 19.14-12.87 17.93c-4.18 5.72-6.82 11-7.699 17.16 1.758 0.33 5.386 0.56 7.699 0.56 2.75 0 5.941-0.23 7.812-0.56 0.547-4.83 3.301-8.8 6.157-12.98l7.707-11.22 7.918 11.11c2.64 3.74 5.172 8.47 5.609 13.09 1.871 0.22 5.172 0.56 7.813 0.56 2.418 0 5.718-0.23 7.48-0.56-0.879-7.04-3.738-12.43-8.25-18.7l-11.66-16.06 14.08-19.8c4.949-6.83 7.262-13.54 7.699-19.81-1.871-0.33-5.062-0.55-7.812-0.55-2.422 0-5.61 0.22-7.7 0.55-0.332 4.84-1.984 9.47-4.73 13.64l-10.45 15.74-10.24-15.41c-2.632-4.06-4.175-9.13-4.175-13.97-1.758-0.33-5.5-0.55-7.922-0.55-2.641 0-5.828 0.33-7.699 0.55 0.218 6.71 1.429 12.33 7.148 20.14"/><path d="m905.4 2112c-5.285 1.65-11.89 2.86-17.16 2.86-12.54 0-20.68-8.91-20.68-24.86 0-14.63 6.379-24.21 20.57-24.21 5.285 0 11.23 1.1 16.5 2.75 0.774-1.97 1.321-5.06 1.321-7.36 0-1.88-0.11-4.18-0.328-5.18-5.504-2.52-12.54-3.96-19.04-3.96-23.65 0-35.32 14.31-35.32 37.63 0 22.66 12.54 38.94 35.98 38.94 5.722 0 13.2-1.42 18.48-3.74 0.332-1.1 0.442-3.52 0.442-4.95 0-3.41-0.442-6.6-0.766-7.92"/><path d="m757.2 2013c-9.461 0-14.85-7.26-14.85-24.75s5.39-24.76 14.85-24.76c9.457 0 14.85 7.27 14.85 24.76s-5.395 24.75-14.85 24.75zm0-63.04c-20.36 0-31.14 14.08-31.14 38.29 0 24.2 10.78 38.28 31.14 38.28 20.35 0 31.13-14.08 31.13-38.28 0-24.21-10.78-38.29-31.13-38.29"/><path d="m842.7 1951h-45.55v74.37c2.09 0.33 4.949 0.56 7.699 0.56 3.082 0 6.051-0.23 8.031-0.56v-60.94h29.82c0.437-1.21 0.769-3.52 0.769-6.61 0-2.42-0.222-4.51-0.769-6.82"/><path d="m905.3 1979c0-18.92-7.262-29.38-28.38-29.38-21.34 0-28.06 10.46-28.06 29.38v46.09c2.203 0.33 5.066 0.56 7.703 0.56 3.078 0 5.832-0.23 8.031-0.56v-47.19c0-10.12 2.859-15.84 12.43-15.84 9.57 0 12.87 5.72 12.87 15.84v47.19c1.984 0.33 5.285 0.56 7.812 0.56 2.422 0 5.723-0.23 7.594-0.56v-46.09"/></g></g></g></svg>
